<mxfile host="Electron" agent="Mozilla/5.0 (Windows NT 10.0; Win64; x64) AppleWebKit/537.36 (KHTML, like Gecko) draw.io/24.7.17 Chrome/128.0.6613.36 Electron/32.0.1 Safari/537.36" version="24.7.17">
  <diagram name="Page-1" id="fwtpWjdxJ97ISXQIy4nU">
    <mxGraphModel dx="1509" dy="3080" grid="1" gridSize="10" guides="1" tooltips="1" connect="1" arrows="1" fold="1" page="1" pageScale="1" pageWidth="850" pageHeight="1100" math="0" shadow="0">
      <root>
        <mxCell id="0" />
        <mxCell id="1" parent="0" />
        <mxCell id="ei6kTYKVST2P0mMHp64S-138" value="app" style="shape=module;align=left;spacingLeft=20;align=center;verticalAlign=top;whiteSpace=wrap;html=1;" vertex="1" parent="1">
          <mxGeometry x="1290" y="600" width="420" height="470" as="geometry" />
        </mxCell>
        <mxCell id="ei6kTYKVST2P0mMHp64S-135" value="library_module" style="shape=module;align=left;spacingLeft=20;align=center;verticalAlign=top;whiteSpace=wrap;html=1;" vertex="1" parent="1">
          <mxGeometry x="1800" y="600" width="510" height="470" as="geometry" />
        </mxCell>
        <mxCell id="sFRYXYYUaVxemdtP8rXa-1" value="Element" style="swimlane;fontStyle=1;align=center;verticalAlign=top;childLayout=stackLayout;horizontal=1;startSize=26;horizontalStack=0;resizeParent=1;resizeParentMax=0;resizeLast=0;collapsible=1;marginBottom=0;whiteSpace=wrap;html=1;" parent="1" vertex="1">
          <mxGeometry x="160" y="40" width="160" height="52" as="geometry" />
        </mxCell>
        <mxCell id="sFRYXYYUaVxemdtP8rXa-2" value="+Accept(visitor:VisitorBase&amp;amp;)" style="text;strokeColor=none;fillColor=none;align=left;verticalAlign=top;spacingLeft=4;spacingRight=4;overflow=hidden;rotatable=0;points=[[0,0.5],[1,0.5]];portConstraint=eastwest;whiteSpace=wrap;html=1;" parent="sFRYXYYUaVxemdtP8rXa-1" vertex="1">
          <mxGeometry y="26" width="160" height="26" as="geometry" />
        </mxCell>
        <mxCell id="sFRYXYYUaVxemdtP8rXa-5" value="VisitorBase" style="swimlane;fontStyle=1;align=center;verticalAlign=top;childLayout=stackLayout;horizontal=1;startSize=26;horizontalStack=0;resizeParent=1;resizeParentMax=0;resizeLast=0;collapsible=1;marginBottom=0;whiteSpace=wrap;html=1;" parent="1" vertex="1">
          <mxGeometry x="400" y="40" width="160" height="52" as="geometry" />
        </mxCell>
        <mxCell id="sFRYXYYUaVxemdtP8rXa-9" value="Visitor&amp;lt;ConcreteElementB&amp;gt;" style="swimlane;fontStyle=1;align=center;verticalAlign=top;childLayout=stackLayout;horizontal=1;startSize=26;horizontalStack=0;resizeParent=1;resizeParentMax=0;resizeLast=0;collapsible=1;marginBottom=0;whiteSpace=wrap;html=1;" parent="1" vertex="1">
          <mxGeometry x="870" y="40" width="210" height="52" as="geometry" />
        </mxCell>
        <mxCell id="sFRYXYYUaVxemdtP8rXa-20" value="+Visit(obj:ConcreteElementB&amp;amp;)" style="text;strokeColor=none;fillColor=none;align=left;verticalAlign=top;spacingLeft=4;spacingRight=4;overflow=hidden;rotatable=0;points=[[0,0.5],[1,0.5]];portConstraint=eastwest;whiteSpace=wrap;html=1;" parent="sFRYXYYUaVxemdtP8rXa-9" vertex="1">
          <mxGeometry y="26" width="210" height="26" as="geometry" />
        </mxCell>
        <mxCell id="sFRYXYYUaVxemdtP8rXa-10" value="ConcreteElementA" style="swimlane;fontStyle=1;align=center;verticalAlign=top;childLayout=stackLayout;horizontal=1;startSize=26;horizontalStack=0;resizeParent=1;resizeParentMax=0;resizeLast=0;collapsible=1;marginBottom=0;whiteSpace=wrap;html=1;" parent="1" vertex="1">
          <mxGeometry x="110" y="210" width="160" height="52" as="geometry" />
        </mxCell>
        <mxCell id="sFRYXYYUaVxemdtP8rXa-11" value="+Accept(visitor:VisitorBase)" style="text;strokeColor=none;fillColor=none;align=left;verticalAlign=top;spacingLeft=4;spacingRight=4;overflow=hidden;rotatable=0;points=[[0,0.5],[1,0.5]];portConstraint=eastwest;whiteSpace=wrap;html=1;" parent="sFRYXYYUaVxemdtP8rXa-10" vertex="1">
          <mxGeometry y="26" width="160" height="26" as="geometry" />
        </mxCell>
        <mxCell id="sFRYXYYUaVxemdtP8rXa-12" value="" style="endArrow=block;endSize=16;endFill=0;html=1;rounded=0;" parent="1" source="sFRYXYYUaVxemdtP8rXa-10" target="sFRYXYYUaVxemdtP8rXa-1" edge="1">
          <mxGeometry width="160" relative="1" as="geometry">
            <mxPoint x="350" y="360" as="sourcePoint" />
            <mxPoint x="510" y="360" as="targetPoint" />
          </mxGeometry>
        </mxCell>
        <mxCell id="sFRYXYYUaVxemdtP8rXa-13" value="ConcreteElementB" style="swimlane;fontStyle=1;align=center;verticalAlign=top;childLayout=stackLayout;horizontal=1;startSize=26;horizontalStack=0;resizeParent=1;resizeParentMax=0;resizeLast=0;collapsible=1;marginBottom=0;whiteSpace=wrap;html=1;" parent="1" vertex="1">
          <mxGeometry x="300" y="210" width="160" height="52" as="geometry" />
        </mxCell>
        <mxCell id="sFRYXYYUaVxemdtP8rXa-14" value="+Accept(visitor:VisitorBase&amp;amp;)" style="text;strokeColor=none;fillColor=none;align=left;verticalAlign=top;spacingLeft=4;spacingRight=4;overflow=hidden;rotatable=0;points=[[0,0.5],[1,0.5]];portConstraint=eastwest;whiteSpace=wrap;html=1;" parent="sFRYXYYUaVxemdtP8rXa-13" vertex="1">
          <mxGeometry y="26" width="160" height="26" as="geometry" />
        </mxCell>
        <mxCell id="sFRYXYYUaVxemdtP8rXa-15" value="" style="endArrow=block;endSize=16;endFill=0;html=1;rounded=0;" parent="1" source="sFRYXYYUaVxemdtP8rXa-13" target="sFRYXYYUaVxemdtP8rXa-1" edge="1">
          <mxGeometry width="160" relative="1" as="geometry">
            <mxPoint x="350" y="360" as="sourcePoint" />
            <mxPoint x="510" y="360" as="targetPoint" />
          </mxGeometry>
        </mxCell>
        <mxCell id="sFRYXYYUaVxemdtP8rXa-16" value="Use" style="endArrow=open;endSize=12;dashed=1;html=1;rounded=0;" parent="1" source="sFRYXYYUaVxemdtP8rXa-1" target="sFRYXYYUaVxemdtP8rXa-5" edge="1">
          <mxGeometry width="160" relative="1" as="geometry">
            <mxPoint x="560" y="210" as="sourcePoint" />
            <mxPoint x="720" y="210" as="targetPoint" />
          </mxGeometry>
        </mxCell>
        <mxCell id="sFRYXYYUaVxemdtP8rXa-17" value="ConcreteVisitor" style="swimlane;fontStyle=1;align=center;verticalAlign=top;childLayout=stackLayout;horizontal=1;startSize=26;horizontalStack=0;resizeParent=1;resizeParentMax=0;resizeLast=0;collapsible=1;marginBottom=0;whiteSpace=wrap;html=1;" parent="1" vertex="1">
          <mxGeometry x="610" y="210" width="160" height="52" as="geometry" />
        </mxCell>
        <mxCell id="sFRYXYYUaVxemdtP8rXa-18" value="Visitor&amp;lt;ConcreteElementA&amp;gt;" style="swimlane;fontStyle=1;align=center;verticalAlign=top;childLayout=stackLayout;horizontal=1;startSize=26;horizontalStack=0;resizeParent=1;resizeParentMax=0;resizeLast=0;collapsible=1;marginBottom=0;whiteSpace=wrap;html=1;" parent="1" vertex="1">
          <mxGeometry x="590" y="40" width="210" height="52" as="geometry" />
        </mxCell>
        <mxCell id="sFRYXYYUaVxemdtP8rXa-21" value="+Visit(obj:ConcreteElementA&amp;amp;)" style="text;strokeColor=none;fillColor=none;align=left;verticalAlign=top;spacingLeft=4;spacingRight=4;overflow=hidden;rotatable=0;points=[[0,0.5],[1,0.5]];portConstraint=eastwest;whiteSpace=wrap;html=1;" parent="sFRYXYYUaVxemdtP8rXa-18" vertex="1">
          <mxGeometry y="26" width="210" height="26" as="geometry" />
        </mxCell>
        <mxCell id="sFRYXYYUaVxemdtP8rXa-19" value="" style="endArrow=block;endSize=16;endFill=0;html=1;rounded=0;" parent="1" source="sFRYXYYUaVxemdtP8rXa-17" target="sFRYXYYUaVxemdtP8rXa-9" edge="1">
          <mxGeometry width="160" relative="1" as="geometry">
            <mxPoint x="680" y="250" as="sourcePoint" />
            <mxPoint x="270" y="102" as="targetPoint" />
          </mxGeometry>
        </mxCell>
        <mxCell id="sFRYXYYUaVxemdtP8rXa-22" value="" style="endArrow=block;endSize=16;endFill=0;html=1;rounded=0;" parent="1" source="sFRYXYYUaVxemdtP8rXa-17" target="sFRYXYYUaVxemdtP8rXa-18" edge="1">
          <mxGeometry width="160" relative="1" as="geometry">
            <mxPoint x="680" y="250" as="sourcePoint" />
            <mxPoint x="270" y="102" as="targetPoint" />
          </mxGeometry>
        </mxCell>
        <mxCell id="sFRYXYYUaVxemdtP8rXa-23" value="" style="endArrow=block;endSize=16;endFill=0;html=1;rounded=0;" parent="1" source="sFRYXYYUaVxemdtP8rXa-17" target="sFRYXYYUaVxemdtP8rXa-5" edge="1">
          <mxGeometry width="160" relative="1" as="geometry">
            <mxPoint x="680" y="250" as="sourcePoint" />
            <mxPoint x="270" y="102" as="targetPoint" />
          </mxGeometry>
        </mxCell>
        <mxCell id="sFRYXYYUaVxemdtP8rXa-24" value="" style="endArrow=open;endSize=12;dashed=1;html=1;rounded=0;edgeStyle=orthogonalEdgeStyle;" parent="1" source="sFRYXYYUaVxemdtP8rXa-13" target="sFRYXYYUaVxemdtP8rXa-9" edge="1">
          <mxGeometry width="160" relative="1" as="geometry">
            <mxPoint x="310" y="450" as="sourcePoint" />
            <mxPoint x="470" y="450" as="targetPoint" />
            <Array as="points">
              <mxPoint x="380" y="180" />
              <mxPoint x="910" y="180" />
            </Array>
          </mxGeometry>
        </mxCell>
        <mxCell id="sFRYXYYUaVxemdtP8rXa-25" value="" style="endArrow=open;endSize=12;dashed=1;html=1;rounded=0;edgeStyle=orthogonalEdgeStyle;" parent="1" source="sFRYXYYUaVxemdtP8rXa-10" target="sFRYXYYUaVxemdtP8rXa-18" edge="1">
          <mxGeometry width="160" relative="1" as="geometry">
            <mxPoint x="470" y="194" as="sourcePoint" />
            <mxPoint x="619" y="154" as="targetPoint" />
            <Array as="points">
              <mxPoint x="190" y="150" />
              <mxPoint x="620" y="150" />
            </Array>
          </mxGeometry>
        </mxCell>
        <mxCell id="sFRYXYYUaVxemdtP8rXa-26" value="&lt;pre&gt;&lt;font face=&quot;Lucida Console&quot;&gt;if (auto* v = dynamic_cast&amp;lt;Visitor&amp;lt;ConcreteElementA&amp;gt;*&amp;gt;(&amp;amp;visitor)) {&lt;/font&gt;&lt;/pre&gt;&lt;pre&gt;&lt;font face=&quot;Lucida Console&quot;&gt;  v-&amp;gt;Visit(*this);&lt;/font&gt;&lt;/pre&gt;&lt;pre&gt;&lt;font face=&quot;Lucida Console&quot;&gt;}&lt;/font&gt;&lt;/pre&gt;" style="shape=note;whiteSpace=wrap;html=1;backgroundOutline=1;darkOpacity=0.05;align=left;size=22;fillColor=#ffff88;strokeColor=#36393d;" parent="1" vertex="1">
          <mxGeometry x="140" y="330" width="550" height="100" as="geometry" />
        </mxCell>
        <mxCell id="sFRYXYYUaVxemdtP8rXa-27" style="edgeStyle=orthogonalEdgeStyle;rounded=0;orthogonalLoop=1;jettySize=auto;html=1;" parent="1" source="sFRYXYYUaVxemdtP8rXa-11" target="sFRYXYYUaVxemdtP8rXa-26" edge="1">
          <mxGeometry relative="1" as="geometry">
            <Array as="points">
              <mxPoint x="210" y="350" />
              <mxPoint x="210" y="350" />
            </Array>
          </mxGeometry>
        </mxCell>
        <mxCell id="ei6kTYKVST2P0mMHp64S-2" value="Shape" style="swimlane;fontStyle=3;align=center;verticalAlign=top;childLayout=stackLayout;horizontal=1;startSize=26;horizontalStack=0;resizeParent=1;resizeParentMax=0;resizeLast=0;collapsible=1;marginBottom=0;whiteSpace=wrap;html=1;fillColor=#dae8fc;strokeColor=#6c8ebf;" vertex="1" parent="1">
          <mxGeometry x="400" y="1420" width="160" height="78" as="geometry" />
        </mxCell>
        <mxCell id="ei6kTYKVST2P0mMHp64S-3" value="+Accept(v:IShapeVisitor)" style="text;strokeColor=none;fillColor=none;align=left;verticalAlign=top;spacingLeft=4;spacingRight=4;overflow=hidden;rotatable=0;points=[[0,0.5],[1,0.5]];portConstraint=eastwest;whiteSpace=wrap;html=1;fontStyle=3" vertex="1" parent="ei6kTYKVST2P0mMHp64S-2">
          <mxGeometry y="26" width="160" height="26" as="geometry" />
        </mxCell>
        <mxCell id="ei6kTYKVST2P0mMHp64S-6" value="..." style="text;strokeColor=none;fillColor=none;align=left;verticalAlign=top;spacingLeft=4;spacingRight=4;overflow=hidden;rotatable=0;points=[[0,0.5],[1,0.5]];portConstraint=eastwest;whiteSpace=wrap;html=1;" vertex="1" parent="ei6kTYKVST2P0mMHp64S-2">
          <mxGeometry y="52" width="160" height="26" as="geometry" />
        </mxCell>
        <mxCell id="ei6kTYKVST2P0mMHp64S-7" value="Rectangle" style="swimlane;fontStyle=1;align=center;verticalAlign=top;childLayout=stackLayout;horizontal=1;startSize=26;horizontalStack=0;resizeParent=1;resizeParentMax=0;resizeLast=0;collapsible=1;marginBottom=0;whiteSpace=wrap;html=1;fillColor=#dae8fc;strokeColor=#6c8ebf;" vertex="1" parent="1">
          <mxGeometry x="160" y="1620" width="160" height="112" as="geometry" />
        </mxCell>
        <mxCell id="ei6kTYKVST2P0mMHp64S-8" value="+Accept(v:IShapeVisitor)" style="text;strokeColor=none;fillColor=none;align=left;verticalAlign=top;spacingLeft=4;spacingRight=4;overflow=hidden;rotatable=0;points=[[0,0.5],[1,0.5]];portConstraint=eastwest;whiteSpace=wrap;html=1;fontStyle=1" vertex="1" parent="ei6kTYKVST2P0mMHp64S-7">
          <mxGeometry y="26" width="160" height="26" as="geometry" />
        </mxCell>
        <mxCell id="ei6kTYKVST2P0mMHp64S-27" value="" style="line;strokeWidth=1;fillColor=none;align=left;verticalAlign=middle;spacingTop=-1;spacingLeft=3;spacingRight=3;rotatable=0;labelPosition=right;points=[];portConstraint=eastwest;strokeColor=inherit;" vertex="1" parent="ei6kTYKVST2P0mMHp64S-7">
          <mxGeometry y="52" width="160" height="8" as="geometry" />
        </mxCell>
        <mxCell id="ei6kTYKVST2P0mMHp64S-9" value="+GetWidth():double" style="text;strokeColor=none;fillColor=none;align=left;verticalAlign=top;spacingLeft=4;spacingRight=4;overflow=hidden;rotatable=0;points=[[0,0.5],[1,0.5]];portConstraint=eastwest;whiteSpace=wrap;html=1;" vertex="1" parent="ei6kTYKVST2P0mMHp64S-7">
          <mxGeometry y="60" width="160" height="26" as="geometry" />
        </mxCell>
        <mxCell id="ei6kTYKVST2P0mMHp64S-10" value="+GetHeight():double" style="text;strokeColor=none;fillColor=none;align=left;verticalAlign=top;spacingLeft=4;spacingRight=4;overflow=hidden;rotatable=0;points=[[0,0.5],[1,0.5]];portConstraint=eastwest;whiteSpace=wrap;html=1;" vertex="1" parent="ei6kTYKVST2P0mMHp64S-7">
          <mxGeometry y="86" width="160" height="26" as="geometry" />
        </mxCell>
        <mxCell id="ei6kTYKVST2P0mMHp64S-11" value="" style="endArrow=block;endSize=16;endFill=0;html=1;rounded=0;" edge="1" parent="1" source="ei6kTYKVST2P0mMHp64S-7" target="ei6kTYKVST2P0mMHp64S-2">
          <mxGeometry width="160" relative="1" as="geometry">
            <mxPoint x="280" y="1600" as="sourcePoint" />
            <mxPoint x="440" y="1600" as="targetPoint" />
          </mxGeometry>
        </mxCell>
        <mxCell id="ei6kTYKVST2P0mMHp64S-12" value="Circle" style="swimlane;fontStyle=1;align=center;verticalAlign=top;childLayout=stackLayout;horizontal=1;startSize=26;horizontalStack=0;resizeParent=1;resizeParentMax=0;resizeLast=0;collapsible=1;marginBottom=0;whiteSpace=wrap;html=1;fillColor=#dae8fc;strokeColor=#6c8ebf;" vertex="1" parent="1">
          <mxGeometry x="360" y="1620" width="160" height="86" as="geometry" />
        </mxCell>
        <mxCell id="ei6kTYKVST2P0mMHp64S-13" value="+Accept(v:IShapeVisitor)" style="text;strokeColor=none;fillColor=none;align=left;verticalAlign=top;spacingLeft=4;spacingRight=4;overflow=hidden;rotatable=0;points=[[0,0.5],[1,0.5]];portConstraint=eastwest;whiteSpace=wrap;html=1;fontStyle=1" vertex="1" parent="ei6kTYKVST2P0mMHp64S-12">
          <mxGeometry y="26" width="160" height="26" as="geometry" />
        </mxCell>
        <mxCell id="ei6kTYKVST2P0mMHp64S-28" value="" style="line;strokeWidth=1;fillColor=none;align=left;verticalAlign=middle;spacingTop=-1;spacingLeft=3;spacingRight=3;rotatable=0;labelPosition=right;points=[];portConstraint=eastwest;strokeColor=inherit;" vertex="1" parent="ei6kTYKVST2P0mMHp64S-12">
          <mxGeometry y="52" width="160" height="8" as="geometry" />
        </mxCell>
        <mxCell id="ei6kTYKVST2P0mMHp64S-14" value="+GetRadius():double" style="text;strokeColor=none;fillColor=none;align=left;verticalAlign=top;spacingLeft=4;spacingRight=4;overflow=hidden;rotatable=0;points=[[0,0.5],[1,0.5]];portConstraint=eastwest;whiteSpace=wrap;html=1;" vertex="1" parent="ei6kTYKVST2P0mMHp64S-12">
          <mxGeometry y="60" width="160" height="26" as="geometry" />
        </mxCell>
        <mxCell id="ei6kTYKVST2P0mMHp64S-16" value="" style="endArrow=block;endSize=16;endFill=0;html=1;rounded=0;" edge="1" parent="1" source="ei6kTYKVST2P0mMHp64S-12" target="ei6kTYKVST2P0mMHp64S-2">
          <mxGeometry width="160" relative="1" as="geometry">
            <mxPoint x="280" y="1600" as="sourcePoint" />
            <mxPoint x="440" y="1600" as="targetPoint" />
          </mxGeometry>
        </mxCell>
        <mxCell id="ei6kTYKVST2P0mMHp64S-17" value="" style="endArrow=block;endSize=16;endFill=0;html=1;rounded=0;" edge="1" source="ei6kTYKVST2P0mMHp64S-18" parent="1" target="ei6kTYKVST2P0mMHp64S-2">
          <mxGeometry width="160" relative="1" as="geometry">
            <mxPoint x="480" y="1600" as="sourcePoint" />
            <mxPoint x="670" y="1538" as="targetPoint" />
          </mxGeometry>
        </mxCell>
        <mxCell id="ei6kTYKVST2P0mMHp64S-18" value="ShapeGroup" style="swimlane;fontStyle=1;align=center;verticalAlign=top;childLayout=stackLayout;horizontal=1;startSize=26;horizontalStack=0;resizeParent=1;resizeParentMax=0;resizeLast=0;collapsible=1;marginBottom=0;whiteSpace=wrap;html=1;fillColor=#dae8fc;strokeColor=#6c8ebf;" vertex="1" parent="1">
          <mxGeometry x="560" y="1620" width="200" height="138" as="geometry" />
        </mxCell>
        <mxCell id="ei6kTYKVST2P0mMHp64S-19" value="+Accept(v:IShapeVisitor)" style="text;strokeColor=none;fillColor=none;align=left;verticalAlign=top;spacingLeft=4;spacingRight=4;overflow=hidden;rotatable=0;points=[[0,0.5],[1,0.5]];portConstraint=eastwest;whiteSpace=wrap;html=1;fontStyle=1" vertex="1" parent="ei6kTYKVST2P0mMHp64S-18">
          <mxGeometry y="26" width="200" height="26" as="geometry" />
        </mxCell>
        <mxCell id="ei6kTYKVST2P0mMHp64S-29" value="" style="line;strokeWidth=1;fillColor=none;align=left;verticalAlign=middle;spacingTop=-1;spacingLeft=3;spacingRight=3;rotatable=0;labelPosition=right;points=[];portConstraint=eastwest;strokeColor=inherit;" vertex="1" parent="ei6kTYKVST2P0mMHp64S-18">
          <mxGeometry y="52" width="200" height="8" as="geometry" />
        </mxCell>
        <mxCell id="ei6kTYKVST2P0mMHp64S-20" value="+AddShape(shape:Shape)" style="text;strokeColor=none;fillColor=none;align=left;verticalAlign=top;spacingLeft=4;spacingRight=4;overflow=hidden;rotatable=0;points=[[0,0.5],[1,0.5]];portConstraint=eastwest;whiteSpace=wrap;html=1;" vertex="1" parent="ei6kTYKVST2P0mMHp64S-18">
          <mxGeometry y="60" width="200" height="26" as="geometry" />
        </mxCell>
        <mxCell id="ei6kTYKVST2P0mMHp64S-25" value="+GetShapeCount():size_t" style="text;strokeColor=none;fillColor=none;align=left;verticalAlign=top;spacingLeft=4;spacingRight=4;overflow=hidden;rotatable=0;points=[[0,0.5],[1,0.5]];portConstraint=eastwest;whiteSpace=wrap;html=1;" vertex="1" parent="ei6kTYKVST2P0mMHp64S-18">
          <mxGeometry y="86" width="200" height="26" as="geometry" />
        </mxCell>
        <mxCell id="ei6kTYKVST2P0mMHp64S-26" value="+GetShape(index):Shape&amp;amp;" style="text;strokeColor=none;fillColor=none;align=left;verticalAlign=top;spacingLeft=4;spacingRight=4;overflow=hidden;rotatable=0;points=[[0,0.5],[1,0.5]];portConstraint=eastwest;whiteSpace=wrap;html=1;" vertex="1" parent="ei6kTYKVST2P0mMHp64S-18">
          <mxGeometry y="112" width="200" height="26" as="geometry" />
        </mxCell>
        <mxCell id="ei6kTYKVST2P0mMHp64S-21" value="" style="endArrow=diamondThin;endFill=1;endSize=24;html=1;rounded=0;edgeStyle=orthogonalEdgeStyle;" edge="1" parent="1" source="ei6kTYKVST2P0mMHp64S-2" target="ei6kTYKVST2P0mMHp64S-18">
          <mxGeometry width="160" relative="1" as="geometry">
            <mxPoint x="630" y="1550" as="sourcePoint" />
            <mxPoint x="790" y="1550" as="targetPoint" />
            <Array as="points">
              <mxPoint x="640" y="1480" />
            </Array>
          </mxGeometry>
        </mxCell>
        <mxCell id="ei6kTYKVST2P0mMHp64S-30" value="&lt;span style=&quot;font-weight: normal;&quot;&gt;&amp;lt;&amp;lt;interface&amp;gt;&amp;gt;&lt;/span&gt;&lt;div&gt;IShapeVisitor&lt;/div&gt;" style="swimlane;fontStyle=3;align=center;verticalAlign=top;childLayout=stackLayout;horizontal=1;startSize=40;horizontalStack=0;resizeParent=1;resizeParentMax=0;resizeLast=0;collapsible=1;marginBottom=0;whiteSpace=wrap;html=1;fillColor=#d5e8d4;strokeColor=#82b366;" vertex="1" parent="1">
          <mxGeometry x="880" y="1400" width="160" height="118" as="geometry" />
        </mxCell>
        <mxCell id="ei6kTYKVST2P0mMHp64S-31" value="+Visit(rectangle:Rectangle)" style="text;strokeColor=none;fillColor=none;align=left;verticalAlign=top;spacingLeft=4;spacingRight=4;overflow=hidden;rotatable=0;points=[[0,0.5],[1,0.5]];portConstraint=eastwest;whiteSpace=wrap;html=1;fontStyle=2" vertex="1" parent="ei6kTYKVST2P0mMHp64S-30">
          <mxGeometry y="40" width="160" height="26" as="geometry" />
        </mxCell>
        <mxCell id="ei6kTYKVST2P0mMHp64S-34" value="+Visit(circle:Circle)" style="text;strokeColor=none;fillColor=none;align=left;verticalAlign=top;spacingLeft=4;spacingRight=4;overflow=hidden;rotatable=0;points=[[0,0.5],[1,0.5]];portConstraint=eastwest;whiteSpace=wrap;html=1;fontStyle=2" vertex="1" parent="ei6kTYKVST2P0mMHp64S-30">
          <mxGeometry y="66" width="160" height="26" as="geometry" />
        </mxCell>
        <mxCell id="ei6kTYKVST2P0mMHp64S-35" value="+Visit(group:ShapeGroup)" style="text;strokeColor=none;fillColor=none;align=left;verticalAlign=top;spacingLeft=4;spacingRight=4;overflow=hidden;rotatable=0;points=[[0,0.5],[1,0.5]];portConstraint=eastwest;whiteSpace=wrap;html=1;fontStyle=2" vertex="1" parent="ei6kTYKVST2P0mMHp64S-30">
          <mxGeometry y="92" width="160" height="26" as="geometry" />
        </mxCell>
        <mxCell id="ei6kTYKVST2P0mMHp64S-33" value="" style="endArrow=open;endSize=12;dashed=1;html=1;rounded=0;" edge="1" parent="1" source="ei6kTYKVST2P0mMHp64S-2" target="ei6kTYKVST2P0mMHp64S-30">
          <mxGeometry width="160" relative="1" as="geometry">
            <mxPoint x="830" y="1620" as="sourcePoint" />
            <mxPoint x="990" y="1620" as="targetPoint" />
          </mxGeometry>
        </mxCell>
        <mxCell id="ei6kTYKVST2P0mMHp64S-36" value="StreamOutputVisitor" style="swimlane;fontStyle=1;align=center;verticalAlign=top;childLayout=stackLayout;horizontal=1;startSize=26;horizontalStack=0;resizeParent=1;resizeParentMax=0;resizeLast=0;collapsible=1;marginBottom=0;whiteSpace=wrap;html=1;fillColor=#d5e8d4;strokeColor=#82b366;" vertex="1" parent="1">
          <mxGeometry x="880" y="1620" width="160" height="164" as="geometry" />
        </mxCell>
        <mxCell id="ei6kTYKVST2P0mMHp64S-44" value="+Visit(rectangle:Rectangle)" style="text;strokeColor=none;fillColor=none;align=left;verticalAlign=top;spacingLeft=4;spacingRight=4;overflow=hidden;rotatable=0;points=[[0,0.5],[1,0.5]];portConstraint=eastwest;whiteSpace=wrap;html=1;fontStyle=0" vertex="1" parent="ei6kTYKVST2P0mMHp64S-36">
          <mxGeometry y="26" width="160" height="26" as="geometry" />
        </mxCell>
        <mxCell id="ei6kTYKVST2P0mMHp64S-43" value="+Visit(circle:Circle)" style="text;strokeColor=none;fillColor=none;align=left;verticalAlign=top;spacingLeft=4;spacingRight=4;overflow=hidden;rotatable=0;points=[[0,0.5],[1,0.5]];portConstraint=eastwest;whiteSpace=wrap;html=1;fontStyle=0" vertex="1" parent="ei6kTYKVST2P0mMHp64S-36">
          <mxGeometry y="52" width="160" height="26" as="geometry" />
        </mxCell>
        <mxCell id="ei6kTYKVST2P0mMHp64S-42" value="+Visit(group:ShapeGroup)" style="text;strokeColor=none;fillColor=none;align=left;verticalAlign=top;spacingLeft=4;spacingRight=4;overflow=hidden;rotatable=0;points=[[0,0.5],[1,0.5]];portConstraint=eastwest;whiteSpace=wrap;html=1;fontStyle=0" vertex="1" parent="ei6kTYKVST2P0mMHp64S-36">
          <mxGeometry y="78" width="160" height="26" as="geometry" />
        </mxCell>
        <mxCell id="ei6kTYKVST2P0mMHp64S-38" value="" style="line;strokeWidth=1;fillColor=none;align=left;verticalAlign=middle;spacingTop=-1;spacingLeft=3;spacingRight=3;rotatable=0;labelPosition=right;points=[];portConstraint=eastwest;strokeColor=inherit;" vertex="1" parent="ei6kTYKVST2P0mMHp64S-36">
          <mxGeometry y="104" width="160" height="8" as="geometry" />
        </mxCell>
        <mxCell id="ei6kTYKVST2P0mMHp64S-39" value="-m_out:std::ostream" style="text;strokeColor=none;fillColor=none;align=left;verticalAlign=top;spacingLeft=4;spacingRight=4;overflow=hidden;rotatable=0;points=[[0,0.5],[1,0.5]];portConstraint=eastwest;whiteSpace=wrap;html=1;" vertex="1" parent="ei6kTYKVST2P0mMHp64S-36">
          <mxGeometry y="112" width="160" height="26" as="geometry" />
        </mxCell>
        <mxCell id="ei6kTYKVST2P0mMHp64S-41" value="-m_indent:size_t" style="text;strokeColor=none;fillColor=none;align=left;verticalAlign=top;spacingLeft=4;spacingRight=4;overflow=hidden;rotatable=0;points=[[0,0.5],[1,0.5]];portConstraint=eastwest;whiteSpace=wrap;html=1;" vertex="1" parent="ei6kTYKVST2P0mMHp64S-36">
          <mxGeometry y="138" width="160" height="26" as="geometry" />
        </mxCell>
        <mxCell id="ei6kTYKVST2P0mMHp64S-40" value="" style="endArrow=block;dashed=1;endFill=0;endSize=12;html=1;rounded=0;" edge="1" parent="1" source="ei6kTYKVST2P0mMHp64S-36" target="ei6kTYKVST2P0mMHp64S-30">
          <mxGeometry width="160" relative="1" as="geometry">
            <mxPoint x="910" y="1590" as="sourcePoint" />
            <mxPoint x="1070" y="1590" as="targetPoint" />
          </mxGeometry>
        </mxCell>
        <mxCell id="ei6kTYKVST2P0mMHp64S-45" value="" style="endArrow=open;endSize=12;dashed=1;html=1;rounded=0;edgeStyle=orthogonalEdgeStyle;" edge="1" parent="1" source="ei6kTYKVST2P0mMHp64S-30" target="ei6kTYKVST2P0mMHp64S-18">
          <mxGeometry width="160" relative="1" as="geometry">
            <mxPoint x="560" y="1459" as="sourcePoint" />
            <mxPoint x="820" y="1580" as="targetPoint" />
            <Array as="points">
              <mxPoint x="1110" y="1500" />
              <mxPoint x="1110" y="1820" />
              <mxPoint x="660" y="1820" />
            </Array>
          </mxGeometry>
        </mxCell>
        <mxCell id="ei6kTYKVST2P0mMHp64S-48" value="" style="endArrow=open;endSize=12;dashed=1;html=1;rounded=0;edgeStyle=orthogonalEdgeStyle;" edge="1" parent="1" source="ei6kTYKVST2P0mMHp64S-30" target="ei6kTYKVST2P0mMHp64S-12">
          <mxGeometry width="160" relative="1" as="geometry">
            <mxPoint x="560" y="1459" as="sourcePoint" />
            <mxPoint x="820" y="1580" as="targetPoint" />
            <Array as="points">
              <mxPoint x="1130" y="1480" />
              <mxPoint x="1130" y="1840" />
              <mxPoint x="440" y="1840" />
            </Array>
          </mxGeometry>
        </mxCell>
        <mxCell id="ei6kTYKVST2P0mMHp64S-49" value="" style="endArrow=open;endSize=12;dashed=1;html=1;rounded=0;edgeStyle=orthogonalEdgeStyle;" edge="1" parent="1" source="ei6kTYKVST2P0mMHp64S-30" target="ei6kTYKVST2P0mMHp64S-7">
          <mxGeometry width="160" relative="1" as="geometry">
            <mxPoint x="560" y="1459" as="sourcePoint" />
            <mxPoint x="820" y="1580" as="targetPoint" />
            <Array as="points">
              <mxPoint x="1150" y="1460" />
              <mxPoint x="1150" y="1860" />
              <mxPoint x="240" y="1860" />
            </Array>
          </mxGeometry>
        </mxCell>
        <mxCell id="ei6kTYKVST2P0mMHp64S-50" value="Shape" style="swimlane;fontStyle=3;align=center;verticalAlign=top;childLayout=stackLayout;horizontal=1;startSize=26;horizontalStack=0;resizeParent=1;resizeParentMax=0;resizeLast=0;collapsible=1;marginBottom=0;whiteSpace=wrap;html=1;fillColor=#dae8fc;strokeColor=#6c8ebf;" vertex="1" parent="1">
          <mxGeometry x="360" y="1940" width="160" height="52" as="geometry" />
        </mxCell>
        <mxCell id="ei6kTYKVST2P0mMHp64S-52" value="..." style="text;strokeColor=none;fillColor=none;align=left;verticalAlign=top;spacingLeft=4;spacingRight=4;overflow=hidden;rotatable=0;points=[[0,0.5],[1,0.5]];portConstraint=eastwest;whiteSpace=wrap;html=1;" vertex="1" parent="ei6kTYKVST2P0mMHp64S-50">
          <mxGeometry y="26" width="160" height="26" as="geometry" />
        </mxCell>
        <mxCell id="ei6kTYKVST2P0mMHp64S-53" value="Rectangle" style="swimlane;fontStyle=1;align=center;verticalAlign=top;childLayout=stackLayout;horizontal=1;startSize=26;horizontalStack=0;resizeParent=1;resizeParentMax=0;resizeLast=0;collapsible=1;marginBottom=0;whiteSpace=wrap;html=1;fillColor=#dae8fc;strokeColor=#6c8ebf;" vertex="1" parent="1">
          <mxGeometry x="160" y="2140" width="160" height="78" as="geometry" />
        </mxCell>
        <mxCell id="ei6kTYKVST2P0mMHp64S-56" value="+GetWidth():double" style="text;strokeColor=none;fillColor=none;align=left;verticalAlign=top;spacingLeft=4;spacingRight=4;overflow=hidden;rotatable=0;points=[[0,0.5],[1,0.5]];portConstraint=eastwest;whiteSpace=wrap;html=1;" vertex="1" parent="ei6kTYKVST2P0mMHp64S-53">
          <mxGeometry y="26" width="160" height="26" as="geometry" />
        </mxCell>
        <mxCell id="ei6kTYKVST2P0mMHp64S-57" value="+GetHeight():double" style="text;strokeColor=none;fillColor=none;align=left;verticalAlign=top;spacingLeft=4;spacingRight=4;overflow=hidden;rotatable=0;points=[[0,0.5],[1,0.5]];portConstraint=eastwest;whiteSpace=wrap;html=1;" vertex="1" parent="ei6kTYKVST2P0mMHp64S-53">
          <mxGeometry y="52" width="160" height="26" as="geometry" />
        </mxCell>
        <mxCell id="ei6kTYKVST2P0mMHp64S-58" value="" style="endArrow=block;endSize=16;endFill=0;html=1;rounded=0;" edge="1" source="ei6kTYKVST2P0mMHp64S-53" target="ei6kTYKVST2P0mMHp64S-50" parent="1">
          <mxGeometry width="160" relative="1" as="geometry">
            <mxPoint x="280" y="2120" as="sourcePoint" />
            <mxPoint x="440" y="2120" as="targetPoint" />
          </mxGeometry>
        </mxCell>
        <mxCell id="ei6kTYKVST2P0mMHp64S-59" value="Circle" style="swimlane;fontStyle=1;align=center;verticalAlign=top;childLayout=stackLayout;horizontal=1;startSize=26;horizontalStack=0;resizeParent=1;resizeParentMax=0;resizeLast=0;collapsible=1;marginBottom=0;whiteSpace=wrap;html=1;fillColor=#dae8fc;strokeColor=#6c8ebf;" vertex="1" parent="1">
          <mxGeometry x="360" y="2140" width="160" height="52" as="geometry" />
        </mxCell>
        <mxCell id="ei6kTYKVST2P0mMHp64S-62" value="+GetRadius():double" style="text;strokeColor=none;fillColor=none;align=left;verticalAlign=top;spacingLeft=4;spacingRight=4;overflow=hidden;rotatable=0;points=[[0,0.5],[1,0.5]];portConstraint=eastwest;whiteSpace=wrap;html=1;" vertex="1" parent="ei6kTYKVST2P0mMHp64S-59">
          <mxGeometry y="26" width="160" height="26" as="geometry" />
        </mxCell>
        <mxCell id="ei6kTYKVST2P0mMHp64S-63" value="" style="endArrow=block;endSize=16;endFill=0;html=1;rounded=0;" edge="1" source="ei6kTYKVST2P0mMHp64S-59" target="ei6kTYKVST2P0mMHp64S-50" parent="1">
          <mxGeometry width="160" relative="1" as="geometry">
            <mxPoint x="280" y="2120" as="sourcePoint" />
            <mxPoint x="440" y="2120" as="targetPoint" />
          </mxGeometry>
        </mxCell>
        <mxCell id="ei6kTYKVST2P0mMHp64S-64" value="" style="endArrow=block;endSize=16;endFill=0;html=1;rounded=0;" edge="1" source="ei6kTYKVST2P0mMHp64S-65" target="ei6kTYKVST2P0mMHp64S-50" parent="1">
          <mxGeometry width="160" relative="1" as="geometry">
            <mxPoint x="480" y="2120" as="sourcePoint" />
            <mxPoint x="670" y="2058" as="targetPoint" />
          </mxGeometry>
        </mxCell>
        <mxCell id="ei6kTYKVST2P0mMHp64S-65" value="ShapeGroup" style="swimlane;fontStyle=1;align=center;verticalAlign=top;childLayout=stackLayout;horizontal=1;startSize=26;horizontalStack=0;resizeParent=1;resizeParentMax=0;resizeLast=0;collapsible=1;marginBottom=0;whiteSpace=wrap;html=1;fillColor=#dae8fc;strokeColor=#6c8ebf;" vertex="1" parent="1">
          <mxGeometry x="560" y="2140" width="200" height="104" as="geometry" />
        </mxCell>
        <mxCell id="ei6kTYKVST2P0mMHp64S-68" value="+AddShape(shape:Shape)" style="text;strokeColor=none;fillColor=none;align=left;verticalAlign=top;spacingLeft=4;spacingRight=4;overflow=hidden;rotatable=0;points=[[0,0.5],[1,0.5]];portConstraint=eastwest;whiteSpace=wrap;html=1;" vertex="1" parent="ei6kTYKVST2P0mMHp64S-65">
          <mxGeometry y="26" width="200" height="26" as="geometry" />
        </mxCell>
        <mxCell id="ei6kTYKVST2P0mMHp64S-69" value="+GetShapeCount():size_t" style="text;strokeColor=none;fillColor=none;align=left;verticalAlign=top;spacingLeft=4;spacingRight=4;overflow=hidden;rotatable=0;points=[[0,0.5],[1,0.5]];portConstraint=eastwest;whiteSpace=wrap;html=1;" vertex="1" parent="ei6kTYKVST2P0mMHp64S-65">
          <mxGeometry y="52" width="200" height="26" as="geometry" />
        </mxCell>
        <mxCell id="ei6kTYKVST2P0mMHp64S-70" value="+GetShape(index):Shape&amp;amp;" style="text;strokeColor=none;fillColor=none;align=left;verticalAlign=top;spacingLeft=4;spacingRight=4;overflow=hidden;rotatable=0;points=[[0,0.5],[1,0.5]];portConstraint=eastwest;whiteSpace=wrap;html=1;" vertex="1" parent="ei6kTYKVST2P0mMHp64S-65">
          <mxGeometry y="78" width="200" height="26" as="geometry" />
        </mxCell>
        <mxCell id="ei6kTYKVST2P0mMHp64S-71" value="" style="endArrow=diamondThin;endFill=1;endSize=24;html=1;rounded=0;edgeStyle=orthogonalEdgeStyle;" edge="1" source="ei6kTYKVST2P0mMHp64S-50" target="ei6kTYKVST2P0mMHp64S-65" parent="1">
          <mxGeometry width="160" relative="1" as="geometry">
            <mxPoint x="630" y="2070" as="sourcePoint" />
            <mxPoint x="790" y="2070" as="targetPoint" />
            <Array as="points">
              <mxPoint x="640" y="1966" />
            </Array>
          </mxGeometry>
        </mxCell>
        <mxCell id="ei6kTYKVST2P0mMHp64S-72" value="Shape" style="swimlane;fontStyle=3;align=center;verticalAlign=top;childLayout=stackLayout;horizontal=1;startSize=26;horizontalStack=0;resizeParent=1;resizeParentMax=0;resizeLast=0;collapsible=1;marginBottom=0;whiteSpace=wrap;html=1;fillColor=#dae8fc;strokeColor=#6c8ebf;" vertex="1" parent="1">
          <mxGeometry x="360" y="2337" width="160" height="78" as="geometry" />
        </mxCell>
        <mxCell id="ei6kTYKVST2P0mMHp64S-87" value="+ToString():string" style="text;strokeColor=none;fillColor=none;align=left;verticalAlign=top;spacingLeft=4;spacingRight=4;overflow=hidden;rotatable=0;points=[[0,0.5],[1,0.5]];portConstraint=eastwest;whiteSpace=wrap;html=1;fontStyle=3" vertex="1" parent="ei6kTYKVST2P0mMHp64S-72">
          <mxGeometry y="26" width="160" height="26" as="geometry" />
        </mxCell>
        <mxCell id="ei6kTYKVST2P0mMHp64S-73" value="..." style="text;strokeColor=none;fillColor=none;align=left;verticalAlign=top;spacingLeft=4;spacingRight=4;overflow=hidden;rotatable=0;points=[[0,0.5],[1,0.5]];portConstraint=eastwest;whiteSpace=wrap;html=1;" vertex="1" parent="ei6kTYKVST2P0mMHp64S-72">
          <mxGeometry y="52" width="160" height="26" as="geometry" />
        </mxCell>
        <mxCell id="ei6kTYKVST2P0mMHp64S-74" value="Rectangle" style="swimlane;fontStyle=1;align=center;verticalAlign=top;childLayout=stackLayout;horizontal=1;startSize=26;horizontalStack=0;resizeParent=1;resizeParentMax=0;resizeLast=0;collapsible=1;marginBottom=0;whiteSpace=wrap;html=1;fillColor=#dae8fc;strokeColor=#6c8ebf;" vertex="1" parent="1">
          <mxGeometry x="160" y="2520" width="160" height="112" as="geometry" />
        </mxCell>
        <mxCell id="ei6kTYKVST2P0mMHp64S-89" value="+ToString():string" style="text;strokeColor=none;fillColor=none;align=left;verticalAlign=top;spacingLeft=4;spacingRight=4;overflow=hidden;rotatable=0;points=[[0,0.5],[1,0.5]];portConstraint=eastwest;whiteSpace=wrap;html=1;fontStyle=1" vertex="1" parent="ei6kTYKVST2P0mMHp64S-74">
          <mxGeometry y="26" width="160" height="26" as="geometry" />
        </mxCell>
        <mxCell id="ei6kTYKVST2P0mMHp64S-88" value="" style="line;strokeWidth=1;fillColor=none;align=left;verticalAlign=middle;spacingTop=-1;spacingLeft=3;spacingRight=3;rotatable=0;labelPosition=right;points=[];portConstraint=eastwest;strokeColor=inherit;" vertex="1" parent="ei6kTYKVST2P0mMHp64S-74">
          <mxGeometry y="52" width="160" height="8" as="geometry" />
        </mxCell>
        <mxCell id="ei6kTYKVST2P0mMHp64S-75" value="+GetWidth():double" style="text;strokeColor=none;fillColor=none;align=left;verticalAlign=top;spacingLeft=4;spacingRight=4;overflow=hidden;rotatable=0;points=[[0,0.5],[1,0.5]];portConstraint=eastwest;whiteSpace=wrap;html=1;" vertex="1" parent="ei6kTYKVST2P0mMHp64S-74">
          <mxGeometry y="60" width="160" height="26" as="geometry" />
        </mxCell>
        <mxCell id="ei6kTYKVST2P0mMHp64S-76" value="+GetHeight():double" style="text;strokeColor=none;fillColor=none;align=left;verticalAlign=top;spacingLeft=4;spacingRight=4;overflow=hidden;rotatable=0;points=[[0,0.5],[1,0.5]];portConstraint=eastwest;whiteSpace=wrap;html=1;" vertex="1" parent="ei6kTYKVST2P0mMHp64S-74">
          <mxGeometry y="86" width="160" height="26" as="geometry" />
        </mxCell>
        <mxCell id="ei6kTYKVST2P0mMHp64S-77" value="" style="endArrow=block;endSize=16;endFill=0;html=1;rounded=0;" edge="1" source="ei6kTYKVST2P0mMHp64S-74" target="ei6kTYKVST2P0mMHp64S-72" parent="1">
          <mxGeometry width="160" relative="1" as="geometry">
            <mxPoint x="280" y="2500" as="sourcePoint" />
            <mxPoint x="440" y="2500" as="targetPoint" />
          </mxGeometry>
        </mxCell>
        <mxCell id="ei6kTYKVST2P0mMHp64S-78" value="Circle" style="swimlane;fontStyle=1;align=center;verticalAlign=top;childLayout=stackLayout;horizontal=1;startSize=26;horizontalStack=0;resizeParent=1;resizeParentMax=0;resizeLast=0;collapsible=1;marginBottom=0;whiteSpace=wrap;html=1;fillColor=#dae8fc;strokeColor=#6c8ebf;" vertex="1" parent="1">
          <mxGeometry x="360" y="2520" width="160" height="86" as="geometry" />
        </mxCell>
        <mxCell id="ei6kTYKVST2P0mMHp64S-90" value="+ToString():string" style="text;strokeColor=none;fillColor=none;align=left;verticalAlign=top;spacingLeft=4;spacingRight=4;overflow=hidden;rotatable=0;points=[[0,0.5],[1,0.5]];portConstraint=eastwest;whiteSpace=wrap;html=1;fontStyle=1" vertex="1" parent="ei6kTYKVST2P0mMHp64S-78">
          <mxGeometry y="26" width="160" height="26" as="geometry" />
        </mxCell>
        <mxCell id="ei6kTYKVST2P0mMHp64S-91" value="" style="line;strokeWidth=1;fillColor=none;align=left;verticalAlign=middle;spacingTop=-1;spacingLeft=3;spacingRight=3;rotatable=0;labelPosition=right;points=[];portConstraint=eastwest;strokeColor=inherit;" vertex="1" parent="ei6kTYKVST2P0mMHp64S-78">
          <mxGeometry y="52" width="160" height="8" as="geometry" />
        </mxCell>
        <mxCell id="ei6kTYKVST2P0mMHp64S-79" value="+GetRadius():double" style="text;strokeColor=none;fillColor=none;align=left;verticalAlign=top;spacingLeft=4;spacingRight=4;overflow=hidden;rotatable=0;points=[[0,0.5],[1,0.5]];portConstraint=eastwest;whiteSpace=wrap;html=1;" vertex="1" parent="ei6kTYKVST2P0mMHp64S-78">
          <mxGeometry y="60" width="160" height="26" as="geometry" />
        </mxCell>
        <mxCell id="ei6kTYKVST2P0mMHp64S-80" value="" style="endArrow=block;endSize=16;endFill=0;html=1;rounded=0;" edge="1" source="ei6kTYKVST2P0mMHp64S-78" target="ei6kTYKVST2P0mMHp64S-72" parent="1">
          <mxGeometry width="160" relative="1" as="geometry">
            <mxPoint x="280" y="2500" as="sourcePoint" />
            <mxPoint x="440" y="2500" as="targetPoint" />
          </mxGeometry>
        </mxCell>
        <mxCell id="ei6kTYKVST2P0mMHp64S-81" value="" style="endArrow=block;endSize=16;endFill=0;html=1;rounded=0;" edge="1" source="ei6kTYKVST2P0mMHp64S-82" target="ei6kTYKVST2P0mMHp64S-72" parent="1">
          <mxGeometry width="160" relative="1" as="geometry">
            <mxPoint x="480" y="2500" as="sourcePoint" />
            <mxPoint x="670" y="2438" as="targetPoint" />
          </mxGeometry>
        </mxCell>
        <mxCell id="ei6kTYKVST2P0mMHp64S-82" value="ShapeGroup" style="swimlane;fontStyle=1;align=center;verticalAlign=top;childLayout=stackLayout;horizontal=1;startSize=26;horizontalStack=0;resizeParent=1;resizeParentMax=0;resizeLast=0;collapsible=1;marginBottom=0;whiteSpace=wrap;html=1;fillColor=#dae8fc;strokeColor=#6c8ebf;" vertex="1" parent="1">
          <mxGeometry x="560" y="2520" width="200" height="138" as="geometry" />
        </mxCell>
        <mxCell id="ei6kTYKVST2P0mMHp64S-93" value="+ToString():string" style="text;strokeColor=none;fillColor=none;align=left;verticalAlign=top;spacingLeft=4;spacingRight=4;overflow=hidden;rotatable=0;points=[[0,0.5],[1,0.5]];portConstraint=eastwest;whiteSpace=wrap;html=1;fontStyle=1" vertex="1" parent="ei6kTYKVST2P0mMHp64S-82">
          <mxGeometry y="26" width="200" height="26" as="geometry" />
        </mxCell>
        <mxCell id="ei6kTYKVST2P0mMHp64S-92" value="" style="line;strokeWidth=1;fillColor=none;align=left;verticalAlign=middle;spacingTop=-1;spacingLeft=3;spacingRight=3;rotatable=0;labelPosition=right;points=[];portConstraint=eastwest;strokeColor=inherit;" vertex="1" parent="ei6kTYKVST2P0mMHp64S-82">
          <mxGeometry y="52" width="200" height="8" as="geometry" />
        </mxCell>
        <mxCell id="ei6kTYKVST2P0mMHp64S-83" value="+AddShape(shape:Shape)" style="text;strokeColor=none;fillColor=none;align=left;verticalAlign=top;spacingLeft=4;spacingRight=4;overflow=hidden;rotatable=0;points=[[0,0.5],[1,0.5]];portConstraint=eastwest;whiteSpace=wrap;html=1;" vertex="1" parent="ei6kTYKVST2P0mMHp64S-82">
          <mxGeometry y="60" width="200" height="26" as="geometry" />
        </mxCell>
        <mxCell id="ei6kTYKVST2P0mMHp64S-84" value="+GetShapeCount():size_t" style="text;strokeColor=none;fillColor=none;align=left;verticalAlign=top;spacingLeft=4;spacingRight=4;overflow=hidden;rotatable=0;points=[[0,0.5],[1,0.5]];portConstraint=eastwest;whiteSpace=wrap;html=1;" vertex="1" parent="ei6kTYKVST2P0mMHp64S-82">
          <mxGeometry y="86" width="200" height="26" as="geometry" />
        </mxCell>
        <mxCell id="ei6kTYKVST2P0mMHp64S-85" value="+GetShape(index):Shape&amp;amp;" style="text;strokeColor=none;fillColor=none;align=left;verticalAlign=top;spacingLeft=4;spacingRight=4;overflow=hidden;rotatable=0;points=[[0,0.5],[1,0.5]];portConstraint=eastwest;whiteSpace=wrap;html=1;" vertex="1" parent="ei6kTYKVST2P0mMHp64S-82">
          <mxGeometry y="112" width="200" height="26" as="geometry" />
        </mxCell>
        <mxCell id="ei6kTYKVST2P0mMHp64S-86" value="" style="endArrow=diamondThin;endFill=1;endSize=24;html=1;rounded=0;edgeStyle=orthogonalEdgeStyle;" edge="1" source="ei6kTYKVST2P0mMHp64S-72" target="ei6kTYKVST2P0mMHp64S-82" parent="1">
          <mxGeometry width="160" relative="1" as="geometry">
            <mxPoint x="630" y="2450" as="sourcePoint" />
            <mxPoint x="790" y="2450" as="targetPoint" />
            <Array as="points">
              <mxPoint x="640" y="2376" />
            </Array>
          </mxGeometry>
        </mxCell>
        <mxCell id="ei6kTYKVST2P0mMHp64S-94" value="Shapes" style="swimlane;fontStyle=1;align=center;verticalAlign=top;childLayout=stackLayout;horizontal=1;startSize=26;horizontalStack=0;resizeParent=1;resizeParentMax=0;resizeLast=0;collapsible=1;marginBottom=0;whiteSpace=wrap;html=1;fillColor=#dae8fc;strokeColor=#6c8ebf;" vertex="1" parent="1">
          <mxGeometry x="40" y="2320" width="230" height="112" as="geometry" />
        </mxCell>
        <mxCell id="ei6kTYKVST2P0mMHp64S-99" value="+GetShapeCount():size_t" style="text;strokeColor=none;fillColor=none;align=left;verticalAlign=top;spacingLeft=4;spacingRight=4;overflow=hidden;rotatable=0;points=[[0,0.5],[1,0.5]];portConstraint=eastwest;whiteSpace=wrap;html=1;" vertex="1" parent="ei6kTYKVST2P0mMHp64S-94">
          <mxGeometry y="26" width="230" height="26" as="geometry" />
        </mxCell>
        <mxCell id="ei6kTYKVST2P0mMHp64S-98" value="+GetShape(index):Shape&amp;amp;" style="text;strokeColor=none;fillColor=none;align=left;verticalAlign=top;spacingLeft=4;spacingRight=4;overflow=hidden;rotatable=0;points=[[0,0.5],[1,0.5]];portConstraint=eastwest;whiteSpace=wrap;html=1;" vertex="1" parent="ei6kTYKVST2P0mMHp64S-94">
          <mxGeometry y="52" width="230" height="26" as="geometry" />
        </mxCell>
        <mxCell id="ei6kTYKVST2P0mMHp64S-96" value="" style="line;strokeWidth=1;fillColor=none;align=left;verticalAlign=middle;spacingTop=-1;spacingLeft=3;spacingRight=3;rotatable=0;labelPosition=right;points=[];portConstraint=eastwest;strokeColor=inherit;" vertex="1" parent="ei6kTYKVST2P0mMHp64S-94">
          <mxGeometry y="78" width="230" height="8" as="geometry" />
        </mxCell>
        <mxCell id="ei6kTYKVST2P0mMHp64S-97" value="-m_items:vector&amp;lt;unique_ptr&amp;lt;Shape&amp;gt;&amp;gt;" style="text;strokeColor=none;fillColor=none;align=left;verticalAlign=top;spacingLeft=4;spacingRight=4;overflow=hidden;rotatable=0;points=[[0,0.5],[1,0.5]];portConstraint=eastwest;whiteSpace=wrap;html=1;" vertex="1" parent="ei6kTYKVST2P0mMHp64S-94">
          <mxGeometry y="86" width="230" height="26" as="geometry" />
        </mxCell>
        <mxCell id="ei6kTYKVST2P0mMHp64S-100" value="" style="endArrow=diamondThin;endFill=1;endSize=24;html=1;rounded=0;" edge="1" parent="1" source="ei6kTYKVST2P0mMHp64S-72" target="ei6kTYKVST2P0mMHp64S-94">
          <mxGeometry width="160" relative="1" as="geometry">
            <mxPoint x="30" y="2470" as="sourcePoint" />
            <mxPoint x="190" y="2470" as="targetPoint" />
          </mxGeometry>
        </mxCell>
        <mxCell id="ei6kTYKVST2P0mMHp64S-101" value="Shapes" style="swimlane;fontStyle=1;align=center;verticalAlign=top;childLayout=stackLayout;horizontal=1;startSize=26;horizontalStack=0;resizeParent=1;resizeParentMax=0;resizeLast=0;collapsible=1;marginBottom=0;whiteSpace=wrap;html=1;fillColor=#dae8fc;strokeColor=#6c8ebf;" vertex="1" parent="1">
          <mxGeometry x="10" y="1910" width="230" height="112" as="geometry" />
        </mxCell>
        <mxCell id="ei6kTYKVST2P0mMHp64S-102" value="+GetShapeCount():size_t" style="text;strokeColor=none;fillColor=none;align=left;verticalAlign=top;spacingLeft=4;spacingRight=4;overflow=hidden;rotatable=0;points=[[0,0.5],[1,0.5]];portConstraint=eastwest;whiteSpace=wrap;html=1;" vertex="1" parent="ei6kTYKVST2P0mMHp64S-101">
          <mxGeometry y="26" width="230" height="26" as="geometry" />
        </mxCell>
        <mxCell id="ei6kTYKVST2P0mMHp64S-103" value="+GetShape(index):Shape&amp;amp;" style="text;strokeColor=none;fillColor=none;align=left;verticalAlign=top;spacingLeft=4;spacingRight=4;overflow=hidden;rotatable=0;points=[[0,0.5],[1,0.5]];portConstraint=eastwest;whiteSpace=wrap;html=1;" vertex="1" parent="ei6kTYKVST2P0mMHp64S-101">
          <mxGeometry y="52" width="230" height="26" as="geometry" />
        </mxCell>
        <mxCell id="ei6kTYKVST2P0mMHp64S-104" value="" style="line;strokeWidth=1;fillColor=none;align=left;verticalAlign=middle;spacingTop=-1;spacingLeft=3;spacingRight=3;rotatable=0;labelPosition=right;points=[];portConstraint=eastwest;strokeColor=inherit;" vertex="1" parent="ei6kTYKVST2P0mMHp64S-101">
          <mxGeometry y="78" width="230" height="8" as="geometry" />
        </mxCell>
        <mxCell id="ei6kTYKVST2P0mMHp64S-105" value="-m_items:vector&amp;lt;unique_ptr&amp;lt;Shape&amp;gt;&amp;gt;" style="text;strokeColor=none;fillColor=none;align=left;verticalAlign=top;spacingLeft=4;spacingRight=4;overflow=hidden;rotatable=0;points=[[0,0.5],[1,0.5]];portConstraint=eastwest;whiteSpace=wrap;html=1;" vertex="1" parent="ei6kTYKVST2P0mMHp64S-101">
          <mxGeometry y="86" width="230" height="26" as="geometry" />
        </mxCell>
        <mxCell id="ei6kTYKVST2P0mMHp64S-106" value="" style="endArrow=diamondThin;endFill=1;endSize=24;html=1;rounded=0;" edge="1" target="ei6kTYKVST2P0mMHp64S-101" parent="1" source="ei6kTYKVST2P0mMHp64S-50">
          <mxGeometry width="160" relative="1" as="geometry">
            <mxPoint x="330" y="1936" as="sourcePoint" />
            <mxPoint x="160" y="2030" as="targetPoint" />
          </mxGeometry>
        </mxCell>
        <mxCell id="ei6kTYKVST2P0mMHp64S-107" value="" style="shape=image;verticalLabelPosition=bottom;labelBackgroundColor=default;verticalAlign=top;aspect=fixed;imageAspect=0;image=data:image/png,iVBORw0KGgoAAAANSUhEUgAABa0AAAOICAYAAADVcd0ZAAAAAXNSR0IArs4c6QAAAARnQU1BAACxjwv8YQUAAAAJcEhZcwAAFxEAABcRAcom8z8AAP+lSURBVHhe7P0JnB1Xfed/377dLRmw8RrjSUIgxIyZkPxZbHWrWzJmsk4yWYDJE2Yy87ckS2oZkpCFIROYASfBsuQFuQWZJDDJADP5xxsSIbZann/CMhM8j/EmPUnASytDQjJDEkuWbEIMWOrzfE/VqbpVdU/dW9W36vZdPu+Xf6+6Xcupuqdvy9VfHZ1qAAAAAAAAAAAAAAAAdLTSaPy46jrTaPxK2dJxc1pOuKYK03GXqd6Tba+XUns/r/pmd4pSdNzVqlX1QV6pvR/SsulOUZiOe4nql7Lt9Vi/rHqZajXfqx+roW/+lZar6ZsXqd6Wba/XUpuv1HI1ffM6VdWf422qF7hTFKZjz9VxO1VVf6/mtVzN9+r/Ur07214vpfbeorpQr0t9r7T/WTru/1ZV3Tc/rOWkO01hOs7+jP+HbHu9lNr7BdW36PVqPsc/oar6c/xTWk65UxSm4+zP+L/Nttdj/bLavFTL1fTN96uq/hxfo+XZ7hSF6Rj7M/7Tqqo/x9+t5Wp+xjeoqv4c25/xb9Lr1fyMX6Oqum+u1HI1n+OXq96Vba+XUnu/oOW3qVbzvfpXqqp/xn9Ey2l3isJ0zLfp2F9UVfa9Ulv2z7+X6PVq+uaHVVV/jv+1ar07RWE65mKVvZetsm/eqbpMr1fz/6rvUf37bJu9lNrbruV5qrI/4/bPv12qKvvmR1Wlv08AAADoE92svUd1RjdvZrWl49+uZeFfFLT/q1TPZdupos40Gs+q7XPcqQrRMb/dax/kldrer2XhXxR0HS/SMc9k26mq1P7LtSz8i4L2f7fqdLadKkrv8xNaFv6FV/uepWP+UtezkmynqlK7P6Blmc+xDUG/kW2nilK7R7Vc505ViPrmsRr7ZqeWZT7H9hfBr2fbqaL0Pv9Gy/PcqQrRMffqemr5GVe7u7Us/DnW/jbMfzbbThWl92n//Pt2vS78M65jPqhj6vrz+L+q7cKBgPa1f/6d8LVVRan9Un8Bo/3fparrc3y32n6eO1VXOsaGssuqun7G7V/AFA5ntb8N5f4h204Vpb75Ey1Lhfq6lv+hquX/VWr3rVoW/vNY+27WMV9JtlFVqW/+Vm2/SK/L/Izbn8NaPsdq90ZVmc+xDaxPZtupovQ+v6a2/4leF/4Z1zHX65i6Pse3qe3C96Pad72O+Sst6/oZ/x4tC/+Ma98FHVPX5/g+Lc93pypExzyo66n8Z1ztfkjtlvq9AQAAAH2im7U/6vUGWW3cqGWZIMCO7K7ll0tbavvF7lSF6PpteFBXaH2HlmWCABvo1xKE2lLbdtRYmV92P6Bj6goC7teyTNhnA62ns+1UVWr//9ayTDD7b1V1hX1/o7YLh306xgb69pi6ftm1o9DKfI5/RlXL51jv0wa+l6jKfI6P1NU3avs/aVk40NJ12ED/a9l2qiq1/Roty4Q2v69j6vqLqf9Xy7PcqbrSddhAv5YAydUbVIV/xnX9i7qeuj7HD2j5fHeqrnQddgT6k9l2qiq1vU3LMn8e25Gtdf3li/2z7IXuVF3pGBvoP67j6vrz71e1LPM5fpPq77PtVFF6j/bPjpeqyvz59991PXX9jH9YbRf+l0Ha9woddyrbTlWl9jdqWeZn/KM6pq6/mPqklue6U3Wl67CjrI9n26mq1Pa/1LLw/6t0/e/VMV/NtlNFqW37F3AXulN1pX1toP+EqvKfcbV5n9q/wJ0KAAAAg0Q3a3Fordd2VLD3n9DllY61/4yx9M2ejl3ItlVF6VreqGXhwMbSMfaf6lf6z2Zd2X+S/s1aFv7l0tIxP6mq9J8421KbNpQo2zc2KKl6qpKg1O53aFm2b35AVfn3Sm3af5JeakoOHXeejvnZbFtVlNp9rZZl+6byqUpsqU0bTpWakkP72hCp8qlKbKlNO1qs7Oe48qlKXNmf8W/Vsuz36t+o6uibN2lZOLCxdEzlU5VEpXZLT8mhY2yoX8fn2P75V2qaBx1j//yz/5LI22YvpXa/S8uyn+MrVZV/jtWm/fOv1EhDHVfLVCWuNqvKfo6/W1XpNAa21Kb98+9ivS78Odb+61V2qpI6Pselp+TQ/nZ08zuT7VRRtk1V6Sk5dEzlU5XYUps/oWWpf6GkY2xQbL/HdXyOX6Eq+zn+IVXlfx6rTTslR+G/eLG0v/0Z/7k6+kZtzmpZ9s/jeVVlU+7od54/V3tntGSkNQAAwKBKhtZarmrOTwAAAAAYBvp9x4byduR/qb8EAgAAQB8RWgMAAAAAAAAABgahNQAAAAAAAABgYBBaAwAAAAAAAAAGxplG43cTofW3utUAAAAAAAAAAPTfSqPxqjONxgEtf8GUfAI8AAAAAAAAAAAAAAAAAAAAAAAAAAAAAAAAAAAAAAAAAAAAAAAAAAAAAAAAAAAAAAAAAAAAAAAAAAAAAAAAAAAA0Aem0Vg402jcsdJofK9eT7vVAAAAAAAAAAD010qjcbHqb02jYc40Goe1PM9tAgAAAAAAAACgv1YajXnVCRda36fXF7hNAAAAAAAAAAD0F6E1AAAAAAAAAGBgEFoDAAAMEd2svUr1PPclAAAAAIwcQmsAAIAhoRu1X1Kd0U3bl3XzNuVWAwAAAMBIIbQGAAAYErpZ+yPdrK3YGzctL9Vywm0CAAAAgJFBaA0AADAkCK0BAAAAjANCawAAgCFBaA0AAABgHBBaAwAADAlCawAAAADjgNAaAABgSBBaAwAAABgHhNYAAABDgtAaAAAAwDggtAYAABgShNYAAAAAxgGhNQAAwJAgtAYAAAAwDgitAQAAhgShNQAAAIBxQGgNAAAwJAitAQAAAIwDQmsAAIAhQWgNAAAAYBwQWgMAAAwJQmsAAAAA44DQGgAAYEgQWgMAAAAYB4TWAAAAQ4LQGgAAAMA4ILQGAAAYEoTWAAAAAMYBoTUAAMCQILQGAAAAMA7s7zuqJ11o/Sktz3ebAAAAMEgIrQEAAACMC/3O87P6HegT+r3n+1TTbjUAAAAGCaE1AAAAAAAAAGBgEFoDAAAAAAAAAAYGoTUAAAAAAACAtXLeRRdd9EcXXHDBEYqK6nNTU8+sNBrGhtabzj33Cxd69qHGut6oPzua4R8hAAAAAAAAQLWuevnLX/70Jz/5SfPpT3+aooL6X9u2mZVm03z9ggvM/1ha8u5DjWe9613vMhdddNEB/dkxFf4RAgAAAAAAAFTrqssvv/zEmTNnDJBy//3GPPWU+wIIffSjHzUXX3wxoTUAAAAAAABqQ2gNoDBCawAAAAAAANSN0BpAYYTWAAAAAAAAqBuhNYDCCK0BAAAAAABQN0JrAIURWgMAAAAAAKBuhNYACiO0BgAAAAAAQN0IrQEURmgNAACAUbTSaFxquMcFAGBgEFoDKIzQGgAAAKPmTKPxxyuNxnOq3aoXuNUAAGANEVoDKIzQGgAAAKPENBqXrzQax7U0ZxqN+/T6ArcJAACsIUJrAIURWgMAAGCUrDQa86oThNYAAAwWQmsAhRFaAwAAYJQQWgMAMJgIrQEURmgNAACAUUJoDQDAYCK09lneb66cbJqJYIqzneae02fMitsEjDNCawAAAIwSQmsAAAbTGobWy2b/5qZpzu8zj58ZpEhY13XlpGnuvMecHqjrAtYeoTUAAABGCaE1AACDafhC68PXmsnmvNn3eF2jnw+bayebZtO+x8xpMmsghdAaAAAAo4TQGgCAwdRjaB0Gz5tufdx0zp19+w1oaO2mBplf09D6sLl2atIs3P1cl34tuh9QDUJrAAAAjBJCawAABtMqQ+swcJ6YsHM+N8xcbmjdab90aL28f7NpbrpVr5fMrng+aR2zLzrG7e/aiss3jUcQbE/k7mPPNdncae557Faz2Z1rbt9j5p5dkx3bP3xters95rSv69rOf7d5LnmN2j412WG7C6ObwfY5s++x0zn9W3Q/oBqE1gAAABglhNYAAAym0qH14V3J4Dj/IYXpgNe3nye0DoLe1r7Rup33JMLYbiOtXWAcH7O8Pwim7cjpqI0wtLbnCoPeVDs5I63t+9l8a2Jd9jwRz/rD106ZXYfcaGgXWO+MRkcfe3/rfKmGwuMmm1Ef5ofSRfcDekVoDQAAgFFCaA0AwGAqHFqnwuqd95gzK/5UNBVWd3yYoS+0zobR4fzS8/Foa7uqU2ht29T580ZWJ8JwGywHI6WzjRSeHiS8tonUuZbN+zs+xPGY254eWX3s/VcG13f3c/4gftXh9aOE16gWoTUAAABGCaE1AACDqVhofXiXG/F8xuRk1aG80cdevtB6ITMi2+2zkAiBO4XWblS1f/TzJrPvsWRorTayo6ytwqG1J6BeTo6aDleluFHV8SjrSDD62l5f536LQ+m5feaxtpHrLcn9Hu2wH1AWoTUAAABGCaE1AACDacBGWlcTWkfzYafLjlDuJbTWtdiQOp7yxJUntM4N7V1onX99nUJrN0p7osR+jLRGxQitAQAAMEoIrQEAGEwDNqd1TSOtM8qH1i6w1rU+Fq+scKR1R6sIqzvuB6weoTUAAABGCaE1AACDqXRoHQrD5AkXSs/dmphzOqXTfjWE1m6e6U37Wg9d9CkdWucE2W2htXee6yRtn5oMrs+/PYmwGoOH0BoAAACjhNAaAIDBtMrQOhKGyptyQ+uIb79VhtZ2NHXTBsj+c4aBdGZebRt0b77VPOZWlB9p3R5GxyPJMwH1cvBQxfT57RzTm28Ng+rwoYvanhxtbee0ttcXv/cw3F7oOiK76H5ANQitAQAAMEoIrQEAGEw9hta9WGVoLeG+E8Hobe+82cFobLfdln1wYeb4cqG1uPXRfNRz2n7Prsm2a7Oi4Do+/867zXPJfWxIPZm5vtT7BgYToTUAAABGCaE1AACDaQ1DawDDhtAaAAAAo4TQGgCAwURoDaAwQmsAAACMEkJrAAAGE6E1gMIIrQEAADBKCK0BABhMhNYACiO0BgAAwCghtAYAYDARWgMojNAaAAAAo2Sl0Vh/ptH4Ey3PaPkhLc9xmwAAwBoitAZQGKE1AAAARs1Ko/Fi1b8wjcZ5qgm3GgAArCFCawCFEVoDAAAA8HnF5OTkN7Q0FEXVV+7n7J+ogFFHaA2gMEJrAAAAAD6vv/zyy0+63xsA1OSKK644qZ+3fxr+2AEjjdAaQGGE1gAAAAB8CK2BPiC0xhghtAZQGKE1AAAAAB9Ca6APCK0xRgitARRGaA0AAADAh9Aa6ANCa4wRQmsAhRFaAwAAAPAhtAb6gNAaY4TQGkBhhNYAAAAAfAitgT4gtMYYIbQGUBihNQAAAAAfQmugDwitMUYIrQEURmgNAAAAwIfQGugDQmuMEUJrAIURWgMAAADwIbQG+oDQGmOE0BpAYYTWAAAAAHwIrYE+ILTGGCG0BlAYoTUAAABGzUqj8eYzjcZHtNxkGo1ptxolEVoDfUBojTFCaA2gMEJrAAAAjJKVRuPiM43Gl7Rc0fLjptE4z21CSYTWQB8QWmOMlAytl83y8rJ73YX2a+26bPZfu8ssHnrCrKy4VYX1ciyAKhFaAwAAYJSsNBrzqhOm0TBnGo379PoCtwklEVoDfUBojTFSKrQ+vKtpmhMNs/OeM50D5MPXmsnmhP6/v9Pcc/qMWbp2MjiuMXerefxMueT5cHzsvtLHAqgWoTUAAABGCaF1dQitgT4gtMYYKRVaL+/fbJoTE2bu1sdNfn68bPZvbpqJINw+Hexnj9u8ad4sHDrT4Ti/3GOX95vNkzrP3D7zGGE20BeE1gAAABglhNbVIbQG+oDQGmOk3PQgh3eZph1BvfMecyZvqHU0ynoVo6pLic6jazlNaA30BaE1AAAARgmhdXUIrYE+ILTGGCkXWtvRzc0JM5EbSLePsg5XL2tLnmVz+PCSWVrSPt4m24+182ov2VHfupa5fY+Zx5/Im2tb64O2VdqeG20nz6HXh7X/svdigPFGaA0AAIBRQmhdHUJroA8IrTFGVhda27mqz6y0h8C+0c/RMW0jou0DFsPpRnQdcc3tS4ziDo5tpo6N57hOHBNVHJQvHzb7d21qa7vRmDP7HjuTvm6d48rJppm34ffiZjcXt/a1046cTu0JjD1CawAAAIwSQuvqEFoDfUBojTFSLrQ2h80uGyI35sytj2fCX2271s4xnd3mguz0PNjhiGwbPtuQOhopvbR/l9m0eKgVWkfH7msdu7x82CwtLZpN7jr23XMoHEltR0fb42zQHVyH2t65z9zzxBM6Zsns3xUF5OHDIduub27OTNj5unXMrbfuMrsWn0hcLwCL0BoAAACjhNC6OoTWQB8QWmOMlAyto+k/2kPr6CGN2Tmmo5HR6elComlG9nWc99p7rBWNwG57CKO9vuiYxzKhc3Jbq73kyO32YwAkEVoDAABglBBaV4fQGugDQmuMkZKhtTGHd4UjpHfec8a0nsUYjbLOjGLOC7kLhdbRaOw5sy87qjvvIYx5650ooLbzYIebdY4rXWidcwyAFkJrAAAAjBJC6+oQWgN9QGiNMVI6tI5GVCen+/CtC3UOs4OweG7O7DyUPc7KO9adrznRNgI7d2S20769NaXJvsdOp4NxAG0IrQEAADBKCK2rU3NovWyW7bygy+5LYEwRWmOMlA6tzeFdQWBsRyaHc0/nh8vxiGrvKObl9IMY53R822hstes5Ngyfsw9VTAbQmesI2KA8E1rrHPYhjP7rA5BFaA0AAIBRQmhdnZ5C6+AhV8HDqpb1q7vH8qKZt8HBwpJbYS2bxYUFs0iSjTFCaI0xUj60jqf2uDWY2mOp0+hm70MYM5YPm2uDKURscJ2YLsTzEMZQXkjeITwPeLbH53jMnG4/AEAGoTUAAABGCaF1dVYRWi+bpcWFMIzO1vyCWUxm0Z7Qenlx3u2/YJJRNjDKCK0xRsqH1uaw2WVHQNvw9/FFsykRYGd1m66jpT1Qzj02GoHd9hDGzqG1nVIkO9918esDYBFaAwAAYJQQWlenZGi9bBbno5B63swvLLqR1otmYd4TRvtGWmud3Xd+sZ+RdXTd8+lQHegTQmuMkVWE1uF81Pbhijt3TgQjpP2hb2u/9EMYPX+wJ4LoMPyO5rwu8RDGOLT2TA9i22/bpnMED2G065jPGiiC0BoAAACjhNC6OqVC69QoaV/4u7xkFua7hNZrgtAaa4vQGmNkFaG1MYd3uYco2v9n5Iyy9o98dkH2/E5z66FD4V+kLu4KR2urrVb43WHUdBRwN+bMzn2HzKKOX1h6IjguHk3tth1S+4u7NptNE7Z9rbvnTCJc7zwyG0A7QmsAAACMEkLr6hQPraMAukzwmxdaL+fMgR1zD3BU+QbQBTIb4v3d10nLy0ut0NrOv23PX/Q9ABUgtMYY6TG0zoyiTormvs6MiF7ef63ZHITI9nhXczvTI6qjYNr7gMRoFHZ0fHr09OHkwx0T7ace8mjpHDyEESiH0BoAAACjhNC6OoVD63iU9fxil8A5IWd6kPzR1/YhjdFo7kTZ0dvJk7o25hdtuN0+v/Z8ou2lhfS2ZK35AHCMDUJrjJFVhdaVCP5CUuW+LC88Pk/4F569tA8gi9AaAAAAo4TQujqFQ+so/LVBcWGlQuvWfNk2dI7Dgfihj+3Tjsy7ebTjubUTD4iMm1+O5ty26+fNwmI4IjtvVDZQB0JrjJG1C60BDB1CawAAAIwSQuvqFAytW4FyqdHJZULrpYWgfd8I7GiUdxyYR20k10W87TCnNdYWoTXGCKE1gMIIrQEAADBKCK2rMzChdTSS29t+9pi84NuKtqWmMSG0xtoitMYYIbQGUBihNQAAAEYJoXV1BiS0brU/v7BgFtoqM592p9DaLJmF5L4BQmusLUJrjBFCawCFEVoDAABglKw0GpeqnnSh9ae0PN9tQkkDMqd1K7RuzM8Hc1V7KzqG0BpDhtAaQ2SL6guqX1X9E7uiJEJrAIURWgMAAGDUrDQa7zrTaBzV8sdMo7HOrUZJhUPraF7pdBjcRenQumCoTGiNIUNojSHzCtV1KhteP6oqE2ATWgMojNAaAAAAgE/h0DoOissEv4VD6y5zWmcRWmPIEFpjiJUNsAmtARRGaA0AAADAp3hoLVGwnBf+Li8tmoX5xLYSobUaD9suMpK7dGhdMhQHKkZojRFRJMAmtAZQGKE1AAAAAJ9SoXVrxLKr+fn4YYlBiBzUgolz4TKhdbJt2+7ikllasrVoFhfmg2PiQ1YRWremN1kwi2p3UdfMqGv0C6E1RlBegG3/v0JoDaC7Z581X9y82axMTBjdpFVaZxqN/6JlqSB8pdF4nY5b1nIl214vpTb/Rm3+hF433akK0XEfUP19tr1eS23+N13POe40hWj/y3Tc/6+GvjmlNn9GryfdqQrRMf9Bxz5Zw/V8TstvU024U3Wla3iRjvvvWp5JttVrub65Xq+n3akK0TE7dOyXauibx9Xmq/S68OdY+56l435fx51OttVrqc1nVf9Jr0vNEarr+FEd95dV943a+wvVD+p12c/xb6q+kW2v19J7vEvL89xpCtF1bNBxX9Cy6s/x32i5VVXqc3xa95g69mldj7fd1Zba/EO1+e16XeZn/B/ruPu0rPpzfErLX1a7692pCrHH2H7VcVX/jD+o5eWqwp9jXcPFrk+fS7bVa6nNr6lu1evnu1MVov236rj/peup+nP8hJbfpyp8X2G/rzruDi2/nmyrilK7t6ndsv8f/yEd96daej/H9j1q2/frdamfVaBuJUNra9ksLSZD6lbZByUup5PiEqG1pbYXXLicqfmFRAi9itDatp0K3JkqBH00RKG1DSJfT1VSb1D9ypjUr6s+o3pSdeo1r3nN1witAXT1iU8YMzXV9otTVaVfvjZoWTiY0C9sd+qYSn/RjUptH9WycMCm63iVqvJfdBP1/1EVDh91/TfreioNJaJS2za4Ocudqivte66u5dlkG1WW2n6HlmWCiZ9RVR48RqW2/5GWZT7H/0fHVBpmRaW2P6Blmc/xj6q+lm2nqlLbc1qW+Rz/Tx1T18/43VoW/hzrOv4v1Vez7VRVavtfaVn4c6zr/z0dU9fP+J+o7Re4U3WlY+zP+DPZdiqsUkGxrv8G7V/L51ht2z//znWn6sruq2s5mWyjytL1/KaWhYNiXcu1qjo/x2X/guHPVXX9+XdIbRcOirXvD6ue9rVVRantf6plmZ/xT+mYjj/j2ueTWhb+PAL9sIrQOmnZLC/bcl9WKWi3jrbDdoF+uuSSS57Vz5v+HzDwZUfMfpqqpD6u8gW8o1i3q46o7Of8L1/96lf/A6E1gK6efdb879e+tq6R1v9Ny7IjVH9Mx/2VllWPXjupNv+NXpcahanjPqTjKh3ZZ0vtfk7tXuxOU4j2n9FxdhRW1X3zrNr8t3pdalS8jvs11Vey7fVaavMxXc8/1usyIclLVEfr6BvVzXpd9nP8Mzru72q4Hjua+Cq9LjPS+lwd9xkdV3lQrHb/q9otNUJV+/+EjvvbGvrGjnp9s16X/Rwf1HF1/Iz/oZbnu9MUouu4UsfZEapV9439FwM/p9elRsXruFt1XB0jVB/Q8mWqsiOt/0zLqkfvfk1t7tHrwn/ZYZ1uNN6jY22/Vv29sn/GX6HXhf9fpX2/Tcc9oOMq/xyrzf+sKvyXHZb2v1bXU/lf3Kk9+y80fkSvC/95rH3tn3/2XzZV/pdBard0uKzreKOOs/+aLPdzrO2f1bLUv9IA6tZjaA2gCKYHwQi6SvUbqqdUv6/aprK/IDE9CIDCmNMaAABgbaw0GptUweh9QmsMIkJroA8IrTEioqD6/6jsaPK3qLIjeXgQI4DCCK0BAADWBqE1Bh2hNdAHhNYYYr6g+h+p8hBaAyiM0BoAAGBtEFpj0BFaA31AaI0hUzaoTiK0BlAYoTUAAMDaILTGoCO0BvqA0BpD5MdVn1KVCaqTCK0BFEZoDQAAsDYIrTHoCK2BPiC0xhghtAZQGKE1AADA2iC0rpf69mL1adN9iVUgtAb6gNAaY4TQGkBhhNYAAABrg9C6PurXe1TfUP2S+vX5bjVKIrQG+oDQGmOE0BpAYYTWAAAAa4PQuh7qx8vVr8ddv96n1xe4TSiJ0BroA0JrjBFCawCFEVoDAACsDULreqhP51UnCK17R2gN9AGhNcYIoTWAwgitAQAA1gahdT0IratDaA30AaE1xgihNYDCCK0BAADWBqF1PQitq0NoDfQBoTXGyPdMTk7q/812Ki+Koqju9cIXvvB/aDmtAgAAQJ8QWteD0Lo6hNZAHxBaY4xc9ZrXvObEqVOnzDPPPENRFNWxPvjBD5qLLrqIkdYAAAB9ZsIHBj7lwtVPanmu24QeEFpXh9Aa6ANCa4wRQmuKogoXoTUAAMDaOdNofEr19yuNxk7VercaPSC0rg6hNdAHhNYYI4TWFEUVLkJrAAAAjBJC6+oQWgN9QGiNMUJoTVFU4SK0BgAAwCghtK4OoTXQB4TWGCOE1hRFFS5CawAAAIwSQuvqEFoDfUBojTFCaE1RVOEitAYAAMAoIbSuDqE10AeE1hgjhNYURRUuQmsAAACMEkLr6hBaA31AaI0xQmhNUVThIrQGAADAKCG0rg6hNdAHhNYYI4TWFEUVLkJrAAAAjBJC6+oQWgN9QGiNMUJoTVFU4SK0BgAAwCghtK7O965bt0792KAoqsZyP2ffpwJGHaE1RVGFi9AaAAAAo4TQujqvf81rXnPS90sERVHV1Wtf+1pGWmNcDHdofWC7mWxOmK13njSnnvZsz1bZ/ake66i5aW7KNLfeYZ46+bRn+zjWQbNjesrM7n7APHWqTJ+oL+enzcYbyh5XbRFaAwAAYJQQWleH0Jqi+lCE1hgjgxNaH7nRbGxOmJk9D+cEykfMjRubpjlzg3nYhXYHtk+a5sQGc8PDp8zTbfu3V7z/Q8X2D89pj0n+a4yt5s6TRY8fxTpgtk+pT+L+SNSWTDh99CYzN9U0Mzc8aE6uYdBae+l9zqtPJhpbzO0nTppTvn1cHdwxbaZmd5sHnir/GTq4Y52Z2na7Oa7Pn297P4rQGgAAAKOE0Lo6hNYU1YcitMYYGaCR1gfM9smmmdh6pzfgPHLjRtOsfJR0h3O6UdmNzDZ7HRv35gXrw1AudLYB82qC5DJB9IEdZmpy1tzw4DCPbD8QjIxubrndnMgZLR4E0U0b3G8wux98Kv+9HtxhptV3W24/ob7zbO9SR2+aN9OTW83txzsH43UWoTUAAABGCaF1dQitKaoPRWiNMdLf0DoYTT1r9nhHRocjqSe2+ULrzoH2qstej9ptC8Ld+srPNwhlQ2f7nu/oEK52qgPbCwfRR2+aM1PNreaOp04O78h0N4p6qw2afe83CqJ37zazk24/byAdTu8xudWG36v7eQtD6xmz+4FVfu8qKEJrAACAtXOm0fi46smVRuMnTaOxzq1GDwitq0NoTVF9KEJrjJH+htYHrjHN5jZz56mnvSFmMH3HzJ54+o+owlHWM23TgAT7z7amCwkqGiHtpqxIBtLR/g+desQz7YcqCKmjKUGKTwNy5Ma51Dl9U4gE57aB/MM3BqHxRLCfnaqkPfw9sH3KTCauLRswB9u33WEe2rPRnXeLuSOabiIIlZvxscGUHUH/2PmlPe/ZN+I6t41kEN29bw7s0HWqvx9M9kUw+jrTdmIEc3CM3ttT6qdwyg27n97fCRt82+C31Tcbdj/oHy2uc0xnzpEcJX1gx3RwjhOpc2RHSafP1WorOeLa7RME0R9zc1XnXFOHUdatkdq27BQjd5rtamvb7cfT+6qNdVOzhNYAAABjSDeKl680Gk9pacPVT2p5rtuEHhBaV4fQmqL6UITWGCN9Da2D8HkiP7SOt6cC37xR1p71LrCOg2o7YnrjXhdqt+9vzzfZzATMro0NNzxUKBhszZMdjSY+Ym4MwuFku+G5ZzdsMBMze8xDWh+ss4GpfUhh/L6iYDkRCtuR0fY9JNvScUFbei/JgDQIs5uJINyNqp7Re4nesw2d7XvOC529bcTTgRwJH6w4kwmivXXA7NB1BtOQuJA3CKRt29Eo7aDtSTOzO5pqJDwm7CedI7hGOz2HbWeL2WJH6btgOQiem1GY3TpvuD4RQLuR0vYcYV+F7bWfwz8FiB3dPGWn5Micp7Vtxp0rGWBnf57sNl3XTHYua7d+IjEXtgu3gxA9E04z0hoAAGB8rTQam1QnXbj6WS3Pc5vQA/XpetXj6tMV1Uf1+oVuE0oitKaoPhShNcZI/0Pr2faR1KntEzOp6UOCdXZ0djYkDaYasWFqa37pMEDOGSHtpvywAW64vxtRPWNHXreupxVCe9rIVjYkz1t/JAyPJ1IjsG0A7M7v1oWB8ox39HVcLoie2NA6LljvRkdvSY3KdgF3HFq7UDxxzlTbHduwwXL4uu0hjLqWthA7FXbr3G6EtW27Nc2GC6mj0NqF2PaBhq0pRVwYPNHQsa0pOqIwORVauxHWyf3ikDoKrV2IHT00MXWOmd0uxI6OzVtvKxl0hz8/0UMW2/a159Q1zOx+ID0KOwio20dOh+F0+9zVhNYAAADji9C6PurXS1XXqE8vUenXHawGoTVF9aEIrTFG6g2tg+lAktNmZCo7erot7G0PptP7zqamDAkD7vaHJ6b2j8PoA+Ho59SI6jJTg7gR1UEA7DtX4n1kv3bHBwFyPNLaBcqpkdeeUltTk2orFSz7wmi3zo0CD/fNhtjR8Z3amArbsKOjbfieDKJTx2cq9RBG147aboXb4bpJtb07GnmdF2wHI609U3ykRlqrvbaA2a0LzuH6yxtsu/2CUdLJ9xUG074pP6LQPB4hnbMuWt8eNttzdhh9rWs57sLwqA7uWGem9J55ECMAAMD4IbTGoCO0pqg+FKE1xkgfR1ofMNfYAHqPJ4COKgipJ+J9Oo2cDgPq9m3hMWEonpziw+6fmgrEjbxOB8lhkB2MYu4Wyrp9gwA4837COa7diGn7tZuSI32tmQDZjaBOTuXhK+/0Hu7YcG7mRGVHY7v9vA9h7NBGHDQHgfkqHsJo257ytb07NUI7OMaOnk4+uFHHBg9C9IbMiSDb7ec9R6KvomA5Pa1ITjgdnTv7EEa3vjXliFsfjZxOzY0dzVmdmAIkqIPunJnR17nr80Lu/hahNQAAwNogtMagI7SmqD4UoTXGSP9C6yCQnk1N/dFeLjS2I6Uf2Zs/yloVhNPZhzBmtyem+Yj2j8PotpHXtkqMtNb7iUPmzPVlw/b43Po63i87Yto7grq9gjmnXVvx9dlQOC+MTlYUOvumHynQRiuI7tI3qtRDGG3bU2Hb2b5KVnhMOsgOR0Zng+DMlB92XRQwp8Lt9gpGaGen8LDn0PUFD0lMHhusbw+hbRutBye2V/phizlhs73e3ClD3LUkH8KYt3+fi9AaAABgbRBaY9ARWlNUH4rQGmOkb6F1MDK6w3zWYdnQuGkmtt1p7tzWDKaT8O+fCLfz2gtC6WhKjvb9s8FydFw27I7by1ZeaJ1cH4SO/muNRl/HAXCh0DocnZ1+eKOqQOBsK3zIop0v2vPeurZx1DPFR14dSD+E0bbdNbTOHOPWe0dG2wA3G1D71rVVGHZnpxpJTuuRfF9hOJ2c+1rlAu4NnilDomtIj8BuTfeRekCj3bcthA5HWTcH9CGMtgitAQAA1gahNQYdoTVF9aEIrTFG+hZaH7imaZrb7jSnns4EfZkKQ+NwxGp66o5EBaO2m4ntNuzeaPbGo7jD8DuYn9kGgnZ/G8gm2ssLraN90w9NVNkQfOOexLQhnjmtXWCdCqjdQxiz78WePz1i2gXSySk9bJB9zV2tUNOGv95gOTw2CHzj67Mhs+2T5HvuEFrntjFn9gYjs33bc8pe55QN7qO5r32BdLLt6BgbOieDbRv46pozD0IMQ+YZ7+jrdCBtj7fncPu5UDkbbAfhtOcBiu2htf96WuVC58TDGcNjPKF1275uWpANG8yEPlNF57nudxFaAwAArA1Caww6QmuK6kMRWmOM9HFO62IVjMiemDCNDR1GZQejqGdSD2GMgux4TuPkvNTB/pmpQOJw2u6fDa8PhKOjo7a8+/j3awva43NrfXxc9iGMrX3taOv4nNk5qYPtnaf3SF1zNmBO7eMJrzu1EYTK2T4Ja0P2wYwHkg9hTLSdPT4ZYrtj4ocyBm35R0Z7p/iwpXPYUDp7jvhYO0q6baoRF0S3PYRRlWpvi7n99m1mSu+hbRqRuHyhdl5orXJTgYTXGo6uvmv7tJnaltlX+62z05Ss8ShrW4TWAAAAa4PQGoOO0Jqi+lCE1hgjAxdaU9SoVfAgxtnVPkBxcEZZ2yK0BgAAWBuE1hh0hNYU1YcitMYYIbSmqJornI86nDO7Ndq+WMXHHi9/bB1FaA0AALA2CK0x6F7/spe97CuHDh0y1PDU7/7u73rXU4Nb3/Ed3/EV/bwRWmMcEFpTVN1lpxmZ3mhuKDu9R3DcpNl6+3H3UM+1L0JrAACAtUFojUF33vnnn/+pCy644Ag1PLVu3boTL3jBC/7Ct40azLI/Z/p5Oz/8sQNGGqE1RVGFi9AaAABgbRBaA6jDh1Vbw5cAMFAIrSmKKlyE1gAAAGuD0BpAHQitAQwqQmuKogoXoTUAAMDaILSuj/r1h9Sni1q+Uv066VYDY4HQGsCgIrSmKKpwEVoDAACsDULreqhPL1Z/fknLFS0/Tr9i3BBaAxhUhNYURRUuQmsAAIC1QWhdD/XpvOqE69f79PoCtwkYC4TWAAYVoTVFUYWL0BoAAGBtEFrXg9Aa447QGsCgIrSmKKpwEVoDAACsDULrehBaY9z9pura8CUADJThDq0PbDeTzQmz9c6T5tTTnu3ZKrs/1WMdNTfNTZnm1jvMUyef9mwftzpodkxPmdndD5inTtn+UP/MT5vJrbebEyc7/QyG+228ITrOt09/itAaAABgbRBa14PQGuPuV1wBwKAZnND6yI1mY3PCzOx5OCdQPmJu3Ng0zZkbzMMuuDuwfdI0JzaYGx4+ZZ5u27+94v0fKrZ/eE57TEP3MFFtNXeeLHr8KNYBs31KfRL3R6K2ZMLpozeZuammmbnhQXNyjcPW6utAEEBn+2HD7gdzg+WDO6bN1Oxu88BT7vOj/pmfnjQzcYjdfkxUB3esM1PbbjfHO4bb9RehNQAAwNogtK4HoTXGHaE1gEE1QCOtD5jtk00zsfVOb8B55MaNpln5KOkO53SjshuZbfY6Nu7NC9aHoVzobAPmLkGpt8oE0Qd2mKnJWXPDg8M8st2F01vsaOjE+7WBs/px6+0n1A/huqM3zev9TpgtiXVxHdxhptVvqW3Bulmz+4GnuvaPbXt6cqu5/bj60rO9X0VoDQAAsDZWGo2LVcdduPoRvT7HbUIP1I+E1hhrhNYABlV/Q+tgNPWs2eMdGR2OpJ7Y5gutOwfaqy57PWq3LQh36ys/3yCUDZ3te76je1DqrQPbCwfRR2+aM1PNreaOp04O78j0ZDidfL8HXOD8YKIfPUF2WP5pQOIg+kT3IDrcd6ZQwF1nEVoDAACsnZVG44dU7zCNxktVTbcaPSC0xrgjtAYwqPobWh+4xjSb28ydp572hpjB9B0ze+LpP6IKR1nPtE0DEuw/25ouJKhohLRuOmwlA+lo/4dOPeKZ9kMVhNTRlCDFpwE5cuNc6py+KUSCc9tA/uEbg9B4ItjPTlXSHv4e2D5lJhPXlg2Yg+3b7jAP7dnozrvF3BFNORGEys342GDKjqB/7PzSnvfsG3Gd20YyiO7eNwd26DrV3w8m+yIYfZ1pOzGCOThG7+0p9ZMNgMN+0vs7YYNvG/62+iZ3Kg4bKGfOkRwlfWDHdHCOE6lzbEgH0JlztdoKR1yHo6ozgXM0cjrVTrQ+M8paFU8X8tBeMzcdXUcjd6T2uoKjsussQmsAAACMEkJrjDtCawCDqq+hdRA+T+SH1vH2VOCbN8ras94F1nFQbUdMb9zrQu32/e35JpuZgNm1seGGhwqFg615sqPRxEfMjUE4nGw3PPfshg1mYmaPeUjrg3U2MLUPKYzfVxQsJ0JhOzLavodkWzouaEvvJRnaBmF2MxGEu1HVM3ov0Xu2obN9z3mhs7eNeDqQI+GDFWcyQbS3Dpgdus5gGhIXGAeBtG07GqUdtG3ndI6mGgmPCftJ5wiu0U7PYdvZYrbYUfouEA6C52YUZrfOG65PBNBu9LM9R9hXYXvt5/BMAaJKhtOt87hAe2a3O751nomgjeTPk91X16R947msg3IPZXTXEW0Lgmy9r+zoa0ZaAwAAANUjtMa4I7QGMKj6H1rPto+kTm2fmElNHxKss6OzsyFpMNWIDVNb80uHAXLOCGk35YcNcMP93YjqGTvyunU9rRDa00a2siF53vojYXg8kRqBbQNgd363LgyUZ7yjr+NyQfTEhtZxwXo3OnpLalS2C7jj0NqF4olzptru2IYNlsPXbQ9h1LW0hdipsFvndiOsbdutaTZcSB2F1i7EnghGjkchcWvE85Y7WlN0RGFyKrR2I6yT+8UhdRRaR+GyztEKoj0hdMf1LuTO9oNrMzXVhz2f72GLbn10HenR2u2jsgmtAQAAgOoRWmPcEVoDGFT1htbBdCDJaTMylR093Rb2tgfT6X1nU1OGhAF3+8MTU/vHYfSBcPRzakR1malB3IjqIAD2nSvxPrJfu+ODADkeae0C5dTIa0+pLfuwv/SUIb4w2q1zo8DDfbMhdnR8pzamwjbs6GgbvieD6NTxmQpC6mjua9eO2m6F2+G6SbW9Oxp5nRdsByOtPVN8pEZaq722gNmtC87h+ssbbLv9gjmnk+8rDKfjwDta74Lv9NzV4cjp5oZ0wJ0bNueE0/lTiawLR2DzIEYAAACgMoTWGHeE1gAGVR9HWh8w19gAeo8ngI4qCKkn4n06jZwOA+r2beExYSienOLD7p+aCsSNvE4HyWGQHYxi7hbKun2DADjzfsI5rt2Iafu1m5Ijfa2ZANmOMlZ7yak8fOWd3sMdG82JHFd2NLbbz/sQxg5txEFzEJiv4iGMtu0pX9u7UyO0g2Ps6Onkgxt1bBAQe0PmRJDt9vOeIxMit43QLhJOJ9+vDb49c1f7pvboPN1H+0MY/SG3fb++KUb6X4TWAAAAGCWE1hh3hNYABlX/QusgkJ5NTf3RXi40tiOlH9mbP8paFYTT2YcwZrcnpvmI9o/D6LaR17ZKjLTW+4lD5sz1ZcP2+Nz6Ot4vO2LaO4K6vYI5p11b8fW5wLnbsXHo7Jt+pEAbrSC6S9+oUg9htG1PhW1n+ypZ4THpIDscGZ0NiDNTfth1UcCcCrfbKxihbc+RfA9BCO1GNyePzQmno+A7Gzi3B9T5YXP8EMbU+pz97XvzTTGyBkVoDQAAgFFCaI1xR2gNYFD1LbQORkZ3mM86LBsaN83EtjvNnduawXQS/v0T4XZee0EoHU3J0b5/NliOjsuG3XF72coLrZPrg+kd/Ncajb6OA+BCoXU4Ojv98EZVwdA6fMiinS/a8966tnHUM8VHXh1IP4SxUGidOcat946M9gXUvnVtFYbd2alGkiF08n3ZgDsKoVvr3Sjvtnmu3fQgqQcxuhA6mHYk+TPm21dl34MnnPaPvl6bIrQGAADAKCG0xrgjtAYwqPoWWh+4pmma2+40p55OhK2eCkPjcGqH9NQdiQpGbTcT223YvdHsjUdxh+F3MD+zDf/s/jaQTbSXF1pH+6YfmqiyIfjGPYlpQzxzWrvAOhVQu4cwZt+LPX96xLQLpJNTetgg+5q7UqOJ/cFyeGwQ+MbXZ0Nm2yfJ99whtM5tY87sDUZm+7bnlAupW3Nf+wLpZNvRMTZ0Tgbb/oA4DJlnvKOv04G0Pd6ew+2XE2wH4XR29HW0vi20tudpD5zDUdaJubOD9fb8ntDahdN2KpPW3NWtObG9o6/VxvFkG2tUhNYAAAAYJYTWGHeE1gAGVR/ntC5WwYjsiQnT2NBhVHYwinom9RDGKMiO5zROzksd7J+ZCiQOp+3+2fD6QDg6OmrLu49/v7agPT631sfHZR/C2NrXjraOz5mdkzrY3nl6j9Q1ZwPm1D6e8LpTG3abb15q1YbsgxkPJB/CmGg7e3wyxHbHxA9lDNryj4z2TvFhS+ewoXT2HPGx3qlGXDDe9hBGVao9F177zmErM3d2q21PaB08bHGb2rvTbLdBddRGduS123ednaJkAEZZ2yK0BgAAwCghtMa4I7QGMKgGLrSmqFEq/9zVRWuwRlnbIrQGAADAKCG0xrgjtAYwqAitKarGCuejbn9oY5GKjz1e/ti6itAaAAAAo4TQGuPul1V7wpcAMFAIrSmqzrLTiUxvNDeUnd4jOG7SbL39uJvzejCK0BoAAGDtrDQaL1f9a9NonKuacKvRA0JrjLutqg+HLwFgoBBaUxRVuAitAQAA1sZKo3Gx6q9VK2cajd8yjcbZbhN6oP4ktMZYI7QGMKgIrSmKKlyE1gAAAGtjpdHYpDrpwtXPanme24QeqE8vVT3p+vVTWp7vNgFjgdAawKAitKYoqnARWgMAAKwNQuv6qD9vVP2F+vdq9etZbjUwFgitAQwqQmuKogoXoTUAAMDaILQGUAdCawCDitCaoqjCRWgNAACwNgitAdSB0BrAoCK0piiqcBFaAwAArA1CawB1ILQGMKgIrSlvPfsf/6P5yp/+qXnm6ae926nxLEJrAACAtUFoDaAOhNYABtVVF1988Vd/+Zd/2bzzne8cu3rb295mfuEXfsG7bZzrf33btxndEJuViQmz52d+xrvPqNY73vEO89a3vtW7jXqn+dEf/VFz4YUXEloDAAD0GaE1gDoQWgMYVPZG5zrVr4xZ3aL6n6pvqA6pflXl22/s6txG4/qvNxrP2ZthWx9pNP5wcrz65z+p9HtA437VjW4dla7vUTVVAAAA6BNCawB1ILQGgMFwiWqf6n+p9qr+j+oFKji6Ef5B1ekotNbr/67lpNs8Lh5UfUT1BdVbVQS0AAAAWFOE1gDqQGgNAGsrGVb/gup5qvepfl41oYKjG+Df1s3wmSi01tdf0/Iit3lcLKh+Q/Utql9X2VH5m1R8VgAAALAmCK0B1IHQGgDWhr2Ru0GVDKstG2L/uYpR1gm68T1LN8BP2hvhZOnmeLuW4zTa+CzVl1TfFHzVaMyqPquyo69tkE14DQAAgL4itAZQB0JrAOgvewNn5+q2YfU7VVFYHWGUtYduglNTg0Slm+J7tRy3KULsvOf2LzqSYf3Vqs+r3qUat/4AAADAGiK0BlAHQmsA6I9kWG0fHni+KotR1jl085uaGiQqrX9Wy3GbIuQy1Z+qpoOvWuxnbLfKhtf/XMV81wAAAKgdoTWAOrxB9fHwJQCgBkXC6gijrD100+udGiQq3SCP2xQh1t2qH1b53rcNte9R2f+/f4eKzxMAAABqQ2gNoA6vV306fAkAqNgWVZGw2mKUdQ7dAMdTg+gm+Kt2mSytG8cpQn5MdUA1FXzlZ/f5M9WvqfhcAQAAoBaE1vVRf/6e6mn179tU2aklgZFGaA0A9flB1UHV84OvOmOUdQ7dpMVTg+j1Y3q9Yl9HpXXjOEWIZR/I+K2qTp8Z++DGd6vsX4hcoeLzBQAAgErp/pzQugbqx8vVr8ddv96n1xe4TcBYILQGgHoVCa4ZZZ1DN2ipqUF0o/ZT+vrzqr2qT+nrIMDWchynCHmHao+q2yhzO+L6k6pxDPYBAABQM92LE1rXQH06rzrh+pXQGmOH0BoA6tctuGaUdQ7dmCWnBnlMy3g6DL1eSGwbxylCXqRaVp0TfOX3NpX97J0dfAUAAABUTPfkhNY1UJ8SWmOsEVoDQH/Y4PpTquyNBqOsO9DNWTw1iJa/pmU8mlqvL9G659xN3LhOEfJfVT+l8o0y/3XVrapxC/MBAADQR7onJ7SugfqU0BpjjdAaAPpjl+p1KjtNQ/Jmg1HWOXRzlp0a5Lu0TPWTtv+R1o/zFCGzqs+qkg9ktPNY288ZgTUAAABqp/twQusaqE8JrTHWCK0BoH7/TvUalQ1cX6WKgmtGWXegm7LcqUEiWjfuU4RYD6ouV9nPl50y5I9V/0J1neo7VfyFCAAAAGqje3D7wMCn3D35J7U8121CD9SnhNYYa4TWAFCvq1T/TJUMDqPg+sOqX1ARKnroxix3apCI1jFFSKOxoPoNlQ2o7ajrKMC27OePzxcAAABqo/vx9boX/59anlb9rO7J7b/8Q4/Ul4TWGGuE1gCwNmxw/bAq7+GMY83e6OrGrOPUIBHtN+5ThNhfCr6kul91qYqQGgAAAH2n+/Bz8+7ZUZ5+tyG0xlgjtAaAerxZdX74EmXphqzr1CARbWOKkEbjx1R5nzcbat+iYn5rAAAAYEjodxxCa4w1QmsAqJ4NrLNTgqAE3ZR1nRokom1MEdLdS1TvURFcAwAAAENAv+MQWmOsEVoDQLXstB8E1j3QTVnhqUEi2n/cpwgpws5vvVHFZxMAAAAYcPq9htAaY43QGgAwUHQzVnhqkIj2YYoQAAAAACNDv98QWmOsEVoDQDXslCD/KHyJXuiGrPDUIBHtwxQhxTHiGgAAABhw+v2G0Bpj7dWqI+FLAMAqMYd1RXRD1nVqEK27LLvO0nFMEVLcu1UvU/GZBQAAAAaQfqchtMZYe6nqi+FLAMAqvEJFYF0R3Yh1nBpEXwfTgHTa5o5lipDurlfRRwAAAMAA0u82hNYYa4TWAICBoZux/6ibsdypQbQ9OZr6Ui3jvyzQ6+wUIV3nwgYAAACAQaTfbQitMdYIrQFgdbaovj18iaroZmy3bsbOaHlSy+9IhtJWp9Da0vbfjY4ntC7sB1RMpQIAAAAMEP1eQ2iNsUZoDQDl2cB6q4opQWqgm7GrdGP2imwgbXULrfX1WfZ4FQ/FLO4y1S+pmCoEAAAAGBD6nYbQGmON0BoAyrFzWNvQmsB6DXQLrbFqV6nsA0UZcQ0AAAAMAEJrjDtCawDA0CC0rtWLVPQnAAAAStN9+vtVT+ge/Ud1jz7tVqMH6ktCa4w1QmsAKOYHVfbPTKwhQuu+eImKfgUAAEAhuie/XPfmT7lw9ZNanus2oQfqU0JrjDVCawDozgbW/1JFkLfGCK374nrVy1T0LQAAALrSffkmlX0Qug1XP6vleW4TeqA+Xa/+/Ev7+4+Wt6tf+csAjBVCawDozP45aef6JcAbAITWfXGW6hbVhcFXAAAAQAe6Lye0ron60o5i/2ktX6ri+TMYK4TWAIChQWjdN/YXDftwRvoXAAAAHRFaA6gDoTUA+NkpQV4RvsSgILQGAAAABguhNYA6EFoDQDvmsB5QhNZ9d5nqbarJ4CsAAAAgg9AaQB0IrQEg7RIVc1gPKELrNfEDKvuXOMyhBwAAgDaE1gDqQGgNABgahNZr5idVF4QvAQAAgBZCawB1sH+QnAxfAsBYe7Vqo4oQdIARWgMAAACDhdAaQF305wkAjDUbWP+cigB0wBFar7kfU/0jFf0OAACAAKE1gLoQWgMYZ3aaJALrIUFovebOUt2iekHwFQAAAMYeoTWAuhBaAwCGAqH1QLC/hNjgejL4CgAAAGON0BpAXQitAYwjOyXIG1SEnkOE0BoAAAAYLITWAOpCaA1g3NjAep+KwHPIEFoPnJ9UNcOXAAAAGEeE1gDqQmgNYJzYOawJrIcUofXA+QHVFhXBNQAAwJgitK6P+nVe9XbVt6tfuefG2NHnHgCAwUdoPZCuVv1TFd8LAACAMaT7ckLrGqhPL1Z/fsn+/qPlx+lXjCN97gFg5DGH9QjQzdpu3bSd0fLL+p/X2W411t6LVPxsAQAAjCFC63qoT+0o6xOuX+/T6wvcJmBsEFoDGHXMYT1CdLP2ZpX953F8PweL/eWEX1AAAADGjO7NCa1roD4ltMbYI7QGMMrsDROBNVC/s1S/rnpB8BUAAADGAqF1PQitAUJrAABQDfsLyi2qyeArAAAAjDxC63oQWgOE1gBG00tV/0zFCGugv16isj9//OwBAACMAULrehBaA4TWAEaPDcyuUxGaAQAAAECNVhqNF6uOu3D1Nr0+x21CD9SPhNYYe4TWAEaJ/Vt9Amtg7f2Y6g2qZvAVAAAARtZKo/FG1U2m0XiZivu/ChBaA43GSRX/dAMAAFRtQfVPVfziAgAAAJRAaA00Gl9U2X9KDwDDzP45tkXFCGtgsNjgmtAaAAAAKIHQGiC0BjD87J9hv6F6XvAVAAAAAABDjNAaILQGMNzs9EYE1sDgsyOunx++BAAAANAJoTVAaA0AAOpn/4LpFtVk8BUAAACAXITWAKE1gOFkA7A3q5jDGhgeL1G9TUVwDQAAAHRAaA0QWgMYPjawvkHFlCBjRjdqL9EN2/+j5TbdvPFwPwAAAAAjidAaILQGMHwIrMeUbtZ+VzdrK1o+q5u3i9xqDJ+zVFep+IsHAAAAwIPQGiC0BgAMCd2s/ZENre2Nm5aXasn0MMPratVrVHwPAQAAgAxCa4DQGsBwYA5rDFpobedm/hWqp/qUan9mHUWNan2Hiv+HAQCAQgitAUJrAIOPOawRGKDQ+qpLLrnk79/97neb6667juqh3v72t3vXU9Qo1Zve9CZz4YUXHtSfHevCP0IAAAA6I7QGCK0BDD4CawQGKbR+7Wtfe/y5554zANDNf/kv/8W86EUvIrQGAIws3Zu/WPUjqvVuFXqkviS0xtgjtAYADAVCawDDiNAaADDKdF9+seqv7X267td/S/foZ7tN6IH6k9AaY4/QGsAgOku1RcX8n4gRWgMYRoTWAIBRpvvyTaqTLlz9rJZ2ekf0yP6+o3rS9euntDzfbQLGBqE1gEFjA2s7JQj/U0YKoTWAYURoDQAYZbovJ7Suifrzw6q/Vf/+rIopMzF2jqheHb4EgIFwnYrAGm0IrQEMI0JrAMAo0305oTWAWnxa9frwJQAAg4vQGsAwIrQGAIwyQmsAdSG0BjAImMMaXRFaAxhGhNYAgFFGaA2gLoTWANYac1ijEEJrAMOI0BoAMMoIrQHUhdAawFpjDmsUQmgNYBgRWgMARhmhNYC6EFoDAIYCoTWAYURoDQAYZYTWAOpCaA1gLdgpQXapmMMahRFaAxhGhNYAgFFGaA2gLoTWAPrNBta/ofr24CugIEJrAMOI0BoAMMoIrQHUhdAaQL/tUxFYozRCawDDiNAaADDKCK0B1IXQGgAwFAitAQwjQmsAwCgjtAZQF0JrAP3CHNboCaE1gGFEaA0AGGWE1gDqQmgNoB+uUzElCHpCaA1gGBFaAwBGGaE1gLoQWlfsggsueKfqCEVRYT3/+c//63PPPffzvm1Ufl144YVv0B8pjExPILQGMIwIrQEAo4zQuj7qz99TPa3+fZvqeW41MDYIrSt2wQUXPHLrrbeaT3/60xRFUauqd77zneb888//mP5IaYZ/ssDSDds9ulmLQutvdavXAqE1gMIIrQEAo0z35YTWNVA/Xq5+Pe769T69vsBtAsYGoXXFbGj9qU99yv2aAgDlfeQjHzEXXnghoXWGbtRmdcP2Z6q9unlby74htAZQGKE1AGCUEVrXQ306rzpBaI1x9nGV/SfoqAihNYBeEVoPPEJrAIURWgMARhmhdT0IrYFG48OqreFLVIHQGkCvCK0HHqE1gMIIrQEAo4zQuh6E1gChdeUIrQH0itB64BFaAyiM0BoAMMoIretBaA0QWleO0BpArwitB15PofWxY8fM4cOHzdLSE+aJlRWz4tajjGPqx2Wzov7rLrvvMfOBt77FLN7zmDl9pkzvr/a4eh07dq8+T0vh50nXxedp8BBaAwBGGaF1PQitAULryhFaA+gVofXAW0Vofcwcfv+1ZvNk00zoxlNttGpuh3nfY6fNAOWgA+/YB64y01MTprH9E+brz51xa33uNW9dN20mG3Pmls9/w5xWH9tj10011ffbzSe+9pzpdHTSao+rxzFz7wfeYl43NWn0h0Tq87RRffIF9Qkfp8FBaA0AGGUrjcb6M43G/9TytOpndUNyltuEHqgvCa0x9gitK0ZoDaBXhNYDr2Rofcy8/3VTZnLChopzZm7HPnPPPYfM0tJ+c+3mzaY5MaH1O8wffOP0GASNx8wHrppWX8yZ930hDJFX5dgHzFXTU2bCBshf7xAg3/tWs2560jTmbjGfj/pXx771dZvNpn13m2+cLhE95x5n39M6M9XcGAfjtdP7Wm/f18aNZvu+PzD3HFoy+699nZmatKG6PmfbP2G+1jHMRz8RWgMAxoFuQs5VTbgv0SNCa4DQunKE1gB6RWg98EqF1sfeb8NEF0w/etq0zWhx7LB5y5XXmnueI7QuLmxnaqJhtn/i6yYvn733revM9GTnfXq3BqH1sQ+YDxx+vG2akmMfeP0AjQZHhNAaAACURWgNEFpXjtAaQK8IrQde8dD62PuDKRwmGnPmfY8+t4opQI6ZY4cPm8NLS2bpiSfy53A+dswk0/Bj994bHPPEmW7TRKj9e237OfMhJ9vV63t1LU88oTa9jUZt6bw5+9j5l8NR5+qPP3jUPP7Eslle1nnbT9y9ra5ThERTg3hGY+u9HFOj3reRPHe2/zzHhe9pOgytP9HpPVmttu3384x/p+A8cQNd+z3h2AfM69dNmWbDBuhf70+Ajq4IrQEAQFmE1gChdeUIrQH0itB64BUOreNR1nPvM4+Wmmf4mDn8livNVNOO0G7NV2xrbscfmMdOJ9qywfj0pJl/3xfMY4euNVdOpefNtvs/1zYNhp2yxI54zrat64zaTrT76OLrzHQwWtzut8P8QSoEPmY+8NbXmcnstc7ZkeWtoN6Oep5qJrYnascfRCOhw7ba3nemrUC3KUKiqUGyobY9zga7bVNoHNMh9n26KTZc2Tmig++d57h737o+GMmd3D+q7Z/4WmJ0t79tW3H7bs8oeJ6/5fPmC4vRPNp23wKjpwmtBxKhNQAAKIvQGiC0rhyhNYBeEVoPvMKh9eG32BG4DTP3vkfNc4WHWSfmwLYPabz78WD0rn2Q45XRgxx3/EFrXuUoXJ6bMxMTE0HwfLedM3t/a/8df/AN08qtW4F1sO9jj5snlg+b97/lyiB4tgFysG+2XV3LvrtvNbuuXTSPxVOZRNN9hOH4o489YZaXl83y+99iXhecOxFwH7vX3Ht4v7n2yknTnJgzO953dzAX81I8ork15UdbW0EQ7wnLO0wRkjs1SE5oHT1oMQiRo3Mf1rmvvNU8aufD9h0Xvyd9v5obzfZbsu8p2MlNH6Lv28bt5pa7H3Pfz7eYK6MHKabadKH1xo2m2dT16Jh9f5Dt9xzxXNe3mM9/fRymmxkOhNYAAKAsQmuA0LpyhNYAekVoPfAKhtat8DkIjYsmiIffYqbt6Frf6GwXJAfTjXzBjTyO19lw/AvpcPxe11Yi5Lajv4NR01r39VaSHTp2rzm24s6ZaNe7r2VHM7v2s1N0BNN36Dz2mr4Rv/ko5PbMad2trSm1dUuyLckbTd1xahBfaB0Fyx1GM+eE3a1jc+a0TgbJ2YdtRm0GI6PdsS60bguzu9J1vD4Mxzfe8nl9v7IXgrVCaA0AAMoitAYIrStHaA2gV4TW+XTTdol7uZZqDa2j0dl5x9wbj952AXUULieC6Vi0be595gvPhWH0vW8Jg814RHUez7FZ0ZQfrek9Emwg666rFSjnh9bd25rKtGXlhNO5YbbkhM/RVB/bP/H5dPAfyTkufE/5oXWr3eR0IS3Rdhs0B4F8FFqXHS2dDMcZZT1QCK0BAEBZhNYAoXXlCK0B9IrQ2k83alerTuum7X7dvE261WuhxtA6Oib/wY3RSOlCobW517xleso04+A5mhokMVI7T6Jd7yjrOIC203nsMDsXFsxCqjaZpp2b2p47HmGcF1oXbeuWRFsh3zQguVODWHnhc7RevxjYKTnufvQx9U/iTKsKrTsH2lY8LUk2tG47TwfRMcxlPZAIrQEAQFmE1gChdeUIrQH0itDaTzdr9+hmbcXeuGl5qZYTblO/1Tin9eEwZLbzN2enknCS03sEIXWp0FpfB+GmnR/6tH8ajEiJ0LoxN2fm5ufNvK923m2+EYev3UPr4m05baOqO0wNYuWGz3JMx9pQX98zfZ/DOagffS68zlWF1mpvvbuWnGlHotA6ngqkbGhtrzl4v/mjubG2CK0BAEBZhNYAoXXlCK0B9IrQ2k83a380bKG1DZinbMA855mf2msYR1pnA+hOuoXWc+aWwm1FMiF1p6lBrE6hdeTYMXPvW2w/N/Uxc2H08mpC607bQr2NtI5CceaxHmSE1gAAoCxCa6DR2KP65fAlqkBoDaBXhNZ+wxhaB8Hv1GT44MScEDqr6JzWwXabaa4qtA7njvZm0ZGuobVa7zQPtVd+0F2+rZZoOhD7oMa7d9nXc7khcaHQ2knNR/3EakLrTBue07VtLxxa32ve+nr1pfqMwHqwEVoDAICyCK2BRuNXXKEihNYAekVo7TeUobVEIXQjJ7g+dvj95trNm82tj7lth99ipu10Eb7R2dE2N31IEGmWCq3t7m56kcS6yLH3v8W8/5DaDcLT7qG1saOa3bVm55rOkxtOx221z1vdVTS6em672T4xaSbVxufz2sgJrY8dMyY5hbUVjYLuHFrb03cIpnVt8QMSs9cUbUtOH1IotD5mPvD6sB8JrAcfoTUAACiL0BogtK4coTWAXhFa+w1raG0DxuiBjDrW2Dmbd+zcGTxgcFOzafQmtD45h3Vif7vvvrvNPYeWzP5rrzST9mGE2j8eZR3sXi60DtbZUDS6Ftv+4n5z7eZJ00yOwC4SWscjp9PXurS0X9e72WzW9e7MhNM2CA5D8x3mfXffYxavvdYsPmbnjQ7bmirRVktrXmfbP3PRVBs+3tA6nGZj08btZp+u6dCSzrv/SvcXBC5Q7jBCO56X2s6BnXpPwVY3ElvXtnGj2Z74fk4F049kwu4CoXUUkgefJ7W50Tv/t75vOcejvwitAQCjTvfmN+le/YHnGo3v1w3KtFuNHqhPCa0x9gitK0ZoDaBXhNZ+wxtaW8fM4fdfazZPRiF1q+Z2/IF57PGVzChf7f+WK82UC6njskHvY6fTo7VLh9bWMfP+t7wuDsHDmjM73veoOR01Xii0to6Ze9/6uvZrVc3tsKPFsyOeE0G3O29rqpBObd3iaaslCMOn7HEdpgaxcsLne99qw/QwRI5r43bziWh0fIfQOnxPLpgOjs1OFRK+L1/78YMeI2VD67yyI7u/nt9f6B9CawDAKNN9+XepntINiA1Xl7Q8121CD9SnhNYYe4TWFSO0BtArQmu/4Q6tk46ZY8eWzfJyNqj2O3bsmPbV/tq5+gCy3LV0pWs9Zq+1UHvhuVfydizVVoWi866qv7u8J6n3+4lBRGgNABhlui/fpDrpwtXPanme24QeqE8vVn9+yf7+o+XH6VeMI0LrihFaA+gVobXf6ITWAMYJoTUAYJTpvpzQuibqy8vVtz+t5UtV/G6IsUNoXbFeQms78mrJzqO5tGyW3Tqshh2ZV7QHk/sum/27dpnFQ0+sYvRbL8fWKxjR515jOBBa+xFaAxhGhNYAgFFGaA2gLoTWFSsfWi+bpcUFMx/8JVqm5hfMrU/wj4fLWt6/yUzYuVJ3HkrP+9pmyexqTpiJxnzQz8uL7rjGTnOo84Ft4nOu4tjaLO83uzbZ92f74h71BZ+lYUFo7UdoDWAYEVoDAEYZoTWAuhBaV6xcaL1sFjdFD5uaN/MLi26k9aJZmJ936xfMobEIG5fN/iBgDQPknt7x8n6zacL2a5cAeWmXadr95m81T9g+DkLeTWb+1kPl50/NPda+L/vgNb0v+6A1t7Zey+bwrk16b/bz44rQeqgQWvsRWgMYRoTWAIBRRmgNoC6E1hUrE1oHI3ujYNo3onp5yezatGCWCK1LitpqmJ2HzuS2tbSrGYyO7rRP7/odWut8m+35GmZ+5z3miUO7TLM5QWg9ZAit/QitAQwjQmsAwCgjtAZQF0LrihUOrZcXzaZgJOy8WVz1FCDLZjkYma3qNIdzZlt0TOd5jqO2O8yHnGxXr4M283dundezz/LyUjDqPAh3Dz2hr7X/Ktuyuk8REk0NkhmNbc/rXrZLnNetSfEcu7x8uBXG6309kfu+tP5w2Lb9XuZ+IpIH6/XhoA+Se+t8uxbNUhT8Hya0HkaE1n6E1gCGEaE1AGCUEVoDqAuhdcWKhtbxKOv5RVM+s142S7uiUdrpml84lG4vCMcnzPytT5gnlna5oDy9f3Y6izA8zu7nptCIuCk4gnbjuaBtZaczWTb77bVmztuY3xmPLl/apfNlt7vaeSg5Orl7W7FuU4REU4MkQ+3omLag2/V3tu+0X3xaz7GH3Uju5DFRBaO7g/3CqTx8+4XtJy5E59jctH3+eNDnrek/wveYuuQIofVQIrT2I7QGMIwIrQEAo4zQGkBdCK0rVjS0DoJaG0wuPlFyyohEqGwf1GhHQi+7hzlGIWYyiI5CazdHtg2fD9nRvNo/CrAX4mC41Xaw3xO27SWz6ALy1n4ShdZRu7qWxUOLZmHBhvDxyeNpOoIANmhPtWjDcxco2311jmAebzcieeeth8IRx6kRzQXbirX2903/4Z0aJCe0jkZtp85r/wJgU+K9+o5dPmwO632FD0MM31fQ9/Z9BcfZawyn8rDBezQSe2l/9J60PmivdY4gtI773B6jftuV7PMMQuuhRGjtR2gNYBgRWgMARhmhNYC6EFpXrFho3XoAYyoILmJpVzgqN3h4oFsXcQG1nXLEzgudXtcIRkWnDonaciF3MPo78XXKcmZKjCikVbve/a2gfRuYtm+Pg2B7TcG2KGTOmdO6VFuOjmkbTR3ImxrEF1pH15UzYjuSE3iHx+fMaW0DZXuMvpePt7+pIKAOvpePu2A9XpcJszshtB5KhNZ+hNYAhhGhNQBglBFaA6gLoXXF6g6toxHaecfFI7ijgDoKrb1BtNvmAvBubadEIW1wrH/vaNqP9BQfTiLkDQ/vHFqXayuSE07nhdmJdtK7R6OyO4yKzzk2fF/+0DqaPqQ1VUhatN1OBxK0qXMEobUNudMnyUdoPZQIrf0IrQEMI0JrAMAoI7QGUJdrVb8ZvkQV6g2to+k7wmDXJxotXSi0tqGu3RYEz93bTolC2rxR1nEIrWvZudMsLCxkaj64zlbo3Sm0LttWi28aEO/UIFZe8Bytt+cP5s9+wm1IKB1a54fZkeX9m4N5q9tC6+AcviM8CK2HEqG1H6E1gGFEaA0AGGWE1gDqslX14fAlqlDvnNYuZG572GFL2xQfhUPr7m2nlAitG/PzwTzM3oqPLxZaF2sroW1Udc7oays3eJZlHRddQ3AdO9PXWTq0Ppy6juzprCi0jkNqQuuxQWjtR2gNYBgRWgMARhmhNYC6EFpXrGhoHYTLQfhpH6LnVnY1jCOtfSG0T5HQumhbSZmQOneea+kUWkfsgxLtgyltmJy8ntKhdd76FkZajy9Caz9CawDDiNAaADDKCK3ro768XH3701q+VMXvhhg7hNYVKxpah2FyGHwuFgmJnW7zTrdtLx1al5zTOje0dtei9+idh7pN52C6XFtp0XQgNsg/tGDbyQm/i4TWTtsUI6VDa5snJ9rwnK9tO6H12CC09iO0BjCMCK0BAKOM0Loe6tP16s+/tL//aHm7+vVctwkYG4TWFSscWksUMOcF18tLi2ZhPrNtaVcQZIZBs1sXibYlp/goHFrbXd0IYk/by/t3mcWlROhaILQOrydqP2+nlo7BdMm2UqLR1fM7zc6GzpHXRk7wvLzsXiQs7w/7qnto3SGctoGye0+PZ68n2pacPoTQemwQWvvpZu19umk7o6W9KT7brV4LhNYACiO0BgCMMkLreqhP51UnXL/ep9cXuE3A2CC0rliZ0NqYcHSzDgtrfj5+uOB8tK5tjunWiOhg/8Uls7S0ZBbtwwjdMamR0iVC6/jruO1DZmnRBufhunS7BULrePR02N5O256udWlpMbje+Yl0m1EQHMwXfci+p4UgsA+3Z9q6NdnWJl1LpxHi0RQhYf8EU6f4dvQGz+Gx9gGMtx5y54zC/eS82B1Ca/u+grmpXRuLu3a59xWNwm69p0P2exlPP5IJuguG1of37zK7oodUqt24/Widvg8rHY7H2iO09tMPxVmqBd2w/RMt9dFeM4TWAAojtAYAjDLdmxNa10B9SmiNsUdoXbFyobW1bJYWkyF1q+yDBZ/wjPINjrHBZvaY+YVg2ouUUqG1tRyGpqm2581CNugtFFpbyTmg0zW/MzviORFMB5WdxqNMW2lxIJ4z/UggJ3j2nnN+pzmU7OsOoXX4vlw4HVRyqpBlczin/bbrLBRa61ybk+fylB3Z3X6RGCCE1gOP0BpAYYTWAIBRRmhdD0JrgNC6cuVD66Rls7xsy31ZQLi/yn1dnfLX0lV0rV3bDPfrqHBbFYrO6b4sr/P7Ct9PL+1jVBBaDzxCawCFEVoDAEYZoXU9CK0BQuvK9RZaAwCh9RAgtAZQGKE1AGCUEVrXg9AaILSuHKE1gF4RWg88QmsAhRFaAwBG2Uqj8fJEuHpQr1/oNqEH6kdCa4w9QuuKEVoD6BWh9cAjtAZQGKE1AGDUrTQa//JMo/GhrzcarzSNxqRbjR4QWgOE1pUjtAbQK0Lrgff9l1xyydfe/e53m+uuu46iKKpjvelNbzK6P/yk/uxYH/4RAgAA0BmhNUBoXTlCawC9IrQeeN9/9tlnf23Tpk1m8+bNFEVRHeuyyy4z55xzDqE1AAAojNAaILSuHKE1gF4RWg+8q1796lcff+qpp8wzzzxDURTVsT70oQ8xPQgAACiF0BogtK4coTWAXhFaDzxCa4qiChehNQAAKIvQGmg0/pnqcPgSVSC0BtArQuuBR2hNUVThIrQGAABlEVoDjcbrVZ8OX6IKhNYAekVoPfAIrSmKKlyE1gAAoCxCa4DQunKE1gB6RWjtpxu2S3TD9h91w/ZGvZ5wq9cCoTVFUYWL0BoAAJRFaA0QWleO0BpArwit/XSz9tu6WTuj5bO6ebvIrV4LhNYURRUuQmsAAFAWoTVAaF05QmsAvSK09tPN2h/pZm3F3rhpeekajrYmtKYoqnARWgMAgLIIrQFC68oRWgPoFaG1H6E1RVHDWITWAACgLEJrgNC6coTWAHpFaO1HaE1R1DAWoTUAACiL0BogtK4coTWAXhFa+xFaUxQ1jEVoDQAYdbo3f7HqR1Tr3Sr0SH1JaI2xR2hdMUJrAL0itPYjtO61jpqb5qfM5Mxu88BTp8zT3n2SZfefLrE/1XsdNTdvWmemZq43nztxkj5Plfpm83ozt/t+c/zk057tvjpqbtEx01t/z/zdiVOe7f0pQmsAwCjTPfm5uk//a3ufruV+LV/gNqEH6kdCa4w9QuuKEVoD6BWhtR+hdbqO3jRvpiZnzO4HnzKnnvbsc/QmMz81aWZ2P2ieOmVDvj6E1vac05NG3xh9e8LasPsBd37P/mNWR2/eZNZNNeO+adUV5vrPnTAnnx6/0PrgwllmelJ9cPVtnYPlgwvmrHWz5vr7j6ufPNvzyh33Xh33VJnjKixCawDAKNN9+SbVSd3Q2HD1s1qe5zahB+rHy9Wvx12/ElpjLBFaV4zQGkCvCK39CK0z1RZKp7d3DbVXUwd3mHVTs2b3A+1t2vNNT06YLbcfNydPRevD4HvjDSMQXB/cadZNz7pw2bO9QIWh9UyHNkYstLaBcdBneUHzQbNw1rSZveIK02xuNbf93Qlzqm2fsGy4vW7bakZM23OsM7Pvvd8cf2ptPoOE1gCAUab7ckLrmqg/f0/1tPr3barnudXA2CC0rhihNYBeEVr7jWdofcDsmJ4ys95gujVy+sG2kdCdtvVQeaG1G2G9NRVYj1gRWpevbqF1sH2bue3+PWZ+/ZTZetvfmRPez48Lnq8vMzVIq4LAe/a95v7jT61JnxJaAwBGme7LCa0B1ILQumKE1gB6RWjtR2idN5rajm7OhKDeUdh504O4aUAmoqkqtpjbT5w0p6L1wf4PZ/ZxteV2c/zkKXNwxzoz1dRxx+1xUbsd6ujNbdOIpEdot8oGvdMbbzAPnLjL7Fg3ZfRDEexvpx05kQ0wbbCcnH7DXp/ea9DG5FZz+wN7zJz60553w/WZ44NjJ1vHXn1bcGwYJE+bqex7j7cnjtd7Sm5/Mrld1VNorfbXd2n/4M71ZnpWxz6418wn+urq257U58Btt1NxaN0V13+uPQAucI6jN2826+Z2m88d1/djvT4Tbt90e3ofm+1nwrWTaK81Utrus95MbbXrHkm8Tp8vqA5TgwSBtHtPwXV4RlQfvWWz3tfMmk0RQmgNABhlhNYA6kJoXTFCawC9IrT2I7TOBIyJ7c0tt6cCWP/UIL7Q2gXTW+3xLiw8uMNMb79TXz+SCK3d/t6R1gfDMNkF2NE15FbQRjOc6zq6ZrfOBtc2XE3uHwbOE/p221Bc502sS+3vAuvkuoM715ntdx43D90YtbHBXP+AJzB2gfXV0bFHbzab1K8zyWA7CKVzRloH23T8bYnj1Scz138u/X1ZbWjtwuQofM5rvxVKX21uezLsq2RQHR+fbS/nHJvdOZLhdhBaB38x0DpHtM4emxop3WmktW0/MbratrHe9o0nmA63bTW/l5k+xAbW83sSo6+DcFvv4fcyI7bz1vepCK0BAKOM0BpAXQitK/bCF77wr17+8pefefWrX32aoihqNfWSl7xk5bzzzrN/NhNaJxBat4LDZB3YMR2Oco5DzlY4nZ4axBdaH3Tt++acTo607h5a+9vI1lFzswvJswF3MFp7VufKjDAOA+oZnTMZ9B40O905w9DWhr2uXV1rdGy6jQn/6Gx37FTm2OCYqa3mNheU54fWLmjemh55HQbUOt4Fu6117Q9itKOUW+8jG1q32k+Oeva1HwbUrTA52NeF0emR0Oo/O0o6Hkmtc9iR0W3nsGF09j3YdTZ4T4bLYXuzmYC7U2gdBdHxPNYuxJ7xTAESjqa+ui20bq9wGpHJqzNzXx+9RW1Pm5k1mtea0BoAMMoIrQHU5RWqR8OXqMK55577ZwsLC2bv3r0URVGrqp/8yZ80+rPkE/ojhdA6YWxC6wM7zLQn2IxrQyaMdvvHU4TkPqCxw0jriXC6jfb9Kw6t3dzXM3bfTDB59Gb7IMdsOB2Gs8HUHlF4HFQYNMchtR157NptD6WjNtrbDio4diqYjzsedWwrCqmjY/JCa3u83v/WaJR14vj1mf3DoLnkSOu4/cSoaFue9r2htQ2D247PhNTefVTxOVqhsy/ITraXCotzQ2u7//rgfd5/PArnw4cyTl6RXBdWOCd1+/r2OmpuUbvTWwmtAQDoF0JrAHV5qeqL4UtUwU4PcujQIe8vLRRFUUXqt37rt5gexIOR1nlhW3qKkHBqkK1uXurkfr7QOqyDwWjtKBj3zWndPbQuND1Ipwc2xm2nA90yoXVb8OyqSGht57kO33+yEtOJdAmtc4+vKLSO5qdO1xWptnoNrfPPUXFobc/nGVUdjqjW+TJThOSH1i78bps7m9AaAIB+IbQGUBdC64oRWlMU1WsRWgc3v29WXaeb3l+JSjfBf651hNaeak0R8rC50QbTWxNzVMeVH1rH5ULliSC4tm0VCa094XZeDdNI62yVHWntqV5C67ZR0J6qfKS1p6oIrcOpQfL/NcEV3jA7Oz2IC6xTo7UZaQ0AQL/pvpzQGkAtCK0rRmhNUVSvNe6htW56X6U6bW9884rQOlPRFCG7d5vZSTvi+ET7SOZnCoTWtg7atmww/ZDZO1cktI7Whw9BbD9vso6uck7rLqG1nVPZjhS2o72Dr1vHt9rICa3dsbPJhy76Ki+0Do4P53PueLxqVaG1bd/NF92t/VWH1olzZOeTzlbvobXdNxs2d94WhtyZBzHa99U2WjsntLbXwYMYAQCoBaE1gLoQWleM0JqiqF6L0Lpxmeq5KKDOlm6Gv6zl2W73tTB4oXU0RYj6pzW9R3YfT2htA+q5PYkQOzlq+uH2EdTJkdKZ6wlC52ajLbi26+f2tPYPR1RPpPZLrsuO9C0WWkf7pds4uDM894N7/aO4owqOnZowVyfPb0Nq2zfJEc/q4xlPeByG0To+Odrazget41vhc7Rf2dA6Oq6p9hPBs6f91YfW9hw2jPacY17nyATIhUNrd27bZ3GwHATZkzqPP0CORmGnAuYgdJ7NTBvS/tDFcES2fgYy04McvUVtTs+Y9+r4p7z9Xm8RWgMARhmhNYC6EFpXjNCaoqhei+lB4uA6NT2Iq19WvUy1VqOsrT6G1sUrnCKkYRrB3NaJ4DAu/0hrOwe2DXv1vsLaEG33T/uR2j87j7UbcR23pWp/wKNvvw3B6O3cQLlAaN3aN/Fe3MjrcH1+aB2UDamnJlvHbrjeO+rbhtPB9qtvS4/qtsdPp49PBsqt4/3TYoRhsT+0jtpfn2z/ivZ9egmtg/KdIzMaulRoHe/v3rP67LZt0+E1pqb6SJQbQd1MBs9uXXYO7Hhfd712WpHbr1lv1m1Lh9bhnNjvNffrM5Tq0z4VoTUAYJQRWgOoC6F1xQitKYrqtQitB95AhtYUNbplQ/G8KUW6VTgie3aN5rO2RWgNABhlhNYA6kJoXTFCa4qiei1C64FHaE1R/S7vFCEFyh23VlOD2CK0BgCMMkJrAHUhtK4YoTVFUb0WofXAI7SmqL5XONp6bndmipCOlfNgxj4XoTUAYJQRWtdH/flh1d+qf39W9Ty3GhgbhNYVI7SmKKrXIrQeeITWFEUVLkJrAMAoI7Suh/r0UtWTrl8/peX5bhMwNgitK0ZoTVFUr0VoPfAIrSmKKlyE1gCAUUZoXQ/16bzqhOvX+/T6ArcJGBuE1hUb3tD6iNk7O2EmZvaYR7rO+XjE3BjvuzYPNRrPsv3eDPr9Yfo9UeqXjU0zu+dhc6rUfKXhcRPb7tRxg9WfhNYDj9CaoqjCRWgNABhlhNb1ILQGCK0rNyih9ZG9s2ZiYsbseSQnjDuy18xOTJiZPY+4p/D3IbQ+cmNwTnVTXMH51+jBSINWR26cNc2JVt+0St/Hh5/W92m8QusD1zTD/tjaJVQ+cI1pNm0fnXKf5RLVy7E1FqH1wCO0piiqcBFaAwBGGaF1PQitAULryg3MSOu2UDpdXUPt1dTHronbzJ7TBrITEw2z9a7ktjD8ntk75MG13ncz532XqTC0tgFqXjsjFFp3DYsPmGuaTTOzYYM+N9vMnafy+zYIt1c9Wtqdp/Qo7XqL0HrgEVpTFFW4CK0BAKOM0LoehNYAoXXl+htaf8xckxtMdxo5XWZUdYnKC63dCOttqcB6hIrQunx1C62D7dvMnQ/vNbNNfXbu1H7ez2rvoXMQets+PTU4fUpoPfAIrSmKKlyE1gCAUUZoXQ9Ca6DROEv1bPgSVRic0DoaTd1oD4u9o7B9QbabBkR/SOqtqbaZu4Kw1K0P9k18He/nautdQdD4sWu0bWKrOzZqO6c8U4ikR2e3Khi9PbNX1xD2Q3R+75QjQbCcaFfXFoWc4ShwvbdHwn5payP32Pz3nQpQbQDbdnx7X6w6tC7Yvg1ng2Pt+2y29t96VxgIB9vd9CRtIXAQIifP4R/ZfOTGjaY5awNgfU+aas/tvyFuT+/BziOdnQYl1Z7bJxg9nXzdfr5O4Xc8vUjbNaQruOag3/NGffe/CK0HHqE1RVGFi9AaADDKVhqN9WcajYe1PK16h+p5bhN6oH4ktAbEBjqoyCCF1tH2xrYwPI7W+6cGyYbWLpBNHmtHUm/7mL522+LQOrG9bcSxC5S3pq/BW8Hx7v0kz6l1vuA6DJvt57cViEfrUvu70DkIZ926j13TNNs+Fn7daid77Z5jXajeHmp7jrXlAuUoGA6Ob9rjH27rj1WF1h3azwa0rVBa/eWm20gG1XEbUZvR6GYXWMdf6xwbc84RBsDhOaIpPcJ1iePtvh3C5qj9aHR1p1A53NY+fYh9X7N7E9eXfQ+JfTtuW6MitB54hNYURRUuQmsAwDhYaTRerF8EJ92X6BGhNRCygRUqMlihtRvlHI+QtuvypgbJrk+03RbklQ+t/e0kyxOSuwreQ/ZcqjBs7na+Vru+Uba2otC6/Rr9x4b7q0+j6SRyQ2sXMgfHt649DKfD45P7h+vDADlZrYDbtReH1uXaDwPqVmAdrHcBdTqAtlNu6H0Ho591Ds9I57yw2B8we6bw6BBat7XdISQPR1O3AvLktnSF1xC+p9b7CKpD+2tVhNbBTdovqX5jQG/OhjS0Pmpump8ykzO7zQNPtf/stZfdf7rE/lTvddTcvGmdmZq53nzuxEn6PC71y+b1Zm73/eb4yfDP8KM3bzbrp7aa3/u7E+ZU2/5RHTW36Ljprb9n/u7EKc/2/hShNQAAKEu/BxFaA2KDMVSk9tA6CIbbg824smG02z+eIiT3AY05I63VZm6YW2VobUcI5+wXhsTtoXAcHqdCSHdtUdDcod2o8tqPjt2WGKEdVDakzgut7fFNd3zy3EFQrP0zI6rDsLl9fatcSB2F1l3bT1+3N7RWG8Go5lQbiaD6kb2pUc9RW3mhsz/MTrQXfa9yQ2u3r32PaiNc5wLnDcl1YQWhdWrfvPJcQ1SuDwitB4duyH5QdVp/qNkbtBu1HLR+GIjQ+uhN82ZqcsbsfvAp/2f36E1mfmrSzOx+0DwV/Iz0IbS255yeTE2btGH3A+78nv3HrI7evMmsm2rGfdOqK8z1nzthTj49HqF1GDi398PVt/2dOXHKc8zBBXPWullz/f3H1UfhumKhtcod+14d+9Qa/RlPaA0AAMoitAZC9hcFVGTQRlpH+0RThIRTg2SDXlv+EdjhSO3oF8roOBuelgutu04PEgfEnsDW22650LoteE5Ut9A6fO/ZSuzfJbTOPb6i0Dq//fR77iW0LnqOnkNrdz3ZADkcUb3B+578obU7Z/YveBhpPRR0Q3Z1IrT+qJaD9s8MB2OkdVsond7eNdReTR3cYdZNzZrdD7S3ac83PTlhttx+3JyMg8cw+N54wwgE1wd3mnXTsy5c9mwvUGFoPdOhjRELrW1gHPRZK2y2FQbO6oe2ELpprv699uD64MJZZt229GjpwqH1MwfNwlnrzOx77zfHn1qbzyChNQAAKIvQGgjZMAcVGbzQOjlFiAumXYCd3i9v2hBXNiANAlzbziOJfRO/AHrDZRciZ/fNlmt/KEZaZ6vsSOucWm1oXbT9Skda51SvoXV4fF5I3v4wxTDMzk4P4s6XCrM91xCV6wNC68FBaJ2sA2bH9JSZ9QbTrZHTD7aNhO60rYfKC63dCOutqcB6xIrQunyVCK2fOXqz2bx+ysxc35oCJCwXOmfWFw+tXeg9+15z//Gn1qRPCa0BAEBZhNZAyIZBqMgghtZhmNww2/bsMTNBCOsLRbuE1rbiULpMaB2tnzC+hym2ygayYdicDUc7z2ndJbS2fdTU11ujr9srN7R2x3YKvIPKC63d3NA2DC0W+JYMrUu2v6rQ+mnbB5n5qDtUb6G12y8VNnfe5j2fN4T2XENUwbXwIMZBQmidrE6h9TNuNLUd3ZwJQb2jsPOmB3HTgMT/MmGLuf3ESXMqWh/s/3BmH1dbbjfHT54yB3esM1NNHXfcHhe126GO3tw2jUh6hHarbNA7vfEG88CJu8yOdVNGPxTB/nbakROpcFNlg+XktBP2+vRegzYmt5rbH9hj5tSf9rwbrs8cHxw72Tr26tuCY8MgedpMZd97vD1xvN5TcvuTye2qnkJrtb++S/sHd64307M69sG9Zj7RV1ff9qQ+B277ZLjuius/lwmHi53DhsXr5nabzx3X92O9PhNu33R7eh+b7WfCtZNoz46WLhVae6YGsdUKre80289a17oOz4jqo7do3+mZNZsihNAaAACURWgNhOxNPioykKG120+Xp8qGvFFlQmsbNM/uTQTFR8IwONie3DfRlh35G11P5pfCIHjWL/zZ4Nqun90b7h+Gx+l9fOuiKhZaJ9tohTQfu6aZOa8vdPYfG4TUyb7p8L7t8fbhisHx0TYbkur4MHjO7lsmtO7SfibgWl1o/bTOYYNhnSMZ6uaco3Bo7QuWu4TH0SjstutoC7/bH7oYjsjW598zPUjYbraNtS1Ca0LrVnUOraPtzS23pwJY/9QgvtDaBdNb7fEunDy4w0xvv1NfP5IIrd3+3pHWB8Mw2QXY0TXkVtBGM5zrOrpmt84G1zZcTe4fBs72/2E2FNd5E+tS+7vAOrnu4M51Zvudx81DN0ZtbDDXP+AJjF1gfXV07NGbzSb160wy2A5C6ZyR1sE2HX9b4nj1ycz1n0t/X1YbWrswOQqf89pvhdJXm9ueDPsqGVTHx2fbyznHZneO7Ajn8C8GWueI1tljU1N7lBhpbUdDT09e3TZyuhVO+9bb67ii1U4QcE+2B9duvW/qkX4UoTUAACiL0BoI2V9kUJH+htbFK56b2js1iK32kdZRYKu3FVYcUicD7MQvhdljsvNYuxHXcXuqtqC3bR9/mGwrPFf30Lq1b+u89trSoXb+ecKR1IlrKvC+k+cOgtXM8dnA2pZtIwhWo/0SFYbS7aF1UAXbX21oHaxzgXLqHJ4ArXBoHe/r2tx6p7lzm2+qj0S5a02G0d7wO7mvu147rchdtn3PSOsg0M55P2tVhNaE1q3qFlrrM7xjOhzlHIecrXA6PTWIL7Q+6Nr3zTmdHGndPbT2t5Gto+ZmF5JnA+5gtPaszpUZYRwG1DM6ZzLoPWh2unOGoW04GjpoV9caHZtuY8I/OtsdO5U5Njhmaqu5zQXl+aG1C5q3pkdehwG1jnfBbmtd+wMI7Sjl1vvIhtat9pOjnn3thwF1K0wO9nVhdHoktPrPjpKOR1LrHHZkdNs5bBidfQ92nQ3ek0F02N5sJuDuHFq390M0Ejs+XhVM7ZEbZrfPge2dCuToLWazrm9mjea1JrQGAABlEVoDIfuLAioyqKE1RY1muUB81aFzOCq76PQn/SpC6zEPrQ/sMNO+QC+qDZkw2u0fTxGS+4DGDiOtJ8LpNtr3rzi0dnNfz9h9M+Hx0Zvtgxyz4bRdbwPnrfEo63B9GDTHIXUwMjpstz2UjtpobzsoN6razscdjzq2FYXU0TF5obUb9bw1GmWdOH59Zv8waC450jpuPzEq2panfW9o7UZMp4/PhNTefVTxOVqhsy/ITraXCp1LjLQOrmH9lGlenX7gYhhCX2/uP579y4ycEdi+qUAIrQEAwJAhtAZC9pdgVITQmqL6XN4pQgpWL8fWWITWjLRuVfeR1tkpQsKpQba6eamT+/lC67AOBqO1o2DcN6d199C60PQgnR7YGLedDnTLhNZtwbOrIqF1cn7tViWmE+kSWuceX1FoHc1Pna4rUm31Glrnn6MPoXXOekJrAAAwjgitgZD9pQQVIbSmqH5XONp6tvRoaf+0JYNQhNaE1q0qElonpwh52Nxog+mtiTmq48oPreNyofJEEFzbtoqE1p5wO6+GaaR1tsqOtPZUL6F12yhoT1U+0tpTdYbWvrmnO08PkhdaZ9YTWgMAgCFDaA2ECK0rRGhNUVSvRWhNaN2qYqF1PEXI7t1mdtKOOD7RPpI5CJe7hNa2Dtq2bDD9kNk7VyS0jtaHD0FsP2+yjq5yTusuobWb4zoY7R183Tq+1UZOaO2OnU0+dNFXeaF1cHw4n3PH41WrCq1t+26+6G7trzq0TpwjNSe1p+oMrX3rc8PpnDa8c1p7wvB+FqE1AAAoi9AaCBFaV4jQmqKoXovQmtC6VQVD62iKkOD/6dH0Htl9PKG1Dajn9iRC7OSo6YfbR1AnR0pnricInZuNtuDarp/b09o/HFE9kdovuS470rdYaB3tl27j4M7w3A/u9Y/ijio4dmrCXJ08vw2pbd8kRzyrj2c84XEYRuv45GhrOx+0jm+Fz9F+ZUPr6Lim2k8Ez572Vx9a23PYMNpzjnmdIzE1R7hfwdDandv2WTIM9wbOdl/PnNZh4DybE3Dbud+vaG3LCae9U4b0sQitAQCjTvfs71Xd81yj8b36n/O0W40eEFoDIf0MoCqE1hRF9VqE1oTWq6lwihD9Pz2Y2zoR+sXlH2lt58C2Ya/eV1gbou3+aT9S+2fnsXYjruO2VO0PePTttyEYvZ0bKBcIrVv7Jt6LG3kdrs8PrYOyIfXUZOvYDdd7R33bcDrYfvVt6VHd9vjp9PHJQLl1vP8hm2FY7A+to/bXJ9u/on2fXkLroHzn8MwlXTi0jvd371l9Zre3Amd3HldXXH9/+0hvF2bPZLYFbcztNvc/sNdssmG3a8M3mto7+rqPRWgNABhlum9/eSJcPajXL3Sb0AP1I6E1IF9WXRK+RK8IrSmK6rUIrQmtKYqKygbi64MgP/swxmJ10Cyctc7MrtF81rYIrQEAo0z37ZtUJ929+2e1PM9tQg/UpxerP7+k5YqWH6dfMa6+qHpp+BK9IrSmKKrXIrQmtKYoKlE5U4QUKnfsWk0NYovQGgAwynTfTmhdE/WrHW39dtW3q1/H8ndDgNC6QoTWFEX1WoTWhNYURSUrHG09t9szfUjHOmpu0XHTWzPzZPe5CK0BAKNM9+2E1gBqQ2hdIUJriqJ6LUJrQmuKokanCK0BAKOM0BpAnQitKzS8ofURs3d2wkzM7DGPdP3ns0fMjfG+azM/5HiW7fdm0O8P0++u1Ccbm2Z2z8PmlPvcHrlxo2lObDN3nnq6y9yn4bET2+7UsYPVn4TWhNYURY1OEVoDAEYZoTWAOhFaV2hQQusje2fNxMSM2fNIThh3ZK+ZnZgwM3seccFeH0LrIzcG51Q3xRWcf43mmBy0OnLjrGlOtPqmVfo+PmwD2NEPrcPAOf0ZsbX1zlP+z8mBa0yzaftH29264qG1ynP8IBShNaE1RVGjU4TWAIBRRmgNoE6E1hUamJHWbaF0urqG2qupj10Tt5k9pw1kJyYaZutdyW1h+D2zd8iDa73vZs77LlNhaG0D1Lx2Rii0zgmLw8A5vT4Ksn3B9YFrmqaZGSldKrR+5oC5ptnUz0lrpPYgFKE1oTVFUaNThNYAgFFGaA2gToTWFepvaP0xc01uMN1p5HSZUdUlKi+0diOst6UC6xEqQuvyVSK0tp+fjU37Oc8Gy/7AuVxo7YJv26fa37d9LYrQmtCaoqjRKUJrAMAoI7QGUCdC6woNTmj9jBtN3WgPi72jsH1BtpsGRP/z0VtTbTN3BWGpWx/sm/g63s/V1ruCkbEfu0bbJra6Y6O2c8ozhUh6dHargtHbM3t1DWE/ROf3TjkSBMuJdnVtrTmQbT/pvT0S9ktbG7nH5r/vVLhqA9q249v7YtWhdcH2bTgbHGvfZ7O1/9a7whHMwXY3PUlbQByEzMlz+OeBDgLjWRsA63vSVHtu/w1xe3oPdh7p7DQorr1SoXXH4NuG1nflXEO6vOdc4yK0JrSmKGp0itAaADDKCK0B1InQukKDFFpH2xvbwvA4Wu+fGiQbWrtANnmsHUm97WP62m2LQ+vEdtdu63pcoLw1fQ3eCo537yd5Tq3zBddh2GwDyVYgHq1L7e9C5yCcdes+dk3TbPtY+HWrney1e451oXp7qO051pYLlKNgODjeBbDZ/lhVaN2h/WxA2wql1V9uFHIyqI7biNqMpuNwgXX8dV6IrAoD4PAc0UjncF3ieLtvx8A5vT4YCT3Rai+9b/uI6uh8jcaGVjvuPXiD6+z7S25boyK0brw5EVp/8E5Ca4qihrgIrQEAo4zQGkCdCK0rNFihtRvlHI+QtuvypgbJrk+03RbklQ+t/e0kyxOSuwreQ/ZcqjBs7na+Vru+Uba2otC6/Rr9x4b7q0+j6SRyQ2sXMgfHt649DKfD45P7h+vDADlZrYDbtReH1uXaDwPqVmAdrHcBdTqAttNu6H0Ho591DjsyuuC80b7Q2TuNR8fQOjGiOyrPyO7OYXZ7CB3sb/tO+0frguoQwq9VjXtorW/6Wbrh/V3V/9QN8Cv19YTbNCgum5yc/Act059TiqKonDr77LNv1nJaBQDASCG0BlAnQusK1R5aB8Gw/xeioOLQOb1/PEVI7gMac0Zaq83cMDcbJPcSWvtGMLsKQ+L2UDgOj1Nhpru2KGju0G5Uee1Hx25LjNAOKhtS54XW9vimOz557iAo1v6ZEdVh2Ny+vlUupI5C667tp6/bG1qrDRvYpttIBNWP7A23Z0chdwyds2F2or3oe9Xx+Mx6d41hiN76XueF0P5ryGnblmuf0BoAAAAAyiG0BlAnQusKDdpI62ifaIqQcGqQbNBryz8COxypHYXi0XHlQ+uu04PYADYIiD2BrbddG0IWD63bgudEdQutw/eercT+XULr3OMrCq3z20+/515C66LnqCW0zllPaA0AAAAAa4vQGkCdCK0rNHihdXKKEBdMuwA7vV/etCGu4gDXtvNIYt9uoXVOwJ0t1/5QjLTOVtmR1jm12tC6aPuVjrTOqbpC63D/9JQfQWidOz1IXmjdvj7qA0JrAAAAACiH0Lo+6tdLVdeoTy9R8bshxhKhdYUGMbQOw+SG2bZnj5kJQthMaBdUl9DaVhxKlwmto/UTxvcwxVa1wuZsONp5TusuobXto6a+3hp93V65obU7tlPgHVReaO3mhrZhaLHAt2RoXbL9VYXWT9s+yMxH3aHqCq196zuH0+1t5I3M9gXia12E1gAAAACGAaF1PdSn69Wff6nlipa3q1/PdZuAsfJp1evDl+jVQIbWbj9dniob8kaVCa1t0Dy7NxEUuzA42J7cN9GWHfkbXU8m/AuC54lGW3Bt18/uDfcPw+P0Pr51URULrZNttELMj13TzJx3xhM6+48NQupk33R43/Z4+3DF4Phomw1JdXwYPGf3tWFr+3WElQ2tu7SfCWdXF1o/rXPYEFjnSIa6OefwB8me0DpndLM3cHb7Zue07hx828/7hta2DsF0Xsi9lkVoDQAAAGAYEFrXQ306rzrh+vU+vb7AbQLGCqF1hfobWheveG5q79QgttpHWkeBrd5WWHFInQyws6Fl4pjsPNZuxHXcnqot6G3bxx8m2wrP1T20bu3bOq+9tnSonX+ecCR14poKvO/UqGQbmGaOzwbWtmwbNhyO90tUGEq3h9ZBFWx/taF1sM6FvqlzZAJrW4VD63hf16YLpFPrErXBN9K7U/A9q+t7OJzaJJqTPW8kde4I7DUsQmsAAAAAw4DQuh6E1kCI0LpCgxpaU9TolQvDewqc7RQrxac/6VcRWgMAAAAYBoTW9SC0BkKE1hUitKaoPlbOFCGFq9fjaypCawAAAADDgNC6HoTWQIjQukKE1hTVzwpHW8+uaqS0f9qSQShCawAAAADDgNC6HoTWQIjQukKE1hRF9VqE1gAAAACGwUqj8fJEuHpQr1/oNqEH6kdCa0AIrStEaE1RVK9FaA0AAABgWKw0Gu8402jcZRqNy1WTbjV6QGgNhAitK0RoTVFUr0VoHdINGv+0EAAAAMDYIbQGQoTWFSK0piiq1xr30Fo3ZpfoxuyvVc/q5uyf6+sJtwkAAAAARh6hNRAitK4QoTVFUb3WuIfWuiG7WnXa3aB9VEv+iSEAAACAsUFoDYQIrStEaE1RVK9FaE1oDQAAAGB8EVoDIULrChFaUxTVaxFaE1oDAAAAGF+E1kCI0LpCNrTeu3evscE1RVHUaurtb3+7Of/88wmtCa0BAAAAjCFCa4yb81S/Er5M8YXWr1D9cvgSZZxzzjl7LrjggiMURVG91Ate8IK36Y+UsXwAIaE1AAAAgHFGaI1x9GXVJeHLmC+03qMitAYA9B2hNQAAAIBxRmiNcXSr6ufDl7EPq7aGL2NfVL00fAkAQP8QWgMAAAAYZ4TWGEcbVf/f8GUsG1rbqUEeDV8CANBfhNYAAAAAxhmhNcZVdhR1NrS281775r4GAKB2hNYAAAAAxhmhNcZVdr7qbGhtR1nb0dYAAPQdoTUAAAAwPHTvfrFqg+7bp90q9Ej9SWiNsfRq1ZHwZSAZWjM1CABgTemGjNAaAAAAGAK6b1+ve/a/0nJFdbPqBW4TeqB+JLTG2EqOpk6G1kwNAgBYU7ohI7QGAAAAhoDu2zepTrp7989qeZ7bhB6oHy9Xvx53/UpojbGSDKeTobV9SKN9WCMAAGtCN2SE1gAAAMAQ0H07oXVN1K/3qL6h+iX16/PdamDkJacBiUJr+3BG+5BGAADWjG7KCK0BAACAIaD7dkLrGqlvL1afNt2XwNiIRlVHobV9OKN9SCMAAGuG0BoAAAAYDoTWAOoQhdRRaM3UIACANUdoDQAAAAwHQmsAdYimA7Gh9c+pvqwCAGBNEVoDAAAAw4HQGkBd7Ojqe1QfVf2mXQEAwFoitAYAAACGA6E1gLpcq3pMZR/K+Hq7AgCAtURoDQAAAAwHQmsAdblE9Q+qU8FXAACsMUJrAAAAYDgQWmNYvVr1K9TA11dUdm5r3zZqsMo+PPMsFYD62Jus61S+n0GqD7W30fj4ad3/2hvfzzYaR6cbjV/17Uf1rV6rmlABAAAAKYTWGErnnXfeXW94wxvMddddRw1w/cRP/IT5+Z//ee82arDqRS960bP60fqn4U8YgJpseeUrX/nse97zHu/PIVV//eauXeZMs2nsje+9P/AD5lf4XqxZvfGNbzQXXnjhAf1cTIU/HgAAAEALoTWGkg2tP/zhDxsA1bjiiitO6keL0Bqo15Y3v/nNT585c8b95GFN3H+/MbffbszKiluBtfDRj37UXHTRRYTWAAAA8CK0xlAitAaqRWgN9AWhNeAQWgMAAKATQmsMJUJroFqE1kBfEFoDDqE1AAAAOiG0xlAitAaqRWgN9AWhNeAQWgMAAKATQuv6qD9vVP2F+vdq9etZbjWqQGgNVIvQGugLQmvAIbQGAABAJ4TW9VCfXqp60vXrp7Q8321CFQitgWoRWgN9QWgNOITWAAAA6ITQuh7q03nVCdev9+n1BW4TqkBoDVSL0BroC0JrwCG0BgAAQCeE1vUgtK4ZoTVQLUJroC8IrQGH0BoAAACdEFrXg9C6ZoTWQLUIrYG+ILQGHEJrAAAAdEJoXQ9C65oRWgPVIrQG+oLQGnAIrQEAANAJoXU9CK1rRmgNVIvQGugLQmvAIbQGAABAJyuNxvozjcYxLVdU/0H1PLcJPVA/ElrXidAaqBahNdAXhNaAQ2gNAACAbkyjce5Ko/HdWnLPWBFC65oRWgPVIrQG+oLQGnAIrQEAAID+I7SuGaE1UC1Ca6AvCK0Bh9AaAAAA6D9C65oRWgPVIrQG+oLQGnAIrQEAAID+I7SuGaE1UC1Ca6AvCK0Bh9AaAAAA6D9C65oRWgPVIrQG+oLQGnAIrQEAAID+I7SuGaE1UC1Ca6AvCK0Bh9AaAAAA6D9C65oRWgPVIrQG+oLQGnAIrQEAAID+I7SuGaE1UC1Ca6AvCK0Bh9AaAAAA6D9C65oRWgPVIrQG+oLQGnAIrQEAAID+I7SuWX9D62WzvLRklpbdl8AIIrQG+qLG0Fr/rzps/1+1YlbcGmCQEVoDAAAA/UdoXbNeQ+vl5WWzZIPoIIzukkYvL5p5fSMbC0tuRTdqe3HBLCwu6dXgWF5273dpeaCuC4OB0Broi5Khtf681v+j8ipleb/ZPNk0EzvvMafPEFtj8BFaAwAAAP1HaF2z1YXWy2ZpYT4MoD01v7DoD3PLhtbR/o15szgA6fDy0oL/Pc8vmKIxPEYfoTXQFyVC68PmWhtC+/78drXzntMmzqcJrTFkCK0BAADQzUqj8Y4zjcZd+gXoctWkW40eEFrXrHxovWwW56Nf9OeDUdDxSOvFZKjrCXJLj7Re0rnmzfx8Tgheuei9eULyRIAevGc7Ok/veXFhPni/6bfUoZ01NajXNVoIrYG+WEVoPWfmdi6YhYVsLZpDTySmAhm70PqYef+Vk6Y5MWf2PZYI7zE0CK0BAADQyUqj8fJEuHpQr1/oNqEH6kdC6zqVDa2XFmzoqcoNkhOhdjacLh1a91t+qBu973lf2msDbPcyRGg9zgitgb5YRWi909xz+kz3eaoJrTFkCK0BAADQyUqjsUl10oTh6me1PM9tQg/UpxerP7+k5YqWH6dfK1YqtC46XUfefp7QOpofOjulaCyYb9S99gpHPHdsIxbtmw2ZQ/Za4lDX7hOfuxXEF8nb89vJSK7U6+R7CI4JX7brtC2g7Z73WfS6Sp872Yhed/5e6Pjg2op8v4YToTXQF2sUWuvPMPuQxuDPsA4tZf6AWz58OPwzue0Q295hc3jpCbPS9cKOmWPBvkvmCTsyPG//Y8dMcmN8jNb5Djl27LDZH4XWdz+mtnVN9iGUXa8Hg4LQGgAAAJ0QWtdH/fpD6tNFLV+pfmXalSqVCa2XF8OpMLqPlG6FvKmRyYnQ2jc/dPtc2EtmIdjmmzNa53BTc6TKzi/dFoa2ridZyfPFI8g9Zd9ux5HWCd3aibm+sO3F/RqUrl99E7z29XPUh96R7vnvc7HodZU9d+Z9tOaM1ftIBR5lvl/DjdAa6Is+h9bLZv+1m01zYiL9Z9ic2nw806aOv1LHz+97zDx+6FqzuTmR+LNxzuy85/FgNPPy+33bfCOdj5n355z7bnvu5P7H3p8+d/C+W8fM7bg7FcQfvnbKTDYTbSZqx93PMep6SBBaAwAAoBNCawylMqF10eDW8gbcUejpyoapdrTa0lJifTpBzQmtE6G49g9HDNvQNArCk/sn99X5gn09c1EHI74XzUKwb3qu7uDdRmFudM7gII9u7USisHc+vI75+QWzaI+zQfqqQusu7zO4jgLXtdrQ2vc+3C7htYVhS+73a4SCEUJroC/6GFovm/2b7UjkhpnTuseDkciq/btc6JxpNwqt5+bMxMSEjtln7jl0yCztioLnObNz53xq2/54W/Yao6k77LnvNo8//oQ7dxR47zR3P5fYPwqto3PvcOcOrjUMsFNh9LHD5vDh/WbX5qbOMWd27LvHHDoU/r8hb2Q2Bg+hNQAAADohtMZQKh5at0JRX56Z1S20bgu+423JKUVyQusOwWp03qh973VElrPhc/QeM9OaOHFbQc13CK87txNI9EXbta0itC72Pgtc1ypD6+gYb8ChNoORfp7t9rrttvnFJ9ya4UdoDfTFKkJr/Tk0N2fmggf8tmrnoXDkcywbWh++1kw2J0zDM13I8v4rg21z+x4zp6NNLrS250utl8PXhgG0rj8zqno5DqdT63XuqUl77rvNc5lzH3t/4tzRNhdax+dOHhO01TSNHdm2mNN62BFaAwAAoBNCawylukJrb/gZBZzeBnzt+0PraMS3v5n0OTru26Z7qGtHL4ejlaOyo5azO5cIrdtGTMsqQuti77PG0Nr3PpylhXCU9YJvOLU93gY4Ot+o5CSE1kBfVBda39o5tI6CZu/UHVFAnQy0fesiLgAPA2W3zllOhdDhumD6Dntu31QdUUCdDLR96yLRtrl95jHvaG5C62FFaA0AAIBOCK0xlNZkpHVOA+3Tj/hC69Z1zC8smIW2cucNQtQCIW1Kif0z4XV65HiBdjr1RenQuuh1F9hvtaF1zvc0PGcYWnf7fo3KWGtCa6Av+jQ9SHJqkJ1mZ9ufYZuCaTgaQRDsWq4stE5ODdLt3O59dQqtbT9MqT1C65FDaA0AAIBOCK0xlOqa09q7b5eAMwq6i4bWjcxouVQF5/CP1M5XNPxtaU0Z4rvGfoXWRd/n2obW3b9fo4HQGuiLvofWvlHacdUy0roVWhc+N6H1WCK0BgAAQCeE1hhKZULrjvMmp7SC5dSuXQLOciOtiwTLZfa1yu5vRdeYPKZAO5WG1kWvu8B+tYXWOufoTFvdEaE10Bd9Dq1toFvgWKvy0LpEmExoPZYIrQEAANAJoTWGUpnQOg4ou4WjUfCZHfnbMeCMAtVk0O0fQVxs/mbL12YnRcPfpBpCa184HPFuK/o+S1xX0XN3eh9OxzmtRxChNdAXfQqtu8xp7VNZaG137zCntQ+h9VgitAYAAEAnhNYYSqVCa4kCYxtcLvmCzyjEDEJKty6S2NY2HYQ36M6Z9iLa1xesZsSjwz37Li8umMW2ywivL3V5dv7qBf/7zWu/a7DeMezNed/2OoL17ecr+j67B/4lz10gtLbfr+ABaDpuHAZbE1oDfdG30DoKmoO5o4skuhWG1nb/qcnMvNWdrCq0tqeZ0rkbZkfRcBwDhdAaAAAAnRBaYyiVDa2DUNON6rU1P594KFRyvS/EjALO+ShgtWHqkllcmM8JunMCVNMaWWzbWlhcMktqZ2lpMW6r1U4ybHX7Li7G15q9zFb4G12bXSbCdu/7bR+57G0nnTJ3DHtbfzkQXvPi4kLcd+EyG04Xe59dr0tKnbtIaB18v1rzWvu/X6OTkhBaA32xitB6zsztTPwZnqjFQ2fMSvTHUDa01p9hyXmtd956jzkU/Rm2a5PZNDGRHoVdZWidmdc6OPche+79Zn907mTQvMrQ+pg7d2Nuh9l3zyG9r11m8fEzBNhDgtAaAAAAnRBaYyiVD62tZbOUCJpTFYShmRQ04gJOO2f18pILQuOyYWb2uLzQ2gqvIXVuV/ML2UB3OQhH0/v5zmclAnG3n91teakVAKdK79f/dv3txLqGve3XbP8iQO867BPPiGrfMe3vs8t1BUqcu1BobZX5fg03QmugL1YRWrf/+ROVDYqToXM6tA5WmsPXbjbNCfcXcMljd+4zjyfT3UpDa+tYcO7J3HMnAuhVhtapcDxoe87se5SpQoYFoTUAAAA6IbTGUFpdaJ2wvKz/wlqV4Fj3uk2n0Dohvgb3da6i+1nhvj7l3m+ZfX3cNbuvinHHdDyoyHWt5twFBNfW7fqGF6E10BclQuuKreWfYceOmWPBuVdaI8MrpfaPLatt0uphQmgNAACATgit66N+fbHqX9g+VU241ahCz6F1naJRvN5RxcBgIrQG+mLtQmtgwBBaAwAAoBNC63qoT9erP/9EyzNafkjLc9wmVGEgQ+vlcM7jeBqLrlNPAIOD0BroC0JrwCG0BgAAQCeE1vVQn86rTrh+vU+vL3CbUIVBDK3jhwXasnNGu/XAMCC0Bgq5SvV61Wr/+RShNeAQWgMAAKATQut6EFrXbFCnBxnlOY8x2gitgUJsaP0p1ZdVv6WyPzNlAmxCa8AhtAYAAEAnhNb1ILSu2UDPaQ0MIUJroJRLVLtUZQNsQmvAIbQGAABAJ4TW9SC0rhmhNVAtQmtg1coE2ITWgENoDQAAgE4IretBaF0zQmugWoTWQCW6BdiE1oBDaA0AAIBOVhqNlyfC1YN6/UK3CT1QPxJa14nQGqgWoTVQOV+AvffNb37zM4TWAKE1AAAAujvTaLxXdc9zjcb3mkZj2q1GDwita0ZoDVTrm77pm76mHy39mUVRVJ112WWXfYPQGiC0BgAAANYCoXXNCK2BajHSGqjcq1X7VP9LdUT1C6p/y0hrIERoDQAAAPQfoXXNCK2BahFaA5XwBdXfroowpzXgEFoDAAAA/UdoXTNCa6BahNbAqnULqpMIrQGH0BoAAADoP0LrmhFaA9UitAZKKRNUJxFaAw6hNQAAANB/hNY1I7QGqkVoDRSyRVU2qE4itAYcQmsAAACg/wita0ZoDVSL0Boo5KWuVovQGnAIrQEAAID+I7SuGaE1UC1Ca6AvCK0Bh9AaAAAA6D9C65oRWgPVIrQG+oLQGnAIrQEAAID+I7SuGaE1UC1Ca6AvCK0Bh9AaAAAA6D9C65oRWgPVIrQG+oLQGnAIrQEAAID+I7SuGaE1UC1Ca6AvCK0Bh9AaAAAA3ZhG49yVRuO7teSesSKE1jUjtAaqRWgN9AWhNeAQWgMAAKCTlUZj/ZlG45iWK6r/oHqe24QeqB8Jret03nnn/eEb3vAGc91111EUVUFdcsklz+lH6wfDnzAANXnLd37nd37jPe95j/fnkKLGqd74xjeaCy644JP6uSC0BgAAQJuVRmOT6qQLVz+r5XluE3qgfrxc/Xqc0LomZ5999h/+43/8j83mzZspiqqg9DNFaA3U7y0XXXTRN3w/gxQ1bmXv48455xxCawAAAHgRWtdH/fnH6tvnVLtVL3CrUQU7Pchv/uZvmmeeeYaiqArqta99LdODAPXb8qY3venpU6dOeX8OKWqc6oMf/CDTgwAAACAXoXW91LeXqk+5F68aoTVFVVuE1kBfEFpTlCtCawAAAHRCaI2hRGhNUdUWoTXQF4TWFOWK0BoAAACdEFpjKBFaU1S1RWgN9AWhNUW5IrQGAABAJ4TWGEqE1hRVbRFaA31BaE1RrgitAQAA0AmhNYYSoTVFVVuE1kBfEFpTlCtCawAAAHRCaI2hRGhNUdUWoTXQF4TWFOWK0BoAAACdEFpjKBFaU1S1RWgN9AWhNUW5IrQGAABAJ4TWGEqE1hRVbRFaA31BaE1RrgitAQAA0AmhNYYSoTVFVVuE1kBfEFpTlCtCawAAAHRCaI2hRGhNUdUWoTXQF4TWfauj5qa5STO75yFz8tTTnu11lT3vlGnO3GAePHnKPO3dJ1nh/pMzuwvu32vpfPM639bbzYmT/eyX9iK0BgAAQCeE1hhKhNYUVW0RWgN9MZCh9YHtk6Y50TCNrXf2OeCtsQ5sN1OTs+aGh06aU097thesozfNmanmjLnhwZx2jt5k5qaaZuaGB13fDXporTqww0xPzZrdDz7VU9/0WoTWAAAA6ITQGkOJ0Jqiqi1Ca6AvBjC0PmC2TzbN7IYNZmJiq7mzX8FpFdUhmD6wfcpMbrvDPNVrCN8WSqe3dw21V1M2VNb7qi9UPmB2TE+Z2d0P9t4/PRShNQAAADohtK6P+vVd6tOjWv6Y+nWdW40qEFpTVLVFaA30RR9DaxdG3/BQ5+DzwHYz2dxm7nxor5nV/lvvrDB8rbtyQ2u996nJ4L33PnK808jpsqOqC1btofUz5sCOaTM1u9s8+NTa/SUFoTUAAAA6IbSuh/r0UtWTrl8/peX5bhOqQGhNUdUWoTXQFwMWWh8xN26cNM1gWpDk65ygNwi4J3RP0wgruW+nbYnjpyaT+/hHQtvRy5Oze8xDJ+8KwucJt/+GOIS2YbGb0iRqy9YW154nzA5GXje3mDuyIW2wb9NsucMFxO7ruC13PVN6b3afk8m+9I7Czguy3TQg8TXbazmp7W59MD3II+ZGO9+0533F80/rnPOJPrG15Y4T6etSHb1pXu9jq7njwT1mo9t/Q2Jkdbh9Zk2nCCG0BgAAQCeE1vVQn86rTrh+vU+vL3CbUAVCa4qqtgitgb4YrND6yI1mY2J09ZEbN5pJO9XFQ57Rty6UTo7EtnNhX3OXvv5Yh23RuaPjo3DYBr4694xnNHQQWgcB+IZW8ByEyROJ4Dpa1z7SOjx+azqgdmF0HE679W1httsvGVpHI7ebdl3i4YX+qUF8obVbZ0P66PgDO8zUNXfp60cSoXV0DTkjrYP1zVT4HK3LBtdhKB32oTeYtsdN6bjb2wPvfhWhNQAAADohtK4HoXXNCK0pqtoitAb6YqBC6zCkTsxj7UJsGySnj+k0Clvb7KjnTiO0tU8wMlr7tILgnHA5Xp8IuN36IGCevcE8FIe7/tDaP6raBsf2GtrD6CLTiLTatKOj7TpfOJ23/oDZEZzHNy92uH/30Fr72VHYuv541LUrO9XHZGaqjyi0TgXcyXIjtmfWcF5rQmsAAAB0QmhdD0LrmhFaU1S1RWgN9EW9ofWBzBQd2dpwg3koDihdED2TXBcG3ROp/VSJMLttVK62xSOms9vifcJR1W3zZZcZKR2vtyPB3f6dQutkuJ06PtFuMNp71uzJHO8tNwI7niLEOzWILV9o7dZNhFN0+PbvGlp3CJl9U310nf6D0BoAAAADjtC6HoTWNSO0pqhqi9Aa6IvBGWmdM6raTuvRnLDTciQC38w0InEbbps3kE7tE4bWyXmYW5WYAsTtX1doHYbUulY3gjtoL5g7O7Oft9JThNhjp4JrjEZeR+ULrcM6sEPX1Yzet29Oa7d/h9B6q2f+at/+hNYAAAAYdoTW9SC0rhmhNUVVW4TWQF8MTGgdTg2SPyrbzh0dH1fXSOuc6hxaJ9Z3Cq19D10MAuJJM7vHTgcSTlkSvi4W2rbafdjcaIPp5BzVceWH1nHZ8HzKPhyx1RYjrQEAAIC0lUZj/ZlG46+0XFHdrHqB24QeqB8JretEaE1R1RahNdAXAxJa+6YG6bTNTRvinbe607b0PkXmjrbVNqLarW8bQV1yepF4mx1d/dBeU3hqkKiiKUJuuMHMNsMR2+1BfYHQ2taBHcG1737wIbO3SGht2y09p3WH0NqegwcxAgAAYMCtNBoXqzaYRmParUKPCK1rRmhNUdUWoTXQF4MRWh8I577OG/kcjcJObvets1OJbNzzkHl4b/62k6fc8UGQnHm4og2BN7ZPzxGGznYUeGLqkCAwngjmlI6PtyOW9R6DUd7JMDwnzG4dM2u2bpkxTd/UIC6YbthpQDwBvX2gYjMYjZ58KGOyPKG1Daj1PlshdrhPGFQ/0j7SOmcUdBhE2z5oBc2+da31+aF111C7D0VoDQAAAPQfoXXNCK0pqtoitAb6oo+hdX6F81ZvNXdmA9uo3HQg2dHTbVOKJLYfuTEKmtu3xeWC53gf+8BHzzXEI6Uf2hNeh9s/FXin9nVtRkFzXpgdlA2M7fsPp0DxX2NeaG1HNU/pfO5cbVOD2PKPtLbXOZXsnw1RSJ0MsJP7h2F09L7i0dXBKGxdX9ROY4M3eO4WStvR2VOZ0dn9LkJrAAAAoP8IrWtGaE1R1RahNdAXAxFaD3rFofWqA1UXTNspTvKC+bGuA2bH9JSZXcP5rG0RWgMAAAD9R2hdM0Jriqq2CK2BviC0LlC9h9aqTlOEjHsF81ln58zufxFaAwAAAP1HaF0zQmuKqrYIrYG+ILQuUJWE1m609Wwwr/bajSYevFK/BA90vL3tgY79LkJrAAAAoP8IrWtGaE1R1RahNdAXhNYU5YrQGgAAAOg/QuuaEVpTVLVFaA30BaE1RbkitAYAAAD6j9C6ZoTWFFVtEVoDfUFoTVGuCK0BAACA/iO0rhmhNUVVW4TWQF8QWlOUK0JrAAAAoP8IrWtGaE1R1RahNdAXhNYU5YrQGgAAAOg/QuuaEVpTVLVFaA30BaE1RbkitAYAAAD6j9C6ZoTWFFVtEVoDfTGWofVXlpfN1371V80//Of/bJ55+mnvPuNSti++/u//vfmH3/kd88yY/+UFoTUAAAC6WWk0/uWZRuNDX280XmkajUm3Gj0gtK7ZOeecc/u3fdu3ffU1r3nNSYqieq/nPe95X9OPFqE1UK8t55577lj9v+unX/ayv//bqakz9obI1r++9NJnXuvZb1zqYxdd9HXdGAZ98f+ed9435r/7u0/59huHsvdxup+7Uz8XhNYAAABos9JovDwRrh7U6xe6TeiB+pHQumaXqF5PUVSlBaBeZ6muUvl+/kaqXtxo/MCfNhp36iZoJQqsbW1vNH7Kt/+41KONxseTffJ0o3HM9smkZ98xqX+kmlABAAAAKSuNxibVSXvfrHvoz2p5ntuEHqhPL1Z/fknLFS0/Tr8CAICxoJufy3Tz83l7ExSFs+5G86iWY/1P+tQnV6tOZ/rlpNb9C70mvAUAAAAc3SMTWtdE/fpm9elHbB+rX6fdagAAgNGkm55f0s3PV+2NZba07de0bLpdx5L64CWq57J9Y4v+AQAAAFp0f0xoDQAAgNXTDeQlupE8pJvKeHS1vg5uMKPSNvvwlLEfTax+eTDZT8nStk9o24VuVwAAAGBs6b6Y0BoAAACroxvJH9RNZPAgj0T4+hmt/1eq4CGM+vqLWvK0b1Ff3JLol/2qg6pk2P+YthPwAwAAYKzpnpjQGgAAAOXopvEs3Tz+R91IJgPXZ/X1u/S6qde79ToKZ2+069yhY0198uOqYF5r9ctntJzS1++J+sqtj+a5ps8AAAAwlnQ/TGgNAACA4nTz+CrdOKYetqiv7Qjh1+p1MEJYXx+Ltmn990brx5364Tz1RzCvtfroWS3Ptuu17sf19XG7PiqtY55rAAAAjCXdCxNaAwAAoBjdOLY9bFFf/5aWz3e72H0uU0Wjib+sJVODJKhP/lj9EwT+WtoR1UGgb/tN2/4s2ub6j3muAQAAMHZ0D0xoDQAAgM50k+h92KK+/mG9To2i1rp4ugvtYwNtRgsnZPpnv5ZxqK/X52ndx6Ltbh/muQYAAMBY0f0voTUAAADy6WbR97DFe7X+m90uKdr2kLZFI4n/uZaErQnqk6tU0RQhR7Wccpti2s481wAAABhbuvcltAYAAEA73Rjahy3+jm4Wk6Or7cMWf1GvveGp1r9U26OpQWzQ+gK3CY76xvbrV2wfubrIbUpR39m/LPDNc810KwAAABhpuu8ltAYAAECabhBndXPoe9jid+p17shpbf8lVTT1xe1aMjLYQ33zh1Hfavmv8/pJ216ifeOR665fmecaAAAAI033u4TWAAAAaNHNoe9hizdqGT9sMY/2+6MoYNXyp7RkahAP28eqaET6R7XMHT2tbXZk9u9q/+R0IX+h5eUq+hcAAAAjR/e+hNYAAAAI6Ybw/9HNYXJU75f1ddvDFn20zyXaNwpi7TQiTA2SQ33zKlU0r7UNoNvmtc7S/m+L+jfRx7mjtAEAAIBhpftcQuuaqC/PVd9eoeW0WwUAADC4dNNiR/T+vb0xjMreLGpZaDSv9t2iiqYGuVdL5l7uQH30ZKKfLy3Sz9rvKh2Xnef67VoSXAMAAGBk6B6X0LoG6tP16s8/0fKMlh/S8hy3CQAAYHDppuU99gYmCkR1I2NH816j110DVe17j/aNpgYpdMw4U399TBX113YtCwXP2jeeWsSW2jiqZdeR2gAAAMCw0P0uoXUN1KfzqhOuX+/T6wvcJgAAgMGmG5ctuoEJbmSi0te3d7qhsTeR2icepa19v8VtQg71UTzdh/ruDi07jkzX9ku0X/wXA1Hp6x/Rkr8gAAAAwMjQPS6hdQ3Up4TWAABgeOnm5TJ3E5Oc3/r/6Osf1eu2gFTr36yKpgb5jJZMDdKF+uslqmhea3tDnjunnPbzPRzzqNYXnr4FAAAAGBb2PldFaF0x9SmhNQAAGG66kbFzXO/WjUw8XYi7udmjZWoqC62LH+Co5S9mt8NP/bac6Df7MJRUAK11m7TPX0T72NLXdsqWd9HHAAAAGFX2PlhFaF0x9SmhNQAAGA26mblZNzPZ4PozWvfNdru+Tj3AUeu/IzgQXanffjvqWy1TD1TU13bu6q9H/WpL+9+vda/Ua0ZXAwAAYGTpnpfQugbqU0JrAAAw/HQz81LdzBy3NzXZ0vqTusn5YdU/U0VzM9uHAjI1SEHqt6sTffcJ23f6elav/0zL1NzVWveMlhe5QwEAAICRpXvh71I95e6Dl7Q8121CD9SnhNYAAGC46UbGjqD+rG5kgvBUr7+o1+9WZUddfzl6rW2/piXTVhSk/krOa/2s6kZP//5D4vVHteQvBQAAADDydF98k+5/H3iu0fh+3QPnPv8FxalPCa0BAMBw001MPJ+1Xtt5lIOH/mlpRwL/uV2fLW1j6oqS1JcPqt9So6ptab0dyb5dFY9kt6XXP6IlfQwAAACgFP0uQWgNAACGl25erlIlg9LUwxX1+jzd5BzQ+uQDAr+oJaOAS1K/3aJ+zI6uvlfrvsXtkpr7Wq/tyPaz3SYAAAAAKES/UxBaAwCA4aQbmEt0A/PX9kbG3czcq6V3yg/d5OzS9q/a/fT6p7RkBHBJ6jf7FwTRFCHB6Opsf+tr+5cEf2X3cft9UEv+ggAAAABAYfpdg9AaAAAMJ928HNLNSzSP9Zf1Oh7xm0f7XKb9CaxXSf3346p/p/pmt6qNtv2YKh79rvo++hwAAABAUfp9gtAaAAAMH920/JwqnqpCr7+XYHRw6Mbyd6Pvj17/hZZMEwIAAACgEP0uQWgNAACGi25Y7AMW/97ewNjS17+mpXdaEKwNfT/s1C3JaUJu1JJpQgAAAAB0RWgNAACGim5aztJNy7FEGHq/bmBe4DZjgOj78pOq5DQhm1WMhgcAAADQkX6PILQGAADDQzcsv6Mblmgea/swwO9wmzCA9D26O/H9Oqol04QAAAAA6Ei/QxBaAwCA4aAblS2q5DzWb9KSkbsDTN8fO03Ik4nvmZ3KhWlCAAAAAOTS7w2E1gAAYPDpZuWlulmJ57HW649oyTzWQ0DfpwXdZAbThOj79qxeX6HX/GUDAAAAAC9CawAAMPB0o2LnsbY3KtE0E4/pNfNYDxF9z/4w8f2z04RMuU0AAAAAkKLfHQitAQDAYNNNyvsSgacdqftKvWak7hDR9+wl+t59xX4Pbenrf68lI+UBAAAwEnR/+2Ld3zINXkXUn4TWAABgcOnm5AdVyXmsf1FLAushpO/d21TJaUK+i+8lAAAAhpnuadfr3vZhe5+reofqeW4TeqB+JLQGAACDSTco9iF+f21vVNzNyu9ryejcIabv4R/rhjMaNX+/lkwTAgAAgKGle9tNqpPu/vazWp7nNqEH6sfL1a/HXb8SWgMAgMGhm5NPJgLOL+r1hW4ThpS+h5fpe5mcJuSnteQvIgAAADCUdD9LaF0T9ecD6ls7gv0W9evZbjUAAMDa0Y3JL6mS04J8j5ZMJTEC3Pc2OU3IpXxvAQAAMIx0L0toXSP3uwL/OhMAAKw93ZjM6obvq/bGz5a+/jUtGY07IvS9PEvf3wf1fY1G0X9GS25EAQAAMHR0T0toDQAAMOrsTZ5u9o7Zmz5342cDTQLrEaMb+1fpe5ucJmQ732cAAAAMG0JrAACAMaAbvd/RTV80AvekXn+L24QRo+/tu1XRNCH2e/2tbhMAAAAwFHQPS2gNAAAwynSzt0WVnMf6TVoy1/GI0vfWThPyp/o+R39J8YlPM00IAAAAhojuZQmtAQAARpVu7l6hm7y/tzd77oZvUUumixhxusGfVT0Xfd/1+l/zfQcAAMCwILQGAAAYUbqxsyNuH9bNXjTi9qhev8BtxojT9/t6fb+DEfZaflnFNCEAAAAYCrp3JbQGAAAYRbq5e59u9KLA+lm9fqVeMy3ImND32v6lxXLiM3CHlpNuMwAAADCwCK0BAABGkG7wflyVnMf6Gi0JrMeMvu9XqZLThPwInwMAAAAMOt23EloDAACMEt3QXaIbu7+2N3juJu92LZnPeEzp+//ruuGPpwnR8iK3CQAAABhIhNYAAAAjRjd1n9QNXjQlxBf1+kK3CWNInwM7Tchf6XMQ/SXGR7VkmhAAAAAMLEJrAACAEaIbu/eoglG1urmz81jP6zXTQYw5fQ5+UBVPE6L6Pj4XAAAAGFS6dyW0BgAAGAW6qZtVJeexfhfBJCK62f/t6POh13+h5dluEwAAADBQdN9KaF0T9evPqk8/oT61A1mm3WoAAIDq2Zs43Xgcszd1tvT6M1oyjzVi+jzYuc6T04Ts15JpQgAAADBwCK3roT69VPWk69dPaXm+2wQAAFA93XAc0M1HNI/1l/X6W9wmIKbPxU+qTtvPiavNKkbjAwAAYKDonpXQugbq03nVCdev9+n1BW4TAABAtXSjsUWVnBbke7QkiISXbk5/N/q86PVjWjJNCAAAAAaK7lcJrWugPiW0BgAA9dPNxit0s/FVe9PhbjwWtWRaEOTS58NOExL8k0D3mblRS6YJAQAAwMAgtK4HoTUAAKidbjTO0o3G5+0Nh7vpuF/L57vNQC7dnF6tCqYJ0efmWb2+Qq8ZnQ8AAICBoPtTQusaqE8JrQEAQL10k/E+3WRE81if1OvvcJuArvSZuTvx+TmqJdOEAAAAYCDoPpXQugbqU0JrAABQH91c/LgqOY/1NVoyUhaF6fNipwl5JvEZeq+WTBMCAACANaf70nN1r/rXukdd0XK/li9wm9AD9SOhNQAAqIduMF6qG4zgRsPdbHxES+axRmn63CzoRjU5Tch36TV/+QEAAIA1p3vTF6t+RLXerUKP1JeE1gAAoB66ufikbi6iaR0e1ZJ5rLFq+gz9YeLzZOdFn3KbAAAAAIwQQmsAAFAL3VRclwgY7cjYeb1mZCxWTZ+hl+iz9BX7mbKlr9+uJSP3AQAAgBFjf39UEVoDAIDq6IbiKlVyHutf1JLAGj3TZ+mXVPE0IV9rNF7OZwsAAAAYLbrnJ7QGAADV0U3Febqp+HN7c+FuMH5fS0bDojL6TP2xblqjUfyf0ZJpQgAAAIARQmgNAAAqpRuKA4lA8ct6/c1uE1AJfaYu02crOU3IT2vJX4wAAAAAI0L3+ITWAACgGrqR+DlVclqQ79GSqRtQOX223q2Kpgk5+Q+Nxov5rAEAAACjQff6hNYAAKB3upl4hW4mvmpvKmzppuJXtWT0K2qhz9ZZ+rw9qM9ZNKr/v2nJNCEAAADACCC0BgAAPXMB4uftDYW7qbhfSwJr1Eo3rq/SZy05Tch2PncAAADA8CO0BgAAPdNNxO/oJiIa8XpSy5e5TUCt9Hm7Xp+9aJqQv9Hrb9VrpgkBAAAAhpju6wmtAQDA6unm4cdVyXms30RoiH7RZ82O8v9Tfe6ivzS5Q0umCQEAAACGmO7vCa0BAMDq6AbipbqBCG4k3M3ER7Rkegb0lW5gZ1XPRZ9Dvf4JPocAAADA8NI9PaE1AABYHXfzEI1wfVTL57tNQF/p8/fr+iwGI/712k4T8k1uEwAAAFAr3Xv+S92DfujrjcYrdT866VajB+pTQmsAAFCebhquU0WB9bN6/Z1uE9B3+hyepc/gE4nP5Ef5hQEAAAB10/3ny1VRuHpQr1/oNqEH6kdCawAAUI5uGK5SJeexfquWzGONNeU+l8lpQn5ES6YJAQAAQG10z7lJZR9Gb8PVz2p5ntuEHqhPL1b9revXw/QrAADoSDcLl+im4X/bmwd3A/H7WhIMYiDo8/jburmNpgn5C70+x20CAAAAKqf7TULrmqgvF9Snd6h/v1evp91qAACAdrppOKCbhmgKhi/qNf9MCwPD/pKgz+WXEp/RD2rJNCEAAACohe47Ca0BAADWkm7Gfk6VnBZkXkumBcFA0efyB1TxNCGq7+NzCgAAgDrovpPQGgAAYK3oRuxVugn7qgsBbWD9qwSBGFT6rP5XfUajaUIe0/JstwkAAACoDKE1AADAGtGN11m6Afu8vRFzN2Of0ZJ5rDGw9IvDi/Q5/Ssto2lCbtKSaUIAAABQKUJrAACANaKbr99JhH9f1utvdpuAgaXP6U+qktOEbFbxrwMAAABQGd1vEloDAAD0m27AtqiS81i/ieAPw0K/ONwVfX71+qiWTBMCAACAyuhek9AaAACgn3TD9VLdeJ2wN2DuJmxRS6YFwdDQLxB2mpC/iz7D+vq9WjJNCAAAACpBaA0AANBHutmy81jfpxuwaFoQO0r1+W4zMDT0Gb5addp9jp/V6yv0mn8tAAAAgJ7p3pLQGgAAoF90w3WDbr6iwNoGfd/pNgFDR5/hu/UZjqYJuV/LKbcJAAAAWDVCawAAgD7RTddVUcBnS6+v0ZKRqRha+gy/RL9EPJP4TP97LZkmBAAAAD3RfSWhNQAAQN10k3WJbrb+t73pcjdeH9GSeawx9PQ5XtAvFMlpQr5br/nLGAAAAKwaoTUAAEAf6EbrkG66omlBvqjXF7hNwNDTZ/oPE5/vz2jJNCEAAABYNULr+qgvz1Xf2ufRTLtVAABgHOmG4OcSgZ4diTqv14xExcjQZ/oyfbaT04T8tJb8SwIAAACsiu4nCa1roD5dr/78Ey3PaPkhLc9xmwAAwDjRTcCsbga+mgjzflFLAmuMHH2236FKThPycj7rAAAAWA3dSxJa10B9Oq864fr1Pr3mXwADADBudCNwlm4E/tzeELibAjttAqNPMbL0GX9AN77Rvyr4b1oyTQgAAABK0z0loXUN1KeE1gAAjDvdBPyObgKiAO/Lev3NbhMwkvQZf5U+61+xn3lb+nq7lvxFDQAAAErRfSShdQ3Up4TWAACMM/3Pf4vqjL0ZsKXX36MlUyVg5Omz/m5VNE3ISb1+MZ99AAAAlKF7SELrGqhPCa0BABhXugF4qW4A4nms9XqvloR2GAv6rNtpcR7UDXD0rwzu0JJpQgAAAFCY7iUJrWugPiW0BgBgHOl//jaws//zjwK7+7V8vtsMjAV9/mdVz9mfAVt6/W+0ZJoQAAAAFKJ7x8t1D/mUvZfU71Sf1PJctwk9UJ8SWgMAMI70P/59+h9/FFjbkQEvc5uAsaLP//X6WYimCfkbvWaaEAAAABSm+8ebdB/5wHONxvfrPnLarUYP1KeE1gAAjBv9D/8HVcl5rK8hpMO40mff/quDP9HPQfSXOB/VkmlCAAAAgDWie3NCawAAxon+p3+J/qf/v+3//N0NwEe0ZDoEjDXdBF+lSk4T8iP8XAAAAABrQ/fjhNYAAIwT/Q//k/offjSi9FEtmccaEP08/Lp+NoJ/gaDXdpqQb3KbAAAAAPSR7sUJrQEAGBf6H/2/U0WB9bN6/Vq3CRh7+rmw04Q8kfgZ+aCWk24zAOD/396dQMlx3fe971kBcNdiioolWZYpyZv0bFPEDAYgQVKLrSx2GCeOnYWcwUqApCg/x0nkWKYck8LGZbhoOVIWyjkxaS4gQQIDgLJkyZFeLCoEIIorZvAi+zgvkUkCJMUNAIH7/v+qe7urqqu6q7qqprp7vh/yf2qmq+pW9Z1ean5zcRsAgHki1+SE1gAALATyJj8mb/av6Ju+lnz/27JkHmsgQJ4XH5OqTxMi9RGeJwAAAMD8kmtyQmsAAPqdvNGfJW/0h2wIp2/6D8iS+XqBGPL8+LJcFLtpQn4gX59uVwEAAACYB4TWAAAsAPIm/x/lTd5NefC/ecMHksnzRP/I89eB58xWWTJNCAAAADBP5Fqc0BoAgH4mb+6XS3mjRrXk60tkyXQHQAvyPPlVqeA0ISt43gAAAADzQ67FCa0BAOhX8gb/0/IGH5zH+g8J3oB05LnzX+Q546YJeVq+ZpoQAAAAYB7ItTehNQAA/Uje3BfLm/uj8ubu5rH+hiyZxxpISZ47b5PnTX2aEFn+kSyZJgQAAAAomVx7E1oDANCP5I39Jhe2yddHZPkeuwpASvIc+g0pb5oQeR69Jl9/SL7mXysAAAAAJZLrbkJrAAD6jbyh/5pUcB7rf0TQBnRGLpIfcs8n+fqAfM00IQAAAAiRa8Uz+Z2rOHLNTWgNAEA/kTf1c+RN/X/pm7t9g/+iLJkWBOiQXCDrNCF/655T8v2/kyXThAAAAECvFRfJteL/I8s3pK6W68TFdhVykL4ktAYAoJ/IG/rX5A3dTQvylCxPsasAdEieR+vkefWGfV7pNCEfkK8ZSQMAALDAyTXheXJteNheJ35NlmfaVchB+pTQGgCAfiFv5NdKucBag7WftasA5CTPqa8Gnl9/KcsRuwoAAAALlFwfLpfSzxDSa8RvyfIsuwo5SJ/qCPbHZHlCll+SJVP0AQDQi+RNfEzf0PViSUu+XiVLRoICBZHn1E/IBfNLgefY78iSaUIAAAAWMLkmJLQuifTrIqmflz5lsAgAAL1IL4zkAumQXijZi6UHZMk81kDB5KL5aqngNCHvla/54xAAAMACJdeDhNYAAABx5OLoPrlQctMW/E/5mvm+gJLIc+wvAs+3b8hy2K4CAADAAkNoDQDoJ/omdq3UZygqb/3DWu2LcnHkBWhHa7Xjl9Vq/3EgZrs+rV+UYpTr/NNPRP/XUnE/k76vi2u121+t1Y7qc05rVa32n+RB+Idx21JUm7pEin8VAwBADyO0BgD0k8t/7ud+7vVrr73WUFTe+sL69ebkwIAXnv3ZJZeYz/zBH8Ru12916aWXmje96U33yvOJwGf+rTznnHNe/vSnPx37s1kINfMrv2JODA56z7v/ODW1YJ53VHE1JY+bH/uxH/uePJ8W+U8rAADQiwitAQD95PLf/M3ffOnkyZMGKMRf/qUxu3cbs4AeU3fccYd5y1veQmhdjZW/9Eu/9Nzx48ftT2OBOnDAmP37F9TzDsX55je/ad7+9rcTWgMA0OMIrQEA/YTQGsiJ0LpShNZAToTWAAD0B0JrAEA/IbQGciK0rhShNZAToTUAAP2B0BoA0E8IrYGcCK0rRWgN5ERoDQBAfyC0BgD0E0JrICdC60oRWgM5EVoDANAfCK0BAP2E0BrIidC6UoTWQE6E1gAA9AdCawBAPyG0BnIitK4UoTWQE6E1AAD9gdAaANBPCK2BnAitK0VoDeREaA0AQH8gtC6P9OU66dM/lf79sHw9Ym8GAJSI0BrIidC6UoTWQE6E1gAA9AdC63JIn54t9UPbr7vpVwCYH4TWQE6E1pUitAZyIrQGAKA/EFqXQ/p0Qup526/flq/fbFcBAEpEaA3kRGhdKUJrICdCawAA+gOhdTkIrQGgGoTWQE6E1pUitAZyIrQGAKA/EFqXg9AaAKpBaA3kRGhdKUJrICdCawAA+gOhdTkIrQGgGoTWQE6E1pUitAZyIrQGAKA/EFqXg9AaAKpBaA3kRGhdKUJrICdCawAA+sPJWu1sqb+ROnmiVvuiqdVOs6uQg/QnoTUAVIDQGsiJ0LpShNZAToTWAAD0j5O12nul/rmp1c6UGrA3IwdCawCoBqE1kBOhdaUIrYGcCK0BAACSEVoDQDUIrYGcCK0rRWgN5ERoDQAAkIzQGgCqQWgN5ERoXSlCayAnQmsAAIBkhNYAUA1CayAnQutKEVoDORFaAwAAJCO0BoBqEFoDORFaV4rQGsiJ0BoAACAZoTUAVIPQuifNmtndM2Zm9qThJ1c9QutKEVr3pDkzt2e32X3whDnBi1jluii0PlPqQqmLKIqierjWS31Sij8EAn2C0BoAqpErtJ6dnTUzMzNSs2bW3oZOSR9KfyZVyOwtZsXggBlYu9Oc4A8Osfx+s9+UjNC6UrlC67m5ObN79255DTtoDspziWdTHnPSn82vXa5C7zNzt5mVo8NmcPUO8/rxE/bGhS6m/+bpMdktofUZZ5zxH971rne9JM/pI+eddx5FUVTP1Qc/+MEXzjrrrGOLFi06Ia+rP3zPe96jf4wD0OMIrQGgGh2E1rNm5pb1ZvnAgLxm18I1sdbcfJDgJ7vdZv3goBmI9meg1u48Yeo/JkLrlmZvWWEGpX/8fnuj9JGchNaV6iC0njO7b73CrBiKec4tW2NufLr8x0z/2WM2jo6YoWh/Bmr1jqOmnk8TWkfsMVcuTuq/cbP6hifNsTfKe1B2S2h91lln/dcvf/nLbwh7ZgDQmzZu3Gh+5Vd+xbzzne8kuAb6AKE1AFQjY2g9a25ZPmCDngkzsfZms8sbaT1t1i1fbm9fa3YtiCBV+mKFhl4T5uZnTuQM6l1orX26zqxbF61psyv4x4AFGVr7/T04sMzc1LK/3XY28Fl2k3m65ASS0LpSGUPrOXPrhcNmyHt8LDPL1txkdu7cJa9ht5grVqyQx43+sWONefDYGwvgj29z5raVI9IXy8yNTx4z+TJRF1pLn65ea9Y2vYbdbHYG/xiwIENr6e+LRs3w4Li54Ymjkf52obWs2/GgfV+Vx+QVF5ihoUHvtWz8hsfN0ZKCa0JrACiWhtbyeubVT/3UTxFcAz2O0BoAqpEptJ69ZbkZ8MKetV6I2mR2xqxfvs7MEFpn5ELrtWbniRQj1Qmtk/vI6xvpy7U3mbUD2qey/dN5fz6tEVpXKlNoPXfrhWZ4yAbTT73R+NcLztxus+GCK8zO44TW2bjQerXZcfS4aRtDE1onhNbSf68dC/ffnivN4tEhUxu/wTx+tJzHJaE1ABTLhdZHjx41X/nKVwiugR5HaA0A1UgfWs/eYqcEmehwCpBZM+uNHtMPEGwx2XBkndun/fTErn1Z2ltCgu3K17u1zdmkeyFt6Acdtthmdna3HXUu/bHroDmo84/GH7htW8WG1mmOJ6L97M3rK/s27eLa0zlp7U0tpTh+7LFl+xYH8PrbhdY7n0ns791XDHmjrHVakIPTK8yQ9NOym54udboHQutKpQ+t5241Fw4PeX/IuPGp4x08JubMnDxW9bVj5uDB8BzNQXNzJvhkmduzx9vn4Il2fzyxH06o82vHvQ4E25Wv98i5HDwobcY26tqS4yZsMze3x446l/548CnzzEF9Tslxmw/ctq3iQ+sUx4zt57i+a/TriVQ/9DT3V2T8OXv9vXLED613PBnp7xahtbdu1Fv3QNO6YhBaA0CxgqG1IrgGehuhNQBUI3VoXR9lPXGz94Fl6c2amfVuhHa4JtbukrbsZsoG4xM3HzQHZ5rnzdbtmw89G5iyJLht4Dy13UFt9xlzcHp5Y+oIHTEeCjikrbhznfBHlrvtdq8fjL0/Wmt3uZAjua2dTaF/EaG1O164z2rLYo5n9/f6Q/tZ26rvs8ys3amBnG7m/wzC65JCHD3+ivjjB0dGB479jBzbux+B7ZfpfYoESy6IDrVrKzxn9W5zhc5TvOwm84zeqMey35c5RQihdaVSh9b1UdbLbjRPHY8PFuPNmd0bLjDD8liV44Vq2ZoHzdNvBNrSYHxkyEzc+KR5etcV5oJhfV6Htz8u24fplCU64jnatpynazvQ7lPTF5oRb7S4brfGPBgKiefMbRsv9P5YE2xL5+p+MBDU79moI34D6wO15kE397TfVtP9jrTlKyq0tse0U2LUa1zaDR7T7j9xwxPmqV0bvL6RJ5/dftys3vGU3IeTstlG7w8V4XXHGnNrh7Q49pOR+yvHv8ge/0k5/srQ8WtmXO7X0cBB9mxcJD+zQJuBWr3jNXPsBKG1IrQG0C+iobUiuMZ8OVmrXSq1VS403iPF7ycFILQGgGqkDq1n1g94AawGyik2twKBsn5I466DZnZ21sxMBwLptbsaYYCGy3L7xMSEt86bM3vXTGh7LxS2mwfb97Y9qO3P1MPi+rbargalrl3vXKbNuvXTgQBe2/IDJi9M90bBSdU/dDIQcM/qKLxps96OtF578y47B6kbLSxteVOHJLcVDqfzhtb2eHKfNfSNHq+pXRccL1vmhczLXD9Lv/lz+i4za9dOhNZN1wPxuHMMH98fQegff4U7vgvfko5tf8baZ00fnljvbz2GnNtN0f62dl9hR1Y/Y/fX89LAu9wpQgitK5U6tN69QUe5ymP0Rj/QTCcwB7Z+SONDz3iPb/0gxwv0DyLyeK2tedAcc0G0C5fd43vNjeYhnTP7lsb2ax48Zhq5dSOw9rZ9Wv8VwW5z64YLvMeyBsjettF25Vxueuhms/6KafN0fSqTOTvdh7b1oHnqaf/1dvbWDeZC79iBgHtuj9mz+xZzxQX+82PNjQ+Znfo8rI8U9tsajmvLC+KjYXkRobUe0w/TNfQNH1NDYWn7dXf+NrQeHzeD8to5vvoGv5+vuMCMeKHzuFm9esKbD9qtu0XW+YF0oJ265GOvjB5budA6cPwH7c/ZheSrd7we+OBJ29/6WBrUD1Z8MNLfyaH13G0XmUXS57XVD5jXjoXPuiiE1gBQrLjQWhFco2wna7V3Sj0nFzwart4pX59uVyEH6UdCawCoQMrQWgNdGyjuShGqOjPrvYAldnS2DahD043Ub6s1h+PSlheoBkLu+ujvYPDtzM7IWVva7qDfrr9tdGOxO9h+eP3sLfoBbXpOLgxVLpiOmdM6c1sutJbzm5jwwvVgrdsV6Qsb/NZDaz2e3r96iN3gH2/ALAsez+0vxwvdLnQUuRvVHB5V3Qimm0ZbZzl+i2O70FnbeSO0QvnHbzWntT8iO7xej1/2FCGE1pVKGVo3wmcvNE77WNi9wYxoYBg3OtsGyd50I24kbv02eXzf+GQ4HN9j2wqE3Dr62xs1LbcdbSTZvrk9Zu6kPWag3dht1Z6NZtS2Hxzlq+ZuW+kdR8/pWP3Ou5A7Zk7rdm0NS1s3BNtyobWc37JlZlnkNWztQ5E/FMSF1nLMRXIfa6Eg26fH1PMZv+EJ/5hufzle/TYrOKo5FBwHgunw7aLlsS+qH7v+QYg2tHbHD31AYmJbcvwUH8Q4Hvggy+XL5TXNC9IfME8ei3/dKwKhNQAUKym0VgTXKNPJWm251BG5ENJw9VuyPMuuQg7Sp+dKPWv79euyfJNdBQAoUamhtRudHR4d3TBjp9moB9QutI4Noe26QADu9k9qv0731TBU9n0m4b66KT8a03sE2KA1HEInh9bp2goGvG1C62iAb9twobULmmOn7ohsm3ibYwPopkBZxAbgIu3xvSA6+n2QW7dMfk7ND4A2oXVkahBH2/RGmQZGexeM0LpSpYbWbnR20j576qO3bUDtwuVAMF3n1i270Tx53H8s7tngh6j1EdVJYvaNclN+NKb3CNCQ155XI4RODq3btzUcaatNaH3TU+Z48AAxobULm5sCZRXdPmb/OhsaR8Ns1RR+W+2O7QXUwWPF3ea4deM3mCdCH5yYJrT2w/bm0tHZwT8SFIvQGgCK1Sq0VgTXKAuhdXmkX6+WPt0hffoRqRF7MwCgRCWG1m6f5A9udCOlU4XWZsas10CzHlq3b79O25V940Y++7QtPzSeWLvWG+EWLp0qo+aH3vUT80PU5tDa3Z6lrTzTg9jjSZvLEo8n9z0YBIf2jxwtc2id8fiBYzePpnbBcwehddPUII7upyOwNVSPTDtSEELrSpUYWrt9kj+40Y2UThVamz1mw8iwGawHz25qkMBI7SSBdmNHWdcDaHkerllTH6nbqOX+v4bQYx9zQWpSaJ22rRsCbeWdHkSP6Qfl46tXxx5Tp/qoaRCsxyw0tM5wbBdCtwqttS8WSV90FFrHTA+y50q5r/6UI+M3PB4e1V0QQmsAKFa70FoRXKMMhNYAgH5S4pzWM2b9gIbK/lzQcZqm98gUWtvvW7RflyG0jhvpXK91wf1tWNsitE7fVjGhddwIx9jjlRRatz2+7lRKaO3W1cyyZTHB+XI5nvc4iztmfoTWlSpxTuvdfsis8zfXw9mw4PQeXkidKbSW7zX49OaHfqN10JshtG75PFz7kDlWD1ndPsmhdfq2iguta+PjZjzueFrumCWF1q2PHRhZPo+htWfPlWbx6JAXnD8earMYhNYAUKw0obXS4Prcc88luEZhCK0BAP0kdWhdD5jroXE7sz040loD6BShsccPSpND6+jtrRQRWi9Lf7xSQuuUxy8jtPba1P6Tx2fLKmeKEELrSqUOrTVgHtaAeVnM/NSxenGkdTSAbiVpn8btN6Ruq6jQWgPdFMcsJbROeWw136G1Hm+RHE/WPxC3PidCawAoVtrQWhFco0iE1gCAfpI6tNZg0AuU04TEVto5revr3TEyhdbJ7ddpu7JvcmitWW3gXFo25iSH09nbyhNat5nTOk5k/5Ci57SOChy7qNDaOy8956apQRzdt7wpQgitK5U6tPaC3+EheZ4lh9BRaee09tZ72WsnobU/d3RsFu20Da01q/VHC8fOQx0rKbTupK28obUes8W80lGFhtYZj60IrUtBaA2gX2QJrRXBNYpCaA0A6CfpQ2vhQuik4Hp25hazfvlyM+3WzayX7QfiR2fLOg1AdfRrfXqPTKG1bp48+nv2lvXmlhl7HilCay+steea9GGNUYnhdLCtVAlpvtDaBc2heatbKTi0znT8jkNrWXtFXPDcYgR2gJ67znldxhQhhNaVSh9aCxdC1xKC67ndt5orVqwwNz9t1+3eYEaGB+NHZ7t1dvoQL0jMFFrr5nZ6kcBtztytG8ytu6RdbSZFaK1hrQay4XmrW0sMp+ttBeetbiV/aO3C5vq81f6t8QoOrTMdW3UUWuthksLxVqH1nLntykVmWParrX7AvHYserz8CK0BoFhZQ2tFcI0iEFoDAPpJptDaCwiXD5j6NAwTE/UPrZrwAmi9fa3ZVW8vsL1ue/Mus2tmxkyvt2Gz3B4aJZ0xtK7fFmx/etqst8est50mtPbOVYPj8LnOzEx757tcznddJJz2Q1zdfq25edcu2W69Dez9ILVlW6FRyS601nlTI/Mx25rWD8B02zeFzvZ4ei7LlsUcbyB8vKJD61THt0FzjtDajaiuLVtrbnL9vWtafra6z02tA3M9rrZdW2ZuejrwmCsAoXWlMoXWGgC6D2SUfb3H6xr7AaLe40hvC81hHdhet73pIbNz14y55YoL/D+CyPb1Udbe5tlCa+82DT/duWj707eYK+y/DKiPwE4TWmu4GZiL2p3rzMwtcr4rvOfd2kg4rSGuH5qvMTc+tNNMX3GFmX76uHnjpN/WcOq2XGi9zCxbvTbmwwzXmZt3Srtu+9jQWY/ph+g6t/Tq6DHl+bvWhb1Fh9ZZju1t3lloPXfbRf4fA8ZXmxsedP2to9xdaD1uxoP9t3y5PM70DyN6XqvNA0eLH2WtCK0BoFidhNbKfjjj3xJco1OE1gCAfpIxtFazZuaW9X647AU8jZpYu8scPGg3q5PtAyF1vTTojY7W1nA5U2itZs0tTe1rUBz4wEhtVwOmlqG1mjW7485VamJtzGhxF9bWtwtOFZKlLRdaN2/rKhQUx4bO/vH80euRfaPHi93f6ii0Vnp8f33c8euBcuDYWUNrPYY/qtq1vcysXTshfSznlDg1SIMbqb3spqfbbpsFoXWlMobWas7svvUK+0eMyGN1zYPmaZ3XPvT4kO03XGCG9TUkuL0GvU9HppvJHFqrOXPrhgvrIbhfy8yaG59qPEdShdZqzuzZeGHzuUotW6OjxcMhqm5fD7rtcRtThbRq64ZIWy60Dm8XrGXBoDgxdPaPOSI/m+j+46sDxyw8tFatj/1k8P52GFrrMfwpQlzb4+aGx3WqEBdah4/rlYboNz5onpKfe/SMi0JoDQDF6jS0Vn/8x39McI2OEVoDAPpJB6F10KyZndWy37bhbytlvy9WtnNpy51rqvb8bRNlaqsA8328qNKP77ffLQitK9VBaB00Z+bm9PEUDarjzc3N+Y9t2bj4ADHbubQl5zrnPQ/TtOcfO/G9IFNbBanimE7px27T3/OM0BpI45A5tHeP2fPMG41/NYIOHTIPf/5qc+X0DvPq0bj3b1l/jay/KWl9O/Kzelh/VscjUzGV49BXv2CuvnLa7HjldXPM3qah9aWXXmp+//d/31x77bWZ60Mf+pB5xzveQXCNzAitAQD9JGdoDYDQulI5Q2sACy+0zvJHg+C2c+b2qzaa6YeeMsebRuq3k2ffMP3j2e7du83MzEFzUNriCi6PQ+bQIf0DVXyd8D5UwDr0OfPhUxaZoant5kev84cVX0z/SZ+1zYkfvsacccqoGdu837x8NG7rQ+bzHz3dLF59r3nh1Q7e3w99wXzs9CVmaPKejPsfMl+45mozvePxmH9F04Ie74wlZmLTo/LY8Pd77LHHzHXXXRcbSKetJUuWnJSXxo9LDXsvkkAKhNYAgH5CaA3kRGhdKUJrIKeFFlrP3X6xWTwyaGqrHjCvHmt1rL3mqiWLzHBt3Gz7/uvm6dvsfrVV5v5Xj5osZ1k/Zgf7+ubM3ts3mpU6xZCbOsbV+Cqz9Ymj5jiXchntNVefutiMRPszUFPbf2Tq+TShdcTD5hNnnGJGY/qtVhszk5sfM6/GBtKaWZ9hThkdM5v3v2wam/hB9cpt+8zLR2cDofUzsv2HzcXr7jcvpw2gOwytD33hY+b0JcNy/pPmniOvmgx7mi987AyzZFj3e6U+2jqvt771rSekPy+RGpICUiG0BgD0E0JrICdC60oRWgM5LbiR1nO3m4sXj5jB2irzwKvHkgPkvVeZJYuGTW18m/n+68fNSdnvqosuMCtufNC8fjzjOdb31XnQg/vOmdsvXmxGBv1gPD54lm0u0W00DBw346tuNDse2uV9UOiGlTrfvg3DX+kkDO81h8znLlliRqW/tj72mjmWYTBsMxdaj5mxqTVmTeCDY/26yTyoc/y7YyzI0FqD5NPM4qFowKxcaC3r7r3f7PQ+gPtWs3HjSjM6OiSPyVr8SOpDnzcfPW2xGZq817wYCpQflmOdIseSx/nYZrN59WKzct1ms/qCxWZUbhuT2x57+WhgFLcGxad757Zp34+MHeDs63Sktex3zUdWmgu26c8423WFBt5nLBk2k/ccMa8UlFr/1E/91MsjIyMflL7k+hKpEVoDAPoJoTWQE6F1pQitgZwW4vQgflBcM6seeNUkDbbee9USs2hYtrn/VXO0tFNqH1rP3X5JY5T29/WDO+0KZ26vueqiDeah1wits3Gh9ZTZ/qPX2/cdoXVCaD1p7n3xtfCoZDv9h4bP+0NBs7T4+Y+a0xYPJU8Ncuhh8/mrLzaLXfA9ea957PHjJjhTi6+E0DoPO0XIsBzzSEGpNaE1OkFoXR7p10VSPy99OmJvAgCUjNAayInQulKE1kBOvRVat5+PWud8bndd036KEDc1SGQ6D/2QTmk7vnVZt3e32T0zYw7KfWjaJmbfubm95raLFvmh9f1PmKcP6rzAgQ8AnbvdXOKNCtdQ+7UOpgBpnNPMwYPmjaR+kXNrHFS+3bs3+X6EuPYT5tcOtitf792zxzzzjLQZ26i2tcfskePqNs0hpTGHDkl/XbzYD623P26efkb760RsoOl9aGKLtsoJrdsc99AhE7zx0MMPy7bPmGeOR+eBth8kKOuOt51b2W2rx4wLd63YY8s+8v6ZvMvD5vYP6+hnHU39mHkq1N8tQmtZd019XXiajfipQaxIYO3XmBmbvL8puPbP7VQ/tL7ne+Fziwmt09xfj/TTIWkkvI3c9lXbx8eOJezfmCLk7oKmCCG0RicIrcsj/fo9qRPSr7fK8nR7MwCgRITWQE6E1pUitAZy6qXQWsPmRSODZnybflBa87XL3iuXmFEdHd1iBLWn3RQhe6/0pwZZdb951Q2zdvsEb/PMmb1XXWQWDetoaBe01cy4bPeEbOedZcy+e686xRvJHdzH1ar7X/FGd9dHWesUJa8dbxMgB8Wfk1bovJQG40tGzcTWx8wTO680F8n9ljez0Pavhe6v0ilLdMRztO2t5vGj9jznPldv9/Hpi82SUXcu0alM5sznrrpYfm6Rcx1fZbY/LtvZhHDvVaeaxUn9tf1lO/f0IfO5q7WtYOgpNTYlbb3emOrDU2Rorce9RB6bzce9T0fQ63Fl/4+cushMbDlgvr/zKumbETNU33bMTN33ffOabHjoc58wlyyKrntF1vlHajhkPv+JpGO+5h/TOfR5OfZiM7HZHvuUYPs1MzZ1r3klcoCHP3GGOWUk0G6gJu99Uc6nk9A6OczWwPqa03XdmLT/mNlx5enm4pvuNY9NX2k+vHhUznfS3POCv8/D15xpTh1NOLd7XjCvPtMIrfftuFLuu+7f2Gap3P6juBHYNuz2Rkt76w/JsT4ix9J5rsP7f++V5vD6q588yzuvybuLmSKE0BqdILQuh/TjedKvz9l+/bZ8/Wa7CgBQIkJrICdC60oRWgM59dRIaw1/F2nYvDombN5rrlwy6o2ObjlXtaf1FCEafjdNDZIQWrtR214Y/NRBMzs7a2Z3bzQXrbzJPKFzYfsbNe87t9fs3a3zUo+Y4cFxs2rbDvPQLp0XuDHC2QXb49s00Ex7rebPge0FyvohjTue9EZw777tSrNy1AbSch6v1M/Dhtbj42ZwUO/HVrPjoZ1m5tYN9e1diO5rBNbetk8+bQ7O7ja3XbnSC57r27rQ2rUr53LDjpvMFRumzZNHj9nQfM5O96FtbTePP/mM339yrhd7x15ltr9sA+5D0l97bpX+kp+x9tdW6a+dfn89I/11QoPjD5/iz3/c1JaGtFPSVjCcLiq09o+7SI87dZ/5/hP2uLdfZcPnKXOftH/chdZjY2ZoaEi23WIeeFD6eeNFZokXPI+ZqakJMyJfu3W3yjo/lJY2XgoGw4fM5z9yautjBrd3oXX92JvN/XrsWzd6j0sNdKe8INpurw49bB6W/t6oI9uH9IMV7zcPuv72Risnh9ZuCpBadN5qN591zLQh6tDDnzd7njlqjp/wP5TR/yBG2d87l+Om/lZvz+1Kd26b7jc7gufmRlp7OZNOMbLJ3L9D7688FrzXCBtuB09aRUJr98GMXkj9uO3jPVebj1xyo/me/Eybzt/Oa71006PmpdB8JZ0htEYnCK3LIX06IfW87VdCawCYJ4TWQE6E1pUitAZy6rXpQW6/WKfTiAmbdXS0johMnPIjInH7RvgdnhokLrR24Xdk26iEwLuxf9yc1n747N3XUGjcxt6rzCneB0huNY9FR2fbgFqnG9E5ob3j1W+rmfGtj4XDcddWIOTW0d/eqOlg8O3M7TVzJ93ocj+0bgrJg6T9Uxdr+9vNy5H1hz7nH8c7p/rk1S3mtN57daOtyEjoQ5/7sDlldMiMbf2e/KzdTi60lvMbGzNjExNmIlBrHnjcvB4cmp0UWstxT1syYmpT9zWNwPaOu0iOu+WAeeWp273QWoNU7/vAyT/8idPNEjuqeeq+lwLhcSOcDt3+8CfM6faYL0VGSB/6/EfMqe6Ybv4NG1p7x94cuF1JW2ecom3da16MtOUdP8UHMY5NNj7IcsWKUTOkYbrORf1qZCoON9d104cwRj1srjlT2h7bbPbFhNu+FHNa6/3dtE9+LsH7e40581Q9h5j5rkOh9TNe+zrdxz1H5LXGbtIKoTW6AaF1OQitAaAahNZAToTWlSK0BnLqtQ9idFOERMPm1FOD1CWMzK6H2ZGAOSF4bnxg4/fN0aZPSbTmMbR2o7OT9qmP3nYBtQutY0Nouy4QgLdrv86F1t6+bmR1mJvyQ6f3aGrrkN0/FGgnh9Z7r2601Tx7hwbOo17g3Ai024TWNzxuXg8eICG03nv1aV7gPHXfjxKOq/vcZ370xK1+aO2F25H3LBtCR8NsFRdCu5A7HHBbXkDtH6ceaLvQeureppDbW+dGP78SDYjThNZ+2N5cOjr7MXm8B3ZKHVqrQ/JfdG7poA4/iNEF00s3mX3R0dKRkdYPX2On+7jn0cAfO1r46ifNWV4gfnchH8ZIaI1OEFqXg9AaAKpBaA3kRGhdKUJrIKdeC629ANibIiQYNmeZGqQhLuiu3xacGkQlBc/udvlFVqfA2PHEU80feJi0b+Ghtb+PC3XD7fncSOlUobX061WnLDLD9dBa22+ExnHt17nQOrZdFZwaZFV9pG6jVphhnefaht5+ZJgUWgenBolvS6fdqI1tNd+Tx4e/WxHTgwSnBplqcdwt5sD3p80lhYTWwalB2hzThdCtQmsbPo90HFrHTA/y8DX+HwnkOTG2eb952e6YOG1IRzoMrb1R3Kea0RShdf17uR9Ll06a7d97XB5z4R4KIbRGFyC0LgehNQBUg9AayInQulKE1kBOPRdaiz3RsDnr1CBO034JU4OoxOBZzO01V120yAwP2lGm46vMtieONkLdjkJrOZvMc1rbkFnPP/Rhhw1N03tkCq3bt1+XIbSujY+b8chI53qt2RH4IMj2oXXcqOlGW/JzbhppXUxo3e64rxQ20roRWrc9ZpqR1iWE1h43qjowf3XPhdbebbK99Le+3njP7aWTZtP3XgkfzyG0RheQB6p+YOBhG65+TZZn2lXIgdAaAKpBaA3kRGhdKUJrIKdeDK3NnnDY7I+Ojg9+W4uM0A6G2NGgtVVo7czNmb364Xk6QrgWOJ8OQ2sNmPVDHmvj28z3vdC4nV4caW0D6PZ3TrQLrcfM1u+9Gpo2JFmRofWY2dLuuLJ/saG1HPPAK5EgOUEVobUc0/vQRW/9q/76TNODtDNPobVz6JD56tXys9DXh9pSs+nRyDEVoTW6xIla7VapgydrtX8gD9gRezNyILQGgGoQWgM5EVpXitAayKknQ2uzJxA2P2Q26Nca7L6eJtgNc9OB6GjmB9cvTg6/04TWVmOeazvFSIehtRco635eAN4mJLbSzmldX99RaJ1iypK2obWeS4s5rWMlhdbSVqs5rWMVEVrrcVvMaR1UWGitm7eY0zpOt4XWgdHXnZvn0Nr6an2e6yPys7I3WnwQI9C/CK0BoBqE1kBOhNaVIrQGcurN0No05p5etcoMDw97ofPrzamv2Xv7RrNh/UPmqWNvxAfabnT1+CqzanA4OfxOCJ7n5oxpnsL6Ym+EdPvQWg6fMmT2R243B9dze283V668wNz0hF239ypzyiK9Py5oDnDrgtN7ZAqtdXM7vUhM+3O3X2Vu23nUHPfuc/vQWs/n1MXuXOM/rDEqGHSHQuK9V/ttheatbqWY0FqPe9qSETnultbHLTC0dtuH5q1upePQWg91hjlFQ9p7X4wE5K1C60Pm89ecZhbLfqFR1XFBdg4PX3OmDZBfMKGMuaDQ+tAhY6JTWLtgOi60/uonbaB9d/O6ThBaA92D0BoAqkFoDeREaF0pQmsgp14Nreths/wCGZqKI8iFxbJN8MMWw9wUIdqOP+K6OfwWscHzXnPVkkVmxfgqc+OOh8yumRkzc8tKs0in9NBg2M2L3SK0dgG3Nw+2tDG9YYOZfiowH7Y3ullHY/vnp/M/r1qzxvvQvRXDw959C4XQdns3V/SqG3eYh3bNmFs2rDSj3rQlkYA8Y2hdv82di7Y/favZcIH0YXAEdprQWs41OK/1qhukrZ3ShzO3mls3XGgulPNdExmFfehzLjRfZba6/nrydXPshJsiRNoaG/PaetC1tVHaGhny2mrkzS60HjNjU2tiPtBwnbnpQWnXbZ8UWuvo78C81lM3PNB8XB2F/UyBobWGwoF5reOPGRiFnSO0rs9DPTZpNt//oJneuNFMP/GaOXrChdbSf5OB/luxQn4Gsr0+PmSfe18OhtOtRm5npwHy6fbcNt2/w0xfeaWZfvxV8/psEaH1jLnmrFPNBUsnzbbtO8xOfW7feok5dYm+5kyae468YsK5tI78PsMsGdapQ16Kn/M6I0JroHsQWgNANQitgZwIrStFaA3k1LOhdTBsbjc6OinUturBcavtEoLnvVddbPw5rOU8XI2vMvc/cdS84dppEVprcOtPEeL2jzsHf8T4yhEXUjdqXNp84sk3IqO9Zfur3Nzage016A1+QKTKHForOWe53y4E92vcrNr6uDnqGk8VWis9V+n/6LlKja/aah4/Gh297KYIaRy3MY/1IbP3am3LhqaBGpuStl4PtuVC6/B2wRrb8j3zqguRE0Nrpce9xCwZiTvuFnlsynGLHGntOSS7tTjma4EAOkdorcfxg2bXvgucXWgdPrZXY2Nmctv98rM73tTew9c0Rm435cmZ+VOELAmcmzdVSCGh9XE514/ZOawD923ppLnne6/EzF/+VfPJs/x2H30p0m6HCK2B7kFoDQDVILQGciK0rhShNZBT74bWXWZuzszNzppZuabq7KpK9p+bNe2vyfztZmflOCkONCfnNZvrvFrJdi5tuT6cPdE0LUOzQ+bQoVnZLmHDQ7I+dVsFquK483LMNv2dVqEfxugUdG5JXP9K+4lHsB/CWNR81orQGugehNYAUA1CayAnQutKEVoDORFaA5g/D5tr6nNh55/Xulv481nr1CCRD4XMgdAa6B6E1gBQDUJrICdC60oRWgM5EVoDmE9unuxipgjpBoGpQaJTjuRAaA10D0JrAKgGoTWQE6F1pQitgZwIrQHMLzvaWufRfjluHu3eoh8IecaSYTN5zxHzSvjTGXMhtAa6B6E1AFSD0BrIidC6UoTWQE6E1gDQfQitge5BaA0A1fidn/3Znz1+7bXXGoqiOqtLL73UvOlNb/ozeT7xS8X8++g555zz+qc//enYnw1FUe1ramrK/NiP/dj/PPfccwmtAaBLEFoD3YPQGgCqseGtb33r8RUrVhiKojqr973vfeb000/fLc8nfqmYfyul719bvnx57M+Goqj29YEPfMCcdtppc/J8IrQGgC5BaA10D0JrAKjG5b/+67/+0osvvmheeukliqI6qC9+8YtMD1Kdlb/wC7/w3OHDh2N/NhRFta/du3ebc845h+lBAKCLEFoD3SN1aL1o0aL/LQvZjqIoqrdrdHT0mCzfLVUlQmuKylmE1pUitKaonNUFofVPSK085ZRT/uzLX/7yCUJrACC0RudO1Gpfl3r5ZK22VqrSP0j3i9ShtbBPYQDobQMDA+bHf/zHj8rrWpXBNaE1ReUsQutKEVpTVM4qMbReLHWh1EVSn5C6Vupmqa9J/bnUK1L6h/wfSH1jaGjoh1/60pdOEloDAKE1OiNvquedrNUO23D1a7I8065CDoTWABYcDa337dtn3vGOd1QZXBNaU1TOIrSuFKE1ReWsDkNrDVJWSv1TKQ2jPyPlwuj/V0p+n6u9JvVNe9stUrrNb0tdIqVB9ilSdUwPAgANhNbohLz5Lpc6YsPVb8nyLLsKOUifLpL+fEyWJ2T5JVmeblc1sU9hAOhtGlqfPHnS7N+/v8rgmtCaonIWoXWlCK0pKmdFQmtvqg4pDZX/QEqD5j+R+rrUPin5Xc0bHa3bf0PqLqk/lNLtXBj9k1IDUpkQWgNAA6E1OkFoXR7pyzOlbz8kyxF7Uyz7FAaA3uZCa1VhcE1oTVE5i9C6UoTWFJWhnnjiCbN161bzqU99ymzcuNFceOGF5oMf/KBek7gw2puqQ0pHR/97KQ2jf0vqYqlflCrtdY7QGgAaCK3RCULr6tmnMAD0tmBorSoKrgmtKSpnEVpXitCaojLUtm3bzJVXXumF1ps3bzY7d+40W7ZsMW9729sek+dTpR/WRGgNAA2E1ugEoXX17FMYAHpbNLRWFQTXhNYUlbMIrStFaE1ROavED2LMhNAaABoIrdEJQuvq2acwAPS2uNBazXNwTWhNUTmL0LpShNYUlbMIrQGg+xBaoxOE1tWzT2EA6G1JobWax+Ca0JqichahdaUIrSkqZxFaA0D3IbRGJwitq2efwgDQ21qF1mqegmtC63mr/WbL+KAZ2/SoeeHFuPVllX/cgaWbzKMvpPk5Z90+b9njTd0t/dKbj0NC60oRWs9bHTDblo+Y8c8+Yp4/Mp/PVf+4w0uvM488f8S8GLtNsHT7UW/776TaPm/Z403eaZ49/ELM+u6vbgmtzzzzzD+SxXEp+R2boihqYdfQ0NAxWb5fiutLpEZoXT0b5wBAb2sXWqt5CK67MrS+d9Wg9I9csE3eM88Bb4l13yozOLDUbHr0hVwhyv4t463b2b/FjA8OmKX1cLzbQ2sp7ZvB/H1TVRFaV6orQ+v71oyY4UF5Dbv8LvP8kd4MMptq+1ozOjxmrn/keXMkx+vygW3LzcjQ0uR2Dmwzy0eGzdLrXDje7aG1lPTNopExc9138vVNVdUtoTUAAMiH0Lp6NsoBgN6WJrRWJQfXXRha32tWaei6dKm8x06Ze+YrOC2i6sH0i01ByX0axE9pCJ/z/jSF0uFqG2p3UqWHyvfJz3ww8T51exFaV6oLQ+v7zJqRYTN2/vnyOj9p7nr+iHkhdrsurO1rbDB9uCl83b521AxP3WWeyzua2Aulh8zS6+NHbHuh9vBSc13OcLypSg2Wt5u1i0bM2HXfmedR6MUUoTUAAP2B0Lp6NsYBgN6WNrRWJQbX8xha2zB60z7zYqvA4F4NfqfMPfs2mzHpo6l7emj0bWJoraFsctCcrVqNhC5plPQ8jITWUH9wPkd3F1iE1pWax9DahtHXf9ccbvU4vW+NGRmeMnd9d5NZNjxkJu963hx5IWa7bqzE0Hq7WTuq972IqUH8kdNDS6+PGTmddVR1hip5NPT2tYvMyNg8ju4usAitAQDoD4TW1bMRDgD0tiyhtSopuO6y0Hq/2TI2YEckB7+O21bKC7gH5L3Yzv8WnE4kdl3kfnohc5ttpPZvGTODY5vMoy/692HAbq8htH9f9FwH67c3tVcPsxuhrzfyemDSG0keCjjsOU1qWK9te4GxnONkY85nfzR1zUzebbdx+8aOwk4Ksu3tOg2Ld76T5m7vXILb74tsYytwLu6YwfvedF5S/jlPmbsf3WzG7PbnB86zlBHi81SE1pXqstD6gNk6MWyGJnVakH2BrxNGJ2/XgHuw8dwKTifSal1g/9HINs/FHOvA1gkzMv5Z88jhe8ya0WEjD1Rv+/Ovf8QcdlNwTIyYoehzXdvTkdUxU4N4I68HLzd3PXc4PJLc23bQXH7Xc9JPje/rben5eFOEDJjL3DZu36apQfT2pCDbTgNSP+fLzJ3eudjb69ODRLezdZmdg1qPGegTrcvufDZ8XlJ6zqPDk+bO72wyy+z2HwqMrPbXL+3JKUIIrQEA6A+E1tWz8Q0A9LasobUqIbjurtB6/5bQ6GoNiwc0yNzXPN2GC6W9cNfepnNhr9LvY9ZpSOytc8eOhsN6bBv4NgeuY7KthhmBUdR2/9D29XA6fL4usA0F1NHj29ubwuyY0NpNpzEQui0p+I0Lre1twQ8/1OOs0pA9ZnvvHGICZXtuwfDZ3RYNrv1z0z8QnB8fTCfs1wtFaF2p7gqtD2w1E250tTyONSwe1vmbv3u48RxxZUPpywMjsbevGTGr75bv722xzoWpNrDWcNi7TY9tp92Inp8XWg/5zz8dRe2di92/EVy725pHWvsh82Q4oI6G0/b2pjA7JrR2I7eHLgtPNxI/NUhcaG1vm7yzsb8eZ/Xd8v2+SGht25H1TSOtvduGQuGzuy0aXPuhtP6B4EPxwXTCfr1QhNYAAPQHQuvq2egGAHpbJ6G1Kji47qrQ2g+pA/NY2xC7eZ/9LUZht1rnSrfR0DY8stoPpyPhcv32WnzArOFuMPiNCa3jR1W74Dh4DumnEdE2B6VNf3S03hYTNife3moO6ZjtY0Nrd/7h4FzLO7fIebjQOhRwByt2lHhvFKF1pboqtPZDan8ea++5YkPspU37BEdkN0LbxrqR1iO0A9sER1b74bSGy+F5tF1oXQ+47e3b14ya4bHrzSOH7fkmhNbxo6r94Ng7h0gYnWYaEa/NocsCbcaF00m363GS5pDW7dOE1na7STviOtBG3FQfLrQOBdzBsiO2l/bgvNaE1gAA9AdC6/JIv/5T6dM7tI+lX0fszU1sbAN0o1kzOzNjZmbtt8hh1sxMrzPrpmfs93Fkm3Xttmllfn9eszPTZv26aTNjc2oNrb/+9a+bP//zP89cN998szn77LOPyWti3uC63ND63lXe/ZTjxNfSTWZf/dj7/bA5dJudjiN0m1RimN1mXXAbadcb0R3cJiF0bh1mB7ZvFVpHQlx//8gIbC+4HYuEwwkVHZmcGPrGhdb2toHwFB2J28eF1onHc/crvH38KPBAtWiv24vQulLlhtbe/NSB6Teidf715ruH3WPaBtFLg7dt94LuwdB2UvUwu3lUdKsR09FtJiMhdDB0Dj6PEsPsbXr70kZI3Sq01nA7FCb7QW5oBLY3vce4+WyaD1HcriOwhxpThMRODaIVF1rb2/Q1rCkkThlatwiZ/YA6PNVH3G2hIrQGAAAVI7Quh/Tp2VI/tP26u1W/+mlP6WbN7GzaJCu47ayZXrfOTHeUguXZt0HPZUaDOGlnnrK4Puf/fJMqZHbaTOgvses6DVH7n99v9ptWZtZ5c95OTB+0N8SR58zyAenvXSb7eGUhP6/lOuWD7p+6ATnm+g6fp97xBszEzQe987300kvNRRdd1HG9973vNSMjI8/K66J0Vce6Z6S1BskxYbNO+dE0RYjdNvZDGlutc6XbyLnI/Y+p5tC5rNDaBbUuPPeCXZ07OymoClV4ihAXgDdGXruKC6398kdru/sdN6e13b5FaD0VN51HzPaE1ihJ94y0ThhVrdN6DA+eH54ixG4b+yGN9UA6Zl1km6Z59L0KTAFity8rtPaDZj881+DZC7F17uzodrEVniLE23c4EIDXKy609kvPa2TI3e+kOa3t9gmh9WTcdB5No7IJrQEAQPcjtC6H9OmE1PO2X78tX7/Zrmrihz8lm52e8C+A24aPM2add6E8YaZnA/vV1smabPLsq0Gajkr1AtNoTazzzg2dcD/f5Ao9RAitW9LHuPsFe50bbpxgZp0GivK8asqs/aBaw+yTodBaR11PmAnp+/T5c/bQenZ6uTc6VZ+nuzJP7eGf70BH+zabnp7W0PpH0p9ZQuuflrooUJsvvPDCV3bu3Gk2b95sPvWpT3n1mc98xvzwhz+M/eW282odWmsA3PSBf4EK7WeD6di2Wq0LbhMIi2O3CVTr0Dpwe6vQOu5DF21APOYFtcGvg9sklx86a9i8z2zWoDlmqo5WoXW9bGA84AXXti1GWqcuQutKdU1o7U8NkvwvS84P7lcPuAseaZ1QrUPrwO2ZpgfR8gPl8c/q6Oj9ga8TzjtSjSlC/ofZosF0aKoRV8mhdb1sYDzgBdfaFiOtsxShNQAA/YHQuhxdF1rXw8d2AfLMOu8XkdrEtPFyYdlv3cSEmehkuoLEfWfN9ISeix+MN3Pr/W0mdPoBb6S1355/eydBeC9q11dZNf4oMaHTUDSV9HXwOAsutNb+TgqXo9y22p9S8pxJ3EX70QuT4wLoGT+otm1Mr6t5j/l19jkwoc/F+k5yTG9bPb+YkFiOk3mkteyzfrn/PO0kdnah97pdJzvaP2jv3r1meHj4Nbnffx6p/ynV6OtwPSUV3Papt771rW9ccMEFZuPGjRWG1vtjpgZptc5OGzIZN291q3WuGnNHpw+tE8JoDXfdeSWE1m4UdHNobdfp6Op9m81Y2qlBXHlh8oCZ3LTJLNXR5bEfYpgitNaqB9P7zGad77tdaO3azTSndYvQ2t0XPogR2XRJaB03NUirdXbakMvj5q1utS68jc4dnRhsB8oPrf0R1cHXxbRzWnujoIPTgATKW6ejq7+72UyknRrElZsi5LrrzNjwcH3Edni7FKG1lrblhdLfNZsnUoTWXruyXaY5rVuE1l77fBAjAACoDqF1ObovtA4Ewa3yx5l17bfJr3UQGxqhHRfUzs6YdROE1p1xoXXK/iO0TlYPoqcb/zohYR83Irvl1CDyuJ5e5x77Glzvipl2pITQOi/vmHJOBRxT57Y+/fTTZ+X+XywVHD2dZZ7r7pge5F4Newf8DzoM3m7LjcIOro+7TacSGdu8z+zb3LxOg9SxzY2Q2g+iIx+uqMHp2OZGCG3LbRuaOkS3defs9rcjuJvCcG/bhMDWG2E8ZqYml8YHyzbMrdlpQELr3BQh3vMg+KGMwYoJrd39rB8ruM2+5u0TRkH7QXQ4aI67rXF7cmjdNtTu4iK0rlR3hNZ27uvLdUqP4HPflhuF7a23gaYfJIdv06lElm16xPyPzcsS17ljN/YPjLbW0HnZJvNIJDh324amDvECaj3nwP4HtjVGeQdHC3vhsobZMfdPRxiPjJvJy5fK60rM1CDevoOmdnncKGo7RYj3Ghb8UMZgxYTW2qbcz0aobANoL6h+1GyNG2kdMxLaD6IHQ0Fz3G2N25ND67ahdhcXoTUAAP2B0LocBYfWMXMNR7Rbr+phcGIAmRBoStvJrcs6bxT0TPw2MfvOajjnglidp1q3cRu5kDRXSNs4p5mkfonc3vI+hLi2m+9XXbBt+dprN3njxrFjtmnZV01at+UrOrROcczIiuT+c20lnnxAmvsqYo8t+9jvo7L0tz/dhz8tSLtQOnlqECsSWPulo+HD988/P9vWroPN5xcTWre7zx5tx34ZFuhne0szP0gvYooQDa3f8pa37Jf7n2V6kKh5DK2Ty5+32p8+I269FwZr2B8ZPe2Ca7kffgXWx6+LtG+D5/o2GtTG9IUfWk+Zex7V0dCN7UOBdWjbyDFbTn1hA2PZPnZ9y9DajmrW4yWsTxpp7cLl+n0/361PsX3wWO78XDu182OD53ahdNzo7F4pQutKzWNonVz3efNWX27uiga2rux0IAOR0dONMNk+fwLrW62rlw2e69ucr6Omm59jfluT5q5HNpllI425sEOBtdvWmzLEHtcFzV4w7YfZzVNf+KHykLwOnR+3vmVo7aYIkWPZua2j65NGWvshcaB/znchdTDADv88QvtcZkdY2xHS9XZqH4oNntuF0nGjs3ulCK0BAOgPhNblKDS0dmHzREKKm3p0dD0QTggs3dQgwYYSQ0t/vl1v+0B5IZvdIm5fd65xpZvVg3U3PUkm8eekFXde2p+zcp/9Pglv28yNeI5uGznPYNvuvngV7XNpL+5cdQS5bbBdXzW0b6uhqNA65TFb9vWE3A9/49mm+ct1nbcqIsN9zfhzdiF0XDXPVy39qKGamxJEjxX8PsRuq30el+nO6no9ttznXfoY1vmtdwX6RMNg//zcL+VN5+em5pDzcKH1QbnP3teB7XT0dlOu7O0jxw+tk/NYv7zpeLp/3ADvmfX+ueWdIqSfQutur3po/ULcSOY0FR8EU678EePxoX73F6F1pboitO72qofWkTmt05cNppfGfBgjJbXdrF00YsZ6cD5rLUJrAAD6w8la7Wypv5E6eaJW+6Kp1U6zq5CD9GeBI61t+BYfNGYJIRvBa1wgGBt+u2NHdqgH6XK7P9rTBoPBsDlu31kdtenm650w66b9UZxuJKc7h6SAPlnjvnkf1Djjn1PowxzdedjzmrDzY9fnzA5sG767jba9bb372xgZG9o22rZ3LnJ/Q+F2sL1A/wVCSq/JNn3lS9lWXRGhdYZjJvV1PXiW+2W/dusaoXT0HDPe16w/51T9bcljXUPaxshqPTc/eG4aTa3nkRho+2bluH7oLu3o9B8aIPsr5Pj6hfu6zfnJsYJBdex9jgbL3j7h0NrNU+2F1K6fNQTX+xCTSte3v1k/TLJzhNbzV/lDaylvVHdvTn9RenmjtXu3bwitK0VonaLyh9ZSraYIWejljdYOzpfdW0VoDQBA/zhZq10idbWp1c6RypMVwCo2tA6EdaGQTc3EjI5uJXH7hDDTBn/xoWWb4DN2X+X2n4hMAdLifrbj7lcwNHfcebjj1b/X0DGydUz/1EdMx53UbCTQDLQdu71q8TNrHlWf1FdWpraU+zlLTUx4gW6w3MjnurifYZZjtujr4EjycFMJj4Os9zXjz9mnx04InwPipvvQcwgH2ZYcS2/XY7UPdO2o64Rw2Du/NHNa2/MIbTGz3p9aIjSiWnj7BENr/xhZpvsgtO69KiS0tqOtx3p0NHF5ZUehx3ygY68UoXWlCK1TVCGhtR1tPf7ZuClCFnLZ6UhiPtCxV4rQGgAAIFnBobWGQvHBaezo6JYSwumkEC8utBSN40bCwKCEfb1QrODQul0/hEZwJ56XcOsC4XemPo7ZP6ple03nltRXvmxtqTahdfQgMW1kOmbsOVj2MdcUKIu4EDrzfW11bLeu6eek/d0utNZg2d83tIm26QXG8twKJreZQms1m/jY8c6v0w9idOuigbh3ezC0llOuT/eRMoROCsQzIrSmqO4oQutKEVpTVM4itAYAAEhWeGhdD9lCYXNCAN1GXPiXGAi640ZX1M+nZnQKjNgPPEza1wsGdd+iQuvWwa4KhaCJ56Vsn9bDzPZth7RsWzXu48S6dWZdU9k/TqQ6fta2VMbHTNP9yXjMVv2RKbTu4L5m+jk7epw2obUNoZs/dNHtq4/fRnLrRmDreeTIcy05Rqehtdzn9XGjuL19wqF1/Ta9n/r8Ptj8MwohtKaovipC60oRWlNUziK0BgAASFZ8aC2aguWk0dHtNO3XIshsFfzNyn42SPRK528OZluJ+7oAsjmIdfcxLshM1j6IDY1Ub3WfXFv1MLN92yEt21aN8DVupHO96vsn91X2tlTe+5PxmK36o8PQOvV9zfRzdvQ4LhS2N4W49X6Y2xSeu3OUYzby3x4MrZU8v9d7x7L3Se7vzXHHVITWFNVXRWhdKUJrispZhNYAAADJSgmto2GzH/DGhZntRILLVuF3y+DPmp2VJmwoHDyfxH1dANl87vVwuSlMbCW5PScUgmYKM9u3HdK2vzK213L7rG2pokLrAvqjo9A6w33N9HN29DguFLY3BWmbGs7qvi1L+teFt3I/ezK0drzn93L/PshxY4NrQmuK6qsitK4UoTVF5SxCawAAgGTlhNahwDEpdEsnOKK5ZfjdMvgLaxoJnrhviwDS7ZN0Pgmajh0RWt/yPiWF1slth6Tor3bnGtY6rM3WlsobWmc8Zqv+yBRad3BfM/2cndahtRs13Tw1iOP21/O06a0LrTUs9m/JQdqf79DaasxzfbIpfOeDGCmqv4rQulKE1hSVswitAQAAkpUUWgeCu3XJgZ8GWzPTOl3BTCSQC3Cjq3WKA2+ZEH4nBH/xU1j7QWN90xahYasA0q1LCmpnZ6bNuonIuvr9ibkfbp0LajOGme5+xbU9K/08HWymZdtWq3ON0TKszdhW/f7lCK0zHbNVf9h20obWme9rxp+zM7MuEjrXtQ60HRds63G9FvQ8vNHZgdHXOej5JYXHeqwiQuv457cfTMcdt1WgnQWhNUV1RxFaV4rQmqJyFqE1AABAstJC63pw51V8qOuFZHab2LzO48JLv+LDbxEb/Pn76py+0zMzZkbLBbvBMDR2X18jCPbbmF4XnA/bjS62NTFRnzPY3a/m0DWwj24/7Z/XdH3akkBftDiver+EwsxAX7m2pzU4j7SrWrbtxJ/rzMy0d766f3D31H2Voq3GfdH5n+08zJFqH8JnOGar/sgaWme9r5l/zr566Bztb21PA2ENff1N47nt6uG2nnf7sDstLzxuOj+XNhcRWvvbRZ/f3vQf8rzb1dSw3L/lGlonTB2SAaE1RXVHEVpXitCaonIWoTUAAECy8kLrUICaMOLUhXVJobZVD0NbbefaigR/jTmsAzWxzswE20nY1xcIIL2KnoM/Wty/H+HSD9uLGwnq7ZNwXuHss9V5JYWZcr5NbWtwGjmRlm0HJZyr1MS6mGO366vUbQUePwkVCooT70/KY7bqj8yhtcpwXzv6OSsXMru2/bDZhdnJU4M0uNHabtvk0dud8EPi8PnZduU+FzHSema9m8M6UPI82hUbSrt2bw632wFCa4rqjiK0rhShNUXlLEJrAACAZCWG1l1mdlb+l7LfZufv35o9RoaD+NvnOa8k2c+lLXeubdv0t2spdVsFquKYqvTj+u0XYqbID2N0Cjy/JK6P7bex7Icw5p3PWhFa91LtN1vGB83A0k3m0Re6ra/9cxvb9Kh54cXG9wNTd8v3PC7SFKF1pQit560OmG3LR8zQ0uvNI88fMS/GblNF6XmNmvHPfsc8f0Rfs/zvhyfvNM8efiGyLRVXhNYAAADJFk5oDSCFGbPOTq9RyGDrLuLPZ51/ahDVv6H1vWbVoD/vt5xfvSbveaGLQpKsVU1ofd+qQTOoz6XJFgH0favM4OBSs+nRQP/G3UYlFqF1pbowtL7PrBkZNvJgCL2GXX7X8+bIC3Hb90rNT2h9YNtyMzIc/BdSfl1253PmcFz/bV9rRkfGzHXfkf71/vCWcBuVWITWAAAAyQitAYS46UWKmSKkWxQ3NYjqx9B6/5YxbyT60k37zIvBoOHeVWZQ+27yHjsauItLA98BDXxfrDjwvc+sGhw0S5culT6dMne/EH8+XrDdNKra7lsffU21KkLrSnVVaH1g64QZHhow51//XXM4+Aeq7WvMyPCgqV1+l3n+SA+M/pXzHR0eM9c/Mv+hrx9aLzXXBY7tguy44Hr72lEzMnWneS40qnq7WTs6Ysauc6Ovw/tQ4SK0BgCgf5ys1T4u9bumVnu3FL+fFIDQGkCEHW2tc0rbW3qd96GQcp/W7TpZyLQnvRda+yOomwJpV/u3mLGBFuttcN31I667JbT2RktPmbsf3WzGpN+n7pZ+a+rX5HDaC7O7cjqT7itC60rNY2jtj6AeiwbSrg5sNRPDQ2Zp0nobXPfEiOsuC61fOrDNLJe+X3rdI5EQOjmc9sLssevMd7pqKpPuLEJrAAD6w8la7Wyp52y4eod8fbpdhRykHwmtASCLfgut7101aAYGJs09iSHpfrNlbMCbYmOfPV9vZPaYfh+eUiQx+PYC5cA/O/dGbjeOp+0NDkyZe2zQ67f1aL0tDXL1Dw9u/+A6//xkvWvblXeMFtOD7N9ixu2xXHnBfOD8928ZN4NyPx99Qe9n4xjJI6GD81IHv44cu8U0IN4xvfCdKULaFaF1pbomtL5vzYgZHrzc3JUYkh4wWyeGvek1vnu48bzS0dkj4581jxy+x6wOTCty/vWPNB/Hjdi22+jI7ecCI7e9toYmzV2PbDLLRoa814pgO9vXjMo52n3dulDYe8BsmxgxQ4HXufpxDu+Lnx7EC5T9Y7ntL78rPCLaC6L1Pj5/j1kzGriPTSF0xtC6xTQg2s6otsMUIW2L0BoAgP5wslZbLnVELrQ0XP2WLM+yq5CD9Om5Us/afv26LN9kVzWxcQ0ALGz9FVo3B9JxFQ223XQitdpSs2mfHdlsR2Q3HccG1vVAWEd2e+fTCJ790Nq2FxkprYH12OZASB1tz23r3R7dPyG0tm2EwueYdv0AWc9rsj7Nh7ttMm4EtQ3C3ejqpADavz1h6hA9D2kjtn0qVITWleqS0Do+kI7W9kCw/YK9zQ+a9Q9X55vrHznsvxbYcDoUXEdHauvI7hEd2d3YJrYtexwNrJdtCrc36rX3XPPI79iR1jFzWmtobM+zHibb24LBtRdEe+cl9/05OS93m075ERdwR0Jrb9T00GXmTrtvcNvR4cmm272S81gk/XPZnc+G2qeai9AaAID+QGhdHunX35M+PSDLX5V+HbU3N7FxDQAsbP0VWtuR0m3mrE4KraNThnjbhQJwDcV1tHHCyGppT/d3oXV4BHVS6dQa7pwD/Zc6tHYjoCP7S3kjugPbxofOyVN7NIXRNsSObutNASL9GRtaJ+xDNRehdaW6JLS2H77ozVkdXdeoVqF1dNoQb9ux680jXgiuofiIGZoMz4ldH1n9nN+eayt2lHZTbfdHPUdGa3uVKrS238s5heeT9kNm79xtuO2H1ksj7enUHtKfkdHTLsyWn224LovOW50cZnulo7Ol/aXMa922CK0BAOgPhNbVs3ENACxsPRFa37vKDAzEhA+u6sFyntDaD52D2/m3L22MvrajqqfajIr2Q+to4JxU8UF46tC6RSgcDanjR0S70Ds67UdcQO4H3APnh0d6t5y3mtA6dRFaV6rc0Pq+yHQc0TrfjazOG1pPhm5r3K5B72Hzwn5/VPVkdD7sergs28jzNLRP2+etnQpEQ+dOQms7LYiO9I7e52hI7X+v4XowXPbbG46E3n5oHT89yEAkuG45bzWhdeoitAYAoD8QWlfPxjUAsLD15fQgXgAcXdeo6JTsQAoAACDqSURBVAjqrKG13N+YShta25A6un+nI61tKNwUpGvV2+ggtE4Im/1R1efX26zfRmiduwitK9Vd04N4I6Fjnk+23OjppjmtU4bWTa8/XjWmAmkdWtvR2t5UQ4HqdKS1Da0nI9N7+PvrFCGN/XOH1gm3E1oXU4TWAAD0B0Lr6tm4BgAWtoX3QYzNo7Fbh9aB221oHRsQByo5tLaBtQa89b6yt3XZSGt/20goFajzA8djepBiitC6Uj30QYzbA6OxAyFty9Da3m7nr24aaR2p5NDaBtYaONcD8x4aaa3lfeiizlHdCMmZHqSYIrQGAKA/EFpXz8Y1ALCw9Vto7T5AMTo/taum0dMJt2k1z2ntzz+tAWxHobUNvcP75wyt66FzZH8pDZOD26YPreOOE9m+bbu29H7IfeaDGNsXoXWluia0dlOJeHNTxzxnNFAe1iD3u+FAOSloDs9p7QfeY23mqk4MrWM+tDF3aO2+j4TOWvFzWhc/0lpv44MY8xehNQAA/YHQuno2rgGAha3vQmspf7R18wcr+uG0fkBieF93uzfFhwuuE8JvP5C2bbs2NJgd21wfPZ0YWtvQO/ihi16wrMeOTg+SFHDHhMluVHTwnJJvSxFatwma/XYC673t9f7K97Hbxq+jwkVoXanuCa2l/NHWtabg2g+s9QMSm/f1g2advqgxzYeGxvUA3AaubrvQBzZquLxsU330dGJoHfOhi9vXjHrnGjs9yIFt9ZC7MUo5Glr7obF/To3Rz8m35QitvVHdzXNa+6Ovx8x13wn3t5YfaEs7MeuocBFaAwDQHwitq2fjGgBY2HovtE5ZNnSWcwtU/LQhfmg9Ze7Zt9mMBfaJBtb18kZBB9rWEDlw35NDaykbRrt9NZS+Z0pD4+aR0i4g97b1Qu0WI6Cj5+TNsR0+/7ShdcvpPrTslB8Dk3afFlOAtJzvmgoVoXWl5jG0TlmxH94Y/vDFYPlB86S565FNZtlIY97qUDjtyobZ9XbPdyOxg23FhdZSdrS1a//86x8xf7pqxAxPxYTWUge2uTBdttdg+/C+ptDa29abvzp4fzV8DwfF2UPr4GuiX+df1zwNSaspQFrOd02FitAaAID+QGhdPRvXAMDC1rehdYaqh9YEqx1WUpiuI8sHY8NsqrkIrSvVfaF1xqqH1gmhNtWqNPgeNcNLo+H0drN2dMSMMZ91qiK0BgCgPxBaV8/GNQCwsBFaE1oXUnFThLSYNoRqLkLrShFaL/SKmyKkxbQhVHMRWgMA0B8Iratn4xoAWNgIrQmtiyl/tPVYfVR1zFzZVMsitK4UofWCL3+09fhn3ahqO/p68k7zbHD+ayqxCK0BAOgPhNbVs3ENACxshNYU1R1FaF2png+tKarqIrQGAKA/EFpXz1x77bUURVELviYnJ82b3/xmQmuKqrgIrStFaE1ROYvQGgCA/kBoXS7p23OlT4ftt7EmpT5DURRFeXWRVB6E1hSVswitK0VoTVE5i9AaAID+QGhdHunP/yZ9e1zqeqlT7c0AgBIRWlNUziK0rhShNUXlLEJrAAD6A6F1OaQfz5N+fc7267fl6zfbVQCAEhFaU1TOIrSuFKE1ReUsQmsAAPoDoXU5pE8npJ4ntAaA+UVoTVE5i9C6UoTWFJWzCK0BAOgPhNblILQGgGoQWndz/e3fmuMf/ag58b73mZe/+934bajKi9C6UoTWXV4nzjvPmEWLzOvXXmteOnIkdhuq2iK0BgCgPxBal4PQGgCqoR/kKK+5Ok0T1W31b6Tkh2PkG3OH1IBU3HZU9XX66advkSWh9fx7/9DQ0KuyjP25UNXWP5E6LiXfmJelRqXitqOqr7POOmu7LEekAABAj5LfHQmtSyB9SmgNAECQvCEe0DdG++b4qixPsasAoOvJ69ZX5KL+hHsdk68/IMsBuxoAAAAFkuss/cDAw3rdJddhX5PlmXYVcpA+JbQGAMCRN8R3y5thPezRku//riwJfAD0BLmo/yt53ToZeA37I1kO2dUAAAAomFx/3S/1rFx3/YZcd43am5GD9CWhNQAAjrwR/hupethj3yDvkCWhNYCuJ69fY1LHIq9hT8uSKSgAAADQM+SaltAaAABH3wyDYY99g9T5yZgiBEDXk9er6+SC/o3o65jcxhQhAAAA6BmE1gAAWPJm2DQ1iCu5nSlCAHQ9uaB/Rl6vQv9axL6GMUUIAAAAeoZcvxJaAwCg5E2waWoQV/ImyRQhALqavH41TQ3iSl7DmCIEAAAAPUOuawmtAQBQ+kYYDHmCJeuYIgRAV5PXqaapQeS2o+5rWccUIQAAAOgJhNYAAAh5I6xPDSJviMGRii+4r2U9U4QA6Fry2vVX8joV/SDZ/8/dJl9vlSVThAAAAKDryTUsoTUAAPIGWJ8aRN4Q/1KX9uv9ga+ZIgRAV5LXrwulvD+4yWvVXwdezw4Evv6BLEftLgAAAEDXkmtYQmsAAPRNUN8M7RviFwMhz/2Br5kiBEBXkten2+S1ypsaRJZ/LOX+5cg3peqjrWV5gSz54xsAAAC6mly3EloDABY2eRMMTg3ymizXyfcuqL5D6in9WktuZ4oQAF1HXqfqU4PIcpXUcfsapqG1/iHOC7Tla6YIAQAAQNeT61dCawDAwiZvfsGpQe6Sr6cC3+uUIJ+JfE9oDaBryOtTcGqQp+Xrd8ryRfv9n8r3Hw6sZ4oQAAAAdD25fiW0BgAsbPoGqG+EWvJG+FuynJRlPaSWr39Gyo3EZooQAF1FXpeCU4P8kSyHZHmZ3P5f5evzpAbk6+BIbKYIAQAAQFeTa1ZCawDAwiVvgNGpQU6R7y+XCo2sluUT+r2WrGOKEABdIxJIfyDu9Um2qQfb8jVThAAAAKCrybUroTUAYOGSN77Q1CAa9sj3TaG1fH9t9DbbBABURl6XQlODyHLErgqJbMcUIQAAAAWS66v7pZ6V663f4DqrGNKXhNYAgIVL3/z0TVBL3gR1apDY0Frqp+U2pggB0FXk9ahpahC7qolsyxQhAAAABZNrqvPk2uqwXmPJ9dbXZHmmXYUcpE8JrQEAC5O8+TVNDaK3y21NobXeLl8zRQiAriKvS22nBnFkW6YIAQAAKJhcXy2X0oFNeo31LVmeZVchB+nTRdKfj8nyhCy/JMvT7SoAAPqbvOk1TQ1ib48NreU2pggB0DXk9SjV1CBOZHumCAEAACiAXF8RWpdE+vWdUr+ufSrF798AgIVBLiiapgbR2+Xr2NBalkwRAqBryOtQ6qlBHNmHKUIAAAAKJNdUhNYAAKAYciEROzWIkttjQ2sl3zNFCICuEAmgW04N4sg+TBECAABQILm2IrQGAADFkIuK2KlBlNyeGFrL7UwRAqBy8jqUaWoQJ7IfU4QAAADkJNdWhNYAAKAYcjEROzWIku8TQ2v5milCAFROXn8yTw3iyL5MEQIAAFAQuZ4itAYAAPnJRUTi1CBKvj9Hbv9fuk62a5oCRG5nihAAlZHXnMXyOpR5ahBH9mWKEAAAgILIdRWhNQAAyE8uIn5BLipcaB2aGiQo6WJD9q1PESLLqaT9AaAs8tpz1L6GpZ4axJF961OEyPIrshy2qwAAAJCRXE8RWgMAgGLIxcRNUrvl4uLt9qbU5CJERzn+J6n/LF+/yd4MAPNGXrsuk9egr8nyQ/I61PSHM/1lSdaNxa1Tsu53Zf9dsvz5pG0AAADQnlxPEVoDAAAAQCvyi1J9+hBZ3irfM5IaAACgJITWAAAAANCG/NJUn/5DfnH6piwzTR8CAACA9AitAQAAAKANQmsAAID5Q2gNAAAAAG0QWgMAAMwfQmsAAAAAaIPQGgAAYP4QWpdH+vXj0qfTsvw56dchezMAAACAXiMX9YTWAAAA80SuuwitSyB9erb051/LUj9c/H76FQAAAOhhcmFPaA0AADBP5LqL0LoE0qcTUs/bfv22fP1muwoAAABAr5ELekJrAACAeSLXXYTWJZA+JbQGAAAA+oVc0BNaAwAAzBO57iK0LoH0KaE1AAAA0C/kgp7QGgAAYJ7IdRehdQmkTwmtAQAIkjfFxfKm+CdS/13eGH/G3gwAPUFetwitAQAA5olcdxFal0D6lNAaAIAgeTP8NamT9s1xWpYDdhUAdD15/SK0BgAAmCdy3XW21HP22usO+fp0uwo5SD8SWgMAECRvhpdLudD6DlkSWgPoGfL6RWgNAAAwj+Ta6+NSvyvXXe+WGrQ3IwfpT0JrAACC5M2Q0BpAz5LXL0JrAAAA9DS5niW0BgAgSN4MCa0B9Cx5/SK0BgAAQE+T61lCawAAguTNkNAaQM+S1y9CawAAAPQ0uZ4ltAYAIEjeDAmtAfQsef0itAYAAEBPk+tZQmsAAILkzZDQGkDPktcvQmsAAAD0NLmeJbQGACBI3gwJrQH0LHn9IrQGAABAT5PrWUJrAACC5M2Q0BpAz5LXL0JrAAAA9DS5niW0BgAgSN4MCa0B9Cx5/SK0BgAAQE+T61lCawAAguTNkNAaQM+S168xKUJrAAAA9Cy5niW0BgAgSN4MCa0B9DR57XpGX8ek/khew4bszQAAAEBPkOtYQmsAAILkzZDQGkDPk9ex9/P6BQAAgF4k17KE1gAABMmbIaE1AAAAACAV+f3xEqmr5XfHc/j9sRjSn4TWAAAEyZshoTUAAAAAoC353fFsqb/R3yHl98cvyu+Pp9lVyEH6k9AaAIAgeTMktAYAAAAAtCW/Oy6XOmJ/f/yWLM+yq5CD9Om5Us/afv26LN9kVwEAsDDJGyOhNQAAAACgLfndkdC6JNKfW6R+IP17mfTrYnszAAALE6E1AAAAACANQmsAADAvCK0BAAAAAGkQWgMAgHlBaA0AAAAASIPQGgAAzAtCawAAAABAGoTWAABgXsgFxy9LnbAXHZsJrQEAAAAAcQitAQDAvJGLjn8jFxxfkAuON9mbAAAAAAAIIbQGAAAAAAAAAHQNQmsAAAAASEF+cfpd+aVpl/4SJb84McURAABASQitAQAAAKAN+aXp/VLH7C9Oe2U5YlcBAACgYITWAAAAANCG/NJ0YSC0/iahNQAAQHkIrQEAAACgDUJrAACA+UNoDQAAAABtEFoDAADMH0Lrcknfni19Omi/BQAAANCLCK0BAADmD6F1eaRfd+p1rdS/ln49xd4MAAAAoNfIRT2hNQAAwDyR6y5C6xJIP54n/fqc7ddvy9dvtqsAAAAA9Bq5oCe0BgAAmCdy3UVoXQLp0wmp5wmtAQAAgD4gF/SE1gAAAPNErrsIrUsgfUpoDQAAAPQLuaAntAYAAJgnct1FaF0C6VNCawAAouSN8aflTfFXZDlgbwKAniCvXYTWAAAA80SuuwitSyB9SmgNAECQvClqYH1C3xxluUGWBNcAeoa8bhFaAwAAzBO51tIPDDxsr72+Jssz7SrkIH1KaA0AQJC8GV4uddK+Od4hS0JrAD1DXr8IrQEAAOaRXHN9XepluQZbK7XI3owcpB8JrQEACJI3Q0JrAD1LXr8IrQEAANDT5HqW0BoAgCB5MyS0BtCz5PWL0BoAAAA9Ta5nCa0BAAiSN0NCawA9S16/CK0BAADQ0+R6ltAaAIAgeTMktAbQs+T1i9AaAAAAPU2uZwmtAQAIkjdDQmsAPUtevwitAQAA0NPkepbQGgCAIHkzJLQG0LPk9YvQGgAAAD1NrmcJrQEACJI3Q0JrAD1LXr8IrQEAANDT5HqW0BoAgCB5MyS0BtCz5PWL0BoAAAA9Ta5nCa0BAAiSN0NCawA9S16/Og6tZdvFsu9KWV5UZEmbPynLzK+lst/7yzgfqUF7iEzkXC6MaStXSZs/I8tO+uYnSuqbU+whMpFzWRrTVq6SNn9Rlpl/VrLf28roG2nzzbLs5GdVRt+MyzJz38g+Z8q+ZTyO/44sO+mbD0qV8TgesodITfbR178LIu0UUe+R6uRx/L4y+kbaPNUeIhPZd0W0rbwl56Kvf508jt8l+xb+OJY6TaqTx/GHiv5ZSXv6+pf5cSz7nS1VxuP4rVKd9M3Pl9A3y2Q5bA+RmuxzplQZj+Mfl2VH1xVoTfqW0BoAgCB5MyS0BtCz5PVLA7uj9jVshyxT/2In2/+Ve/0ruqRdDe5Sv57K9r8h5YXvRZfcz+/IctQeKhXZ55tyPieibRVRel9lmTqc0L6Uej3aThEl9/P/yHKxPVQqss9X5HzeiLZVREm7vyvL1I9h2V7/0PFatJ0iSu7na9L22+Xr1I9j2ecW2ed4tK0iStq+XZapH8ey7Zmyj/fLfxkl9zPTHxlk+9+R8l6rii65nw/JMtPjWM5lVqqs179/JMssj+Nfl3o12k4RJX3zmCxPs4dKRfb5qpxPWc/xfy7L1H9cle3Pl/pRtJ0iSu7nD2V5pj1UKrLPf5DzKeVxLO3+nixTP45lew2sj0TbKaLkfr4ubWf6A/QbtdqnZZ+yHsdflLZT/wFGtl0k+xySZVnP8QlZZv4jA1rTfpUitAYAwJE3Q0JrAD1NXsOultev+2S5PO1rmGx3luzzor72lVFyLmtkmSWY/X2pssK+/yNtL7KHSkX2+YHsU9Yvu9fJMkug9S+lygr0NfA9RypLMPsNOZ+yAv0/lmXqYFa2/6hUKYG+rV+QSh3MSt/skSqlb6Tdv5BllkBLR+6WEiDZ+odSqZ/jcv4aOpX1HNc/wKUOtGQfHYH+bLSdokra/qQsswSzn5Iq5XEs7b72o1rtbHuoVKQ/D8p+pbz+SW2WyvI4/mdSr0TaKKTkfmow+xPydZbXv4dln7Iex38ibWcJZpdLlfk+rv/CI8tz/EuyT1l/YP2WLFP/gUHO451SZf7R7p/KMtMfw9Ge9CuhNQAAQfJmSGgNYEGS175flde9nVJ/XmRJu78nlemfpMtrr4bo26S+HmyrgLpfzuXD0n6mf8or+1wo+94baauI2iLnkumfXcu2Oo3B78u+X4u0lbd2H6/V/rG0n2m0mJzLB2Xf/yJV9M9KQ813ZukbJfv8K9n3zyJt5S5pV//wkumfpMs+75N9vyRVdN/cIW1/QM4n6+P4X8i+X420lbuk3X8n55Jp/nzZ522y7y1SRT+O75K2dXqErI/jvy/7Phhpq4jaKueSafSubi/7/aFU0Y/jB+R+/qq0n+lxLNuvkP3ukv2LfhzfKm1n+iOZbKuvf78t+xb9ON4j7WrwmPVx/AHZ9z9LFf041n/BoiObsz7Hp2TfvZG2cpe0u14q0x975dzfJft+TqrovvlTOZdfkvazPscvlX3vlyr0cSzt/oGcS0dTa6E16VtCawAAguTNkNAaAAAAAICKEFoDABBBaA0AAAAAQHUIrQEAiCC0BgAAAACgOvI7+SKpZ+R38pNSOmXOGXYVAAALE6E1AAAAAADVkt/Lz5VaJb+T6/z3meZ4BwCg7xBaAwAAAAAAAAC6BqE1AAAAAAAAAKBrEFoDAAAAAAAAALoGoTUAAAAAAAAAoGuYWu2cE7Xa8xpan6zV/i6hNQAAAAAAAACgUqZWW6zhtf0WAAAAAAAAAAAAAAAAAAAAAAAAAAAAAAAAAAAAAAAAAAAAAAAAAAAAAAAAAAAAAAAAAAAAAAAAAIAudrJW+/iJWm1alj9narUhezMAAAAAAAAAAPPrZK129ola7a9leVKW95ta7Sy7CgAAAAAAAACA+XWyVpuQet7UauZErfZt+frNdhUAAAAAAAAAAPOL0BoAAAAAAAAA0DUIrQEAAAAAAAAAXYPQGgCACHlTXCxviv9J6n55Y/wZezMAAAAAAJgHhNYAAETIm+EvS52wb46bZTlgVwEAAAAAgJIRWgMAECFvhpdLnbRvjncQWgMAAAAAMH8IrQEAiCC0BgAAAACgOoTWAABEEFoDAAAAAFAdQmsAACIIrQEAAAAAqA6hNQAAEYTWAAAAAABUh9AaAIAIQmsAAAAAAKpDaA0AQAShNQAAAAAA1SG0BgAggtAaAAAAAIDqEFoDABBBaA0AAAAAQHUIrQEAiCC0BgAAAACgOoTWAABEEFoDAAAAAFAdQmsAACIIrQEAAAAAqA6hNQAAEYTWAAAAAABUh9AaAIAIQmsAAAAAAKpDaA0AQAShNQAAAAAA1ZHfyc+Vetb+Xv51Wb7JrgIAYGEitAYAAAAAoFry+/i01A/k9/O18nv5YnszAAALE6E1AAAAAAAAAKBrEFoDAAAAAAAAALoGoTUAAAAAAAAAoGsQWgMAAAAAAAAAusbJWu2XpU7Y0HozoTUAAAAAAAAAoFInarXPS915slZ7u70JAAAAAAAAAAAAAAAAAAAAAAAAAAAAAAAAAAAAAAAAAAAAAAAAAAAAAAAAAAAAAAAAAAAAAAAAAAAAAAAAAAAAANDaiVrtT6RePFmrfUJqib0ZAAAAAAAAAID5ZWq1807Was/J0pyo1b4tX7/ZrgIAAAAAAAAAYH6drNUmpJ4ntAYAAAAAAAAAVI7QGgAAAAAAAADQNQitAQCIIW+M75b6BfstAAAAAACYJ4TWAABEaGAtb4gn9M1RllOyHLCrAAAAAABAyQitAQCIkDfDy6VO2jfHOwitAQAAAACYP4TWAABEEFoDAAAAAFAdQmsAACIIrQEAAAAAqA6hNQAAEYTWAAAAAABUh9AaAIAIQmsAAAAAAKpDaA0AQAShNQAAAAAA1SG0BgAggtAaAAAAAIDqEFoDABBBaA0AAAAAQHUIrQEAiCC0BgAAAACgOoTWAABEEFoDAAAAAFAdQmsAACIIrQEAAAAAqA6hNQAAEYTWAAAAAABUh9AaAIAIQmsAAAAAAKpDaA0AQAShNQAAAAAA1SG0BgAggtAaAAAAAIDqEFoDABBBaA0AAAAAQHXkd/JF8vv4X+nv5rK8S34vP9OuAgBgYSK0BgAAAACgWvK7+Hnyu/mVsny31KC9GQCAhYnQGgAAAAAAAADQNQitAQAAAAAAAABdg9AaAAAAAAAAANA1CK0BAAAAAAAAAF3D1GrnnKzVTmhoLct/RGgNAAAAAAAAAKiUBtdSP22/betkrfZrsv1niixp8zdlmTkwl300dL8m2FYRJW3+jD1EJrLfSqlr49rMUZPS5hJ7iNRkv7Nkv/WRtnKXtLlMlpl/VrLf/1V030h7V0i92R4iNdl3sex3WQnn02nf/ITUH0Tby1PS3iel/o583cn5lNE3H5dl5k9Bl/20b/51tL2c9W+l3iPVSd/8agl981uy7KRv3iZ1dbS9vCVt/pwsO+mbC6WKfhxPSZ1qD5Ga7Hum7LdWquif1YQsO/lZfVDq09H28pS0t0HqLfJ1pp+VbK+vf/9Squi++buyHLKHSU320+f470fby1PS3m9LvUO+7uRx/I+lin4c/zNZDttDpCb76XP8X0Xby1n/Vto8V5aZH8eyz0dk36Ifx6ukTreHSE321ef4lVJFP44/IMtOnuPnSxX9ON4odbZ8nelxLPssktJ+LfpxfIEsO3kcv1fq96Lt5Slp77dl+S6pTn5WvyVVdN/8fVmO2EOkJvu8S++LVGGPY2nrU1Lvl687eT3+uFTRj+N/LrXIHiI12edsKb3OL7RvZPnTUp30zcVS/y7YXt6S9lbL8iypzO9VAAAgxola7SZ5g/WmEym67PQkqS8+ZdvFss8rwTaKLLmfvyTL1BcRsv01Ut6o9aJL7uc3ZJnpAkv2mYu2U1TJ/fx1WWbpm1+TeiPaThEl9/MHssz0S5Ts82dyPqU8jqXd35Fl6sexbK9h/vFoO0WU3M/XpO1MYYDs82XZp6zH8a2yTP04lvN4m+zzYrSdokraf58sszyOPy1V1uN4hyxT/8Ir2+rr31/J+ZT1OP6YLLM8jjUEPRZtp4iS+/k9aTvTL7yyz1/KPqU8jqXWSWV5HP8DqaORNgopuZ//R5Zn2UOlIvvsKatvpN3rZZn6cSzba5j/WrSdIkrup77+/aR8nfo5Lvt8UfYp6/X4v0jbqR/Hsq2+/j0f11YRJe1n+gOMbK9B2OvRdooouZ9/IctT7KHakm319W9Wzqes17+/J8vU1xWy/T+TKuV6VO7nY9J21vfxv5B9SnmvknavlOWoPVRbsu0K2eelYBtFldzPH8pSB95keY7/sZxPKa/H0u5WWWZ5HGtgfTjYRlEl9/N1aftn5evUz3HZ549kn1ejbRVR0vad0nbqx7Fsq394+Wupsp7jl8gy9XNctl0n+5T1OP62tJ15AA4AAIghb6z3lXUBIW0/IMssofU5sk+ZobWOGstyIXxjiX1zQJapQxLZVn+h+5tgG0WW3M+Nsszyy+4npMoKQv+3LE+zh0pF9vluiT+rLbLMEmjpyN0yQ+t3ytdZHsf3lPiz+lNZZgkCNNAvJQjVkrbPl2WWvtkm+5QVWn9HlqmDADmPUgN9qX8ileU5frVUWY9jDWYX20O1pdvKPj+Q8ynrl93flWWWx/FVUmUF+vocf7t8neVx/N9ln7Ke47fJMsvjWAP9UoJQLWn7F2WZJbS5S/Yp6zn+kCxTP47lPDTQL/Ma51JZpn4cy/lvln3K+uOLBrOp/0WFbKuvf8/KMra9vCXt6sj4LH980X/1UFbY90Np+wx7qLZk20WyzzOyLOsPU7+nx7CHa0u2/XtSP4prK2/J/dTXjndLZXn9+4ZUWYH+F6SyPI5/XupIXFtFlLSt//ov9fWo9MtXZJ+y/jA1I8sz7aHakvM4W/b5G1mW9T6u/8I39XuVnMu/l31KeT2Wdr8v9RZ7KAAAkIe8uZYyHYeU/nPVt9vDpCb7/LJUof80VEvazDxdiWxfynQcWtLuT9rDpCb7jJXRN1KZpyuRffSfo+uHfpbxs9JQItPPSvZ5v1Sh/zRUS9rsaLoS2ec3pMrom4tlmbVvypiOQ8+lo+lKZJ+PSZXRNxrYpA6zlOyj/1T/E9G2CqiOpiuRc1kqVcbjeEqWqX/RVbK9vv4VPh2HlrSZeboS2Uef44VOY6AlbWo4lWm6EtmvlOk4tKTN5bLM+jh+n1QZfaP/XP+tUll/VoVPx6ElbWaerkT20de/oqfj0NJrnMzTlcg+H5Uq42eVeboS2Udf/wqfjkNL2nyvLLM+jgufjkNL2lwly9RhlpLtdaqS1VJl9M0HZZn1cVz4dBxa0qZOV3KGfJ36cSzb64hZHYlexnM883Qlsr2Obv6/pQr9WUl7OsXH2+TrrM/xS6XKeI7rdCWZHseyj07Hoe9xRfeNTsmhf1zI+hy/RKrQ6Ti0pM1/IcvUf0BUsv2ZUvr7TxmP45+RZabnOAAAAAAAAAAAFajV/n9C70hxOK1b+AAAAABJRU5ErkJggg==;" vertex="1" parent="1">
          <mxGeometry x="2650" y="802" width="1453" height="904" as="geometry" />
        </mxCell>
        <mxCell id="ei6kTYKVST2P0mMHp64S-108" value="Client" style="swimlane;fontStyle=1;align=center;verticalAlign=top;childLayout=stackLayout;horizontal=1;startSize=26;horizontalStack=0;resizeParent=1;resizeParentMax=0;resizeLast=0;collapsible=1;marginBottom=0;whiteSpace=wrap;html=1;" vertex="1" parent="1">
          <mxGeometry x="1430" y="790" width="160" height="52" as="geometry" />
        </mxCell>
        <mxCell id="ei6kTYKVST2P0mMHp64S-112" value="&lt;span style=&quot;font-weight: normal;&quot;&gt;&amp;lt;&amp;lt;interface&amp;gt;&amp;gt;&lt;/span&gt;&lt;div&gt;IVisitor&lt;/div&gt;" style="swimlane;fontStyle=3;align=center;verticalAlign=top;childLayout=stackLayout;horizontal=1;startSize=40;horizontalStack=0;resizeParent=1;resizeParentMax=0;resizeLast=0;collapsible=1;marginBottom=0;whiteSpace=wrap;html=1;fillColor=#d5e8d4;strokeColor=#82b366;" vertex="1" parent="1">
          <mxGeometry x="1960" y="630" width="200" height="92" as="geometry" />
        </mxCell>
        <mxCell id="ei6kTYKVST2P0mMHp64S-113" value="+Visit(ConcreteElementA)" style="text;strokeColor=none;fillColor=none;align=left;verticalAlign=top;spacingLeft=4;spacingRight=4;overflow=hidden;rotatable=0;points=[[0,0.5],[1,0.5]];portConstraint=eastwest;whiteSpace=wrap;html=1;fontStyle=2" vertex="1" parent="ei6kTYKVST2P0mMHp64S-112">
          <mxGeometry y="40" width="200" height="26" as="geometry" />
        </mxCell>
        <mxCell id="ei6kTYKVST2P0mMHp64S-117" value="+Visit(ConcreteElementB)" style="text;strokeColor=none;fillColor=none;align=left;verticalAlign=top;spacingLeft=4;spacingRight=4;overflow=hidden;rotatable=0;points=[[0,0.5],[1,0.5]];portConstraint=eastwest;whiteSpace=wrap;html=1;fontStyle=2" vertex="1" parent="ei6kTYKVST2P0mMHp64S-112">
          <mxGeometry y="66" width="200" height="26" as="geometry" />
        </mxCell>
        <mxCell id="ei6kTYKVST2P0mMHp64S-118" value="Element" style="swimlane;fontStyle=3;align=center;verticalAlign=top;childLayout=stackLayout;horizontal=1;startSize=26;horizontalStack=0;resizeParent=1;resizeParentMax=0;resizeLast=0;collapsible=1;marginBottom=0;whiteSpace=wrap;html=1;fillColor=#dae8fc;strokeColor=#6c8ebf;" vertex="1" parent="1">
          <mxGeometry x="1980" y="794" width="160" height="78" as="geometry" />
        </mxCell>
        <mxCell id="ei6kTYKVST2P0mMHp64S-119" value="+Accept(v:IVisitor)" style="text;strokeColor=none;fillColor=none;align=left;verticalAlign=top;spacingLeft=4;spacingRight=4;overflow=hidden;rotatable=0;points=[[0,0.5],[1,0.5]];portConstraint=eastwest;whiteSpace=wrap;html=1;fontStyle=3" vertex="1" parent="ei6kTYKVST2P0mMHp64S-118">
          <mxGeometry y="26" width="160" height="26" as="geometry" />
        </mxCell>
        <mxCell id="ei6kTYKVST2P0mMHp64S-120" value="..." style="text;strokeColor=none;fillColor=none;align=left;verticalAlign=top;spacingLeft=4;spacingRight=4;overflow=hidden;rotatable=0;points=[[0,0.5],[1,0.5]];portConstraint=eastwest;whiteSpace=wrap;html=1;" vertex="1" parent="ei6kTYKVST2P0mMHp64S-118">
          <mxGeometry y="52" width="160" height="26" as="geometry" />
        </mxCell>
        <mxCell id="ei6kTYKVST2P0mMHp64S-121" value="ConcreteElementB" style="swimlane;fontStyle=1;align=center;verticalAlign=top;childLayout=stackLayout;horizontal=1;startSize=26;horizontalStack=0;resizeParent=1;resizeParentMax=0;resizeLast=0;collapsible=1;marginBottom=0;whiteSpace=wrap;html=1;fillColor=#dae8fc;strokeColor=#6c8ebf;" vertex="1" parent="1">
          <mxGeometry x="2080" y="920" width="160" height="86" as="geometry" />
        </mxCell>
        <mxCell id="ei6kTYKVST2P0mMHp64S-122" value="+Accept(v:Visitor)" style="text;strokeColor=none;fillColor=none;align=left;verticalAlign=top;spacingLeft=4;spacingRight=4;overflow=hidden;rotatable=0;points=[[0,0.5],[1,0.5]];portConstraint=eastwest;whiteSpace=wrap;html=1;fontStyle=1" vertex="1" parent="ei6kTYKVST2P0mMHp64S-121">
          <mxGeometry y="26" width="160" height="26" as="geometry" />
        </mxCell>
        <mxCell id="ei6kTYKVST2P0mMHp64S-123" value="" style="line;strokeWidth=1;fillColor=none;align=left;verticalAlign=middle;spacingTop=-1;spacingLeft=3;spacingRight=3;rotatable=0;labelPosition=right;points=[];portConstraint=eastwest;strokeColor=inherit;" vertex="1" parent="ei6kTYKVST2P0mMHp64S-121">
          <mxGeometry y="52" width="160" height="8" as="geometry" />
        </mxCell>
        <mxCell id="ei6kTYKVST2P0mMHp64S-124" value="..." style="text;strokeColor=none;fillColor=none;align=left;verticalAlign=top;spacingLeft=4;spacingRight=4;overflow=hidden;rotatable=0;points=[[0,0.5],[1,0.5]];portConstraint=eastwest;whiteSpace=wrap;html=1;" vertex="1" parent="ei6kTYKVST2P0mMHp64S-121">
          <mxGeometry y="60" width="160" height="26" as="geometry" />
        </mxCell>
        <mxCell id="ei6kTYKVST2P0mMHp64S-125" value="ConcreteElementA" style="swimlane;fontStyle=1;align=center;verticalAlign=top;childLayout=stackLayout;horizontal=1;startSize=26;horizontalStack=0;resizeParent=1;resizeParentMax=0;resizeLast=0;collapsible=1;marginBottom=0;whiteSpace=wrap;html=1;fillColor=#dae8fc;strokeColor=#6c8ebf;" vertex="1" parent="1">
          <mxGeometry x="1880" y="920" width="160" height="86" as="geometry" />
        </mxCell>
        <mxCell id="ei6kTYKVST2P0mMHp64S-126" value="+Accept(v:Visitor)" style="text;strokeColor=none;fillColor=none;align=left;verticalAlign=top;spacingLeft=4;spacingRight=4;overflow=hidden;rotatable=0;points=[[0,0.5],[1,0.5]];portConstraint=eastwest;whiteSpace=wrap;html=1;fontStyle=1" vertex="1" parent="ei6kTYKVST2P0mMHp64S-125">
          <mxGeometry y="26" width="160" height="26" as="geometry" />
        </mxCell>
        <mxCell id="ei6kTYKVST2P0mMHp64S-127" value="" style="line;strokeWidth=1;fillColor=none;align=left;verticalAlign=middle;spacingTop=-1;spacingLeft=3;spacingRight=3;rotatable=0;labelPosition=right;points=[];portConstraint=eastwest;strokeColor=inherit;" vertex="1" parent="ei6kTYKVST2P0mMHp64S-125">
          <mxGeometry y="52" width="160" height="8" as="geometry" />
        </mxCell>
        <mxCell id="ei6kTYKVST2P0mMHp64S-128" value="..." style="text;strokeColor=none;fillColor=none;align=left;verticalAlign=top;spacingLeft=4;spacingRight=4;overflow=hidden;rotatable=0;points=[[0,0.5],[1,0.5]];portConstraint=eastwest;whiteSpace=wrap;html=1;" vertex="1" parent="ei6kTYKVST2P0mMHp64S-125">
          <mxGeometry y="60" width="160" height="26" as="geometry" />
        </mxCell>
        <mxCell id="ei6kTYKVST2P0mMHp64S-130" value="" style="endArrow=block;endSize=16;endFill=0;html=1;rounded=0;" edge="1" source="ei6kTYKVST2P0mMHp64S-125" target="ei6kTYKVST2P0mMHp64S-118" parent="1">
          <mxGeometry width="160" relative="1" as="geometry">
            <mxPoint x="1990" y="1000" as="sourcePoint" />
            <mxPoint x="2150" y="1000" as="targetPoint" />
          </mxGeometry>
        </mxCell>
        <mxCell id="ei6kTYKVST2P0mMHp64S-131" value="" style="endArrow=block;endSize=16;endFill=0;html=1;rounded=0;" edge="1" source="ei6kTYKVST2P0mMHp64S-121" target="ei6kTYKVST2P0mMHp64S-118" parent="1">
          <mxGeometry width="160" relative="1" as="geometry">
            <mxPoint x="1990" y="1000" as="sourcePoint" />
            <mxPoint x="2150" y="1000" as="targetPoint" />
          </mxGeometry>
        </mxCell>
        <mxCell id="ei6kTYKVST2P0mMHp64S-132" value="" style="endArrow=open;endSize=12;dashed=1;html=1;rounded=0;" edge="1" parent="1" source="ei6kTYKVST2P0mMHp64S-118" target="ei6kTYKVST2P0mMHp64S-112">
          <mxGeometry width="160" relative="1" as="geometry">
            <mxPoint x="2370" y="840" as="sourcePoint" />
            <mxPoint x="2530" y="840" as="targetPoint" />
          </mxGeometry>
        </mxCell>
        <mxCell id="ei6kTYKVST2P0mMHp64S-133" value="" style="endArrow=open;endSize=12;dashed=1;html=1;rounded=0;edgeStyle=orthogonalEdgeStyle;" edge="1" parent="1" source="ei6kTYKVST2P0mMHp64S-112" target="ei6kTYKVST2P0mMHp64S-121">
          <mxGeometry width="160" relative="1" as="geometry">
            <mxPoint x="2320" y="1050" as="sourcePoint" />
            <mxPoint x="2480" y="1050" as="targetPoint" />
            <Array as="points">
              <mxPoint x="2210" y="710" />
            </Array>
          </mxGeometry>
        </mxCell>
        <mxCell id="ei6kTYKVST2P0mMHp64S-134" value="" style="endArrow=open;endSize=12;dashed=1;html=1;rounded=0;edgeStyle=orthogonalEdgeStyle;" edge="1" parent="1" source="ei6kTYKVST2P0mMHp64S-112" target="ei6kTYKVST2P0mMHp64S-125">
          <mxGeometry width="160" relative="1" as="geometry">
            <mxPoint x="2380" y="852" as="sourcePoint" />
            <mxPoint x="2240" y="950" as="targetPoint" />
            <Array as="points">
              <mxPoint x="2260" y="676" />
              <mxPoint x="2260" y="1030" />
              <mxPoint x="1960" y="1030" />
            </Array>
          </mxGeometry>
        </mxCell>
        <mxCell id="ei6kTYKVST2P0mMHp64S-136" value="" style="endArrow=open;endSize=12;dashed=1;html=1;rounded=0;" edge="1" parent="1" source="ei6kTYKVST2P0mMHp64S-108" target="ei6kTYKVST2P0mMHp64S-118">
          <mxGeometry width="160" relative="1" as="geometry">
            <mxPoint x="1510" y="1080" as="sourcePoint" />
            <mxPoint x="1670" y="1080" as="targetPoint" />
          </mxGeometry>
        </mxCell>
        <mxCell id="ei6kTYKVST2P0mMHp64S-137" value="" style="endArrow=open;endSize=12;dashed=1;html=1;rounded=0;" edge="1" parent="1" source="ei6kTYKVST2P0mMHp64S-108" target="ei6kTYKVST2P0mMHp64S-112">
          <mxGeometry width="160" relative="1" as="geometry">
            <mxPoint x="1510" y="1080" as="sourcePoint" />
            <mxPoint x="1670" y="1080" as="targetPoint" />
          </mxGeometry>
        </mxCell>
        <mxCell id="ei6kTYKVST2P0mMHp64S-139" value="ConcreteElementC" style="swimlane;fontStyle=1;align=center;verticalAlign=top;childLayout=stackLayout;horizontal=1;startSize=26;horizontalStack=0;resizeParent=1;resizeParentMax=0;resizeLast=0;collapsible=1;marginBottom=0;whiteSpace=wrap;html=1;fillColor=#dae8fc;strokeColor=#6c8ebf;" vertex="1" parent="1">
          <mxGeometry x="1430" y="900" width="160" height="86" as="geometry" />
        </mxCell>
        <mxCell id="ei6kTYKVST2P0mMHp64S-140" value="+Accept(v:Visitor)" style="text;strokeColor=none;fillColor=none;align=left;verticalAlign=top;spacingLeft=4;spacingRight=4;overflow=hidden;rotatable=0;points=[[0,0.5],[1,0.5]];portConstraint=eastwest;whiteSpace=wrap;html=1;fontStyle=1" vertex="1" parent="ei6kTYKVST2P0mMHp64S-139">
          <mxGeometry y="26" width="160" height="26" as="geometry" />
        </mxCell>
        <mxCell id="ei6kTYKVST2P0mMHp64S-141" value="" style="line;strokeWidth=1;fillColor=none;align=left;verticalAlign=middle;spacingTop=-1;spacingLeft=3;spacingRight=3;rotatable=0;labelPosition=right;points=[];portConstraint=eastwest;strokeColor=inherit;" vertex="1" parent="ei6kTYKVST2P0mMHp64S-139">
          <mxGeometry y="52" width="160" height="8" as="geometry" />
        </mxCell>
        <mxCell id="ei6kTYKVST2P0mMHp64S-142" value="..." style="text;strokeColor=none;fillColor=none;align=left;verticalAlign=top;spacingLeft=4;spacingRight=4;overflow=hidden;rotatable=0;points=[[0,0.5],[1,0.5]];portConstraint=eastwest;whiteSpace=wrap;html=1;" vertex="1" parent="ei6kTYKVST2P0mMHp64S-139">
          <mxGeometry y="60" width="160" height="26" as="geometry" />
        </mxCell>
        <mxCell id="ei6kTYKVST2P0mMHp64S-143" value="" style="endArrow=block;endSize=16;endFill=0;html=1;rounded=0;" edge="1" parent="1" source="ei6kTYKVST2P0mMHp64S-139" target="ei6kTYKVST2P0mMHp64S-118">
          <mxGeometry width="160" relative="1" as="geometry">
            <mxPoint x="1990" y="1000" as="sourcePoint" />
            <mxPoint x="2150" y="1000" as="targetPoint" />
          </mxGeometry>
        </mxCell>
        <mxCell id="ei6kTYKVST2P0mMHp64S-144" value="app" style="shape=module;align=left;spacingLeft=20;align=center;verticalAlign=top;whiteSpace=wrap;html=1;" vertex="1" parent="1">
          <mxGeometry x="1290" y="1150" width="420" height="470" as="geometry" />
        </mxCell>
        <mxCell id="ei6kTYKVST2P0mMHp64S-145" value="library_module" style="shape=module;align=left;spacingLeft=20;align=center;verticalAlign=top;whiteSpace=wrap;html=1;" vertex="1" parent="1">
          <mxGeometry x="1800" y="1150" width="510" height="470" as="geometry" />
        </mxCell>
        <mxCell id="ei6kTYKVST2P0mMHp64S-146" value="Client" style="swimlane;fontStyle=1;align=center;verticalAlign=top;childLayout=stackLayout;horizontal=1;startSize=26;horizontalStack=0;resizeParent=1;resizeParentMax=0;resizeLast=0;collapsible=1;marginBottom=0;whiteSpace=wrap;html=1;" vertex="1" parent="1">
          <mxGeometry x="1430" y="1340" width="160" height="52" as="geometry" />
        </mxCell>
        <mxCell id="ei6kTYKVST2P0mMHp64S-147" value="&lt;span style=&quot;font-weight: normal;&quot;&gt;&amp;lt;&amp;lt;interface&amp;gt;&amp;gt;&lt;/span&gt;&lt;div&gt;IVisitor&lt;/div&gt;" style="swimlane;fontStyle=3;align=center;verticalAlign=top;childLayout=stackLayout;horizontal=1;startSize=40;horizontalStack=0;resizeParent=1;resizeParentMax=0;resizeLast=0;collapsible=1;marginBottom=0;whiteSpace=wrap;html=1;fillColor=#d5e8d4;strokeColor=#82b366;" vertex="1" parent="1">
          <mxGeometry x="1960" y="1180" width="200" height="118" as="geometry" />
        </mxCell>
        <mxCell id="ei6kTYKVST2P0mMHp64S-148" value="+Visit(ConcreteElementA)" style="text;strokeColor=none;fillColor=none;align=left;verticalAlign=top;spacingLeft=4;spacingRight=4;overflow=hidden;rotatable=0;points=[[0,0.5],[1,0.5]];portConstraint=eastwest;whiteSpace=wrap;html=1;fontStyle=2" vertex="1" parent="ei6kTYKVST2P0mMHp64S-147">
          <mxGeometry y="40" width="200" height="26" as="geometry" />
        </mxCell>
        <mxCell id="ei6kTYKVST2P0mMHp64S-149" value="+Visit(ConcreteElementB)" style="text;strokeColor=none;fillColor=none;align=left;verticalAlign=top;spacingLeft=4;spacingRight=4;overflow=hidden;rotatable=0;points=[[0,0.5],[1,0.5]];portConstraint=eastwest;whiteSpace=wrap;html=1;fontStyle=2" vertex="1" parent="ei6kTYKVST2P0mMHp64S-147">
          <mxGeometry y="66" width="200" height="26" as="geometry" />
        </mxCell>
        <mxCell id="ei6kTYKVST2P0mMHp64S-173" value="+Visit(ConcreteElementC)" style="text;strokeColor=#b85450;fillColor=#f8cecc;align=left;verticalAlign=top;spacingLeft=4;spacingRight=4;overflow=hidden;rotatable=0;points=[[0,0.5],[1,0.5]];portConstraint=eastwest;whiteSpace=wrap;html=1;fontStyle=2" vertex="1" parent="ei6kTYKVST2P0mMHp64S-147">
          <mxGeometry y="92" width="200" height="26" as="geometry" />
        </mxCell>
        <mxCell id="ei6kTYKVST2P0mMHp64S-150" value="Element" style="swimlane;fontStyle=3;align=center;verticalAlign=top;childLayout=stackLayout;horizontal=1;startSize=26;horizontalStack=0;resizeParent=1;resizeParentMax=0;resizeLast=0;collapsible=1;marginBottom=0;whiteSpace=wrap;html=1;fillColor=#dae8fc;strokeColor=#6c8ebf;" vertex="1" parent="1">
          <mxGeometry x="1980" y="1344" width="160" height="78" as="geometry" />
        </mxCell>
        <mxCell id="ei6kTYKVST2P0mMHp64S-151" value="+Accept(v:IVisitor)" style="text;strokeColor=none;fillColor=none;align=left;verticalAlign=top;spacingLeft=4;spacingRight=4;overflow=hidden;rotatable=0;points=[[0,0.5],[1,0.5]];portConstraint=eastwest;whiteSpace=wrap;html=1;fontStyle=3" vertex="1" parent="ei6kTYKVST2P0mMHp64S-150">
          <mxGeometry y="26" width="160" height="26" as="geometry" />
        </mxCell>
        <mxCell id="ei6kTYKVST2P0mMHp64S-152" value="..." style="text;strokeColor=none;fillColor=none;align=left;verticalAlign=top;spacingLeft=4;spacingRight=4;overflow=hidden;rotatable=0;points=[[0,0.5],[1,0.5]];portConstraint=eastwest;whiteSpace=wrap;html=1;" vertex="1" parent="ei6kTYKVST2P0mMHp64S-150">
          <mxGeometry y="52" width="160" height="26" as="geometry" />
        </mxCell>
        <mxCell id="ei6kTYKVST2P0mMHp64S-153" value="ConcreteElementB" style="swimlane;fontStyle=1;align=center;verticalAlign=top;childLayout=stackLayout;horizontal=1;startSize=26;horizontalStack=0;resizeParent=1;resizeParentMax=0;resizeLast=0;collapsible=1;marginBottom=0;whiteSpace=wrap;html=1;fillColor=#dae8fc;strokeColor=#6c8ebf;" vertex="1" parent="1">
          <mxGeometry x="2080" y="1470" width="160" height="86" as="geometry" />
        </mxCell>
        <mxCell id="ei6kTYKVST2P0mMHp64S-154" value="+Accept(v:Visitor)" style="text;strokeColor=none;fillColor=none;align=left;verticalAlign=top;spacingLeft=4;spacingRight=4;overflow=hidden;rotatable=0;points=[[0,0.5],[1,0.5]];portConstraint=eastwest;whiteSpace=wrap;html=1;fontStyle=1" vertex="1" parent="ei6kTYKVST2P0mMHp64S-153">
          <mxGeometry y="26" width="160" height="26" as="geometry" />
        </mxCell>
        <mxCell id="ei6kTYKVST2P0mMHp64S-155" value="" style="line;strokeWidth=1;fillColor=none;align=left;verticalAlign=middle;spacingTop=-1;spacingLeft=3;spacingRight=3;rotatable=0;labelPosition=right;points=[];portConstraint=eastwest;strokeColor=inherit;" vertex="1" parent="ei6kTYKVST2P0mMHp64S-153">
          <mxGeometry y="52" width="160" height="8" as="geometry" />
        </mxCell>
        <mxCell id="ei6kTYKVST2P0mMHp64S-156" value="..." style="text;strokeColor=none;fillColor=none;align=left;verticalAlign=top;spacingLeft=4;spacingRight=4;overflow=hidden;rotatable=0;points=[[0,0.5],[1,0.5]];portConstraint=eastwest;whiteSpace=wrap;html=1;" vertex="1" parent="ei6kTYKVST2P0mMHp64S-153">
          <mxGeometry y="60" width="160" height="26" as="geometry" />
        </mxCell>
        <mxCell id="ei6kTYKVST2P0mMHp64S-157" value="ConcreteElementA" style="swimlane;fontStyle=1;align=center;verticalAlign=top;childLayout=stackLayout;horizontal=1;startSize=26;horizontalStack=0;resizeParent=1;resizeParentMax=0;resizeLast=0;collapsible=1;marginBottom=0;whiteSpace=wrap;html=1;fillColor=#dae8fc;strokeColor=#6c8ebf;" vertex="1" parent="1">
          <mxGeometry x="1880" y="1470" width="160" height="86" as="geometry" />
        </mxCell>
        <mxCell id="ei6kTYKVST2P0mMHp64S-158" value="+Accept(v:Visitor)" style="text;strokeColor=none;fillColor=none;align=left;verticalAlign=top;spacingLeft=4;spacingRight=4;overflow=hidden;rotatable=0;points=[[0,0.5],[1,0.5]];portConstraint=eastwest;whiteSpace=wrap;html=1;fontStyle=1" vertex="1" parent="ei6kTYKVST2P0mMHp64S-157">
          <mxGeometry y="26" width="160" height="26" as="geometry" />
        </mxCell>
        <mxCell id="ei6kTYKVST2P0mMHp64S-159" value="" style="line;strokeWidth=1;fillColor=none;align=left;verticalAlign=middle;spacingTop=-1;spacingLeft=3;spacingRight=3;rotatable=0;labelPosition=right;points=[];portConstraint=eastwest;strokeColor=inherit;" vertex="1" parent="ei6kTYKVST2P0mMHp64S-157">
          <mxGeometry y="52" width="160" height="8" as="geometry" />
        </mxCell>
        <mxCell id="ei6kTYKVST2P0mMHp64S-160" value="..." style="text;strokeColor=none;fillColor=none;align=left;verticalAlign=top;spacingLeft=4;spacingRight=4;overflow=hidden;rotatable=0;points=[[0,0.5],[1,0.5]];portConstraint=eastwest;whiteSpace=wrap;html=1;" vertex="1" parent="ei6kTYKVST2P0mMHp64S-157">
          <mxGeometry y="60" width="160" height="26" as="geometry" />
        </mxCell>
        <mxCell id="ei6kTYKVST2P0mMHp64S-161" value="" style="endArrow=block;endSize=16;endFill=0;html=1;rounded=0;" edge="1" source="ei6kTYKVST2P0mMHp64S-157" target="ei6kTYKVST2P0mMHp64S-150" parent="1">
          <mxGeometry width="160" relative="1" as="geometry">
            <mxPoint x="1990" y="1550" as="sourcePoint" />
            <mxPoint x="2150" y="1550" as="targetPoint" />
          </mxGeometry>
        </mxCell>
        <mxCell id="ei6kTYKVST2P0mMHp64S-162" value="" style="endArrow=block;endSize=16;endFill=0;html=1;rounded=0;" edge="1" source="ei6kTYKVST2P0mMHp64S-153" target="ei6kTYKVST2P0mMHp64S-150" parent="1">
          <mxGeometry width="160" relative="1" as="geometry">
            <mxPoint x="1990" y="1550" as="sourcePoint" />
            <mxPoint x="2150" y="1550" as="targetPoint" />
          </mxGeometry>
        </mxCell>
        <mxCell id="ei6kTYKVST2P0mMHp64S-163" value="" style="endArrow=open;endSize=12;dashed=1;html=1;rounded=0;" edge="1" source="ei6kTYKVST2P0mMHp64S-150" target="ei6kTYKVST2P0mMHp64S-147" parent="1">
          <mxGeometry width="160" relative="1" as="geometry">
            <mxPoint x="2370" y="1390" as="sourcePoint" />
            <mxPoint x="2530" y="1390" as="targetPoint" />
          </mxGeometry>
        </mxCell>
        <mxCell id="ei6kTYKVST2P0mMHp64S-164" value="" style="endArrow=open;endSize=12;dashed=1;html=1;rounded=0;edgeStyle=orthogonalEdgeStyle;" edge="1" source="ei6kTYKVST2P0mMHp64S-147" target="ei6kTYKVST2P0mMHp64S-153" parent="1">
          <mxGeometry width="160" relative="1" as="geometry">
            <mxPoint x="2320" y="1600" as="sourcePoint" />
            <mxPoint x="2480" y="1600" as="targetPoint" />
            <Array as="points">
              <mxPoint x="2210" y="1260" />
            </Array>
          </mxGeometry>
        </mxCell>
        <mxCell id="ei6kTYKVST2P0mMHp64S-165" value="" style="endArrow=open;endSize=12;dashed=1;html=1;rounded=0;edgeStyle=orthogonalEdgeStyle;" edge="1" source="ei6kTYKVST2P0mMHp64S-147" target="ei6kTYKVST2P0mMHp64S-157" parent="1">
          <mxGeometry width="160" relative="1" as="geometry">
            <mxPoint x="2380" y="1402" as="sourcePoint" />
            <mxPoint x="2240" y="1500" as="targetPoint" />
            <Array as="points">
              <mxPoint x="2260" y="1226" />
              <mxPoint x="2260" y="1580" />
              <mxPoint x="1960" y="1580" />
            </Array>
          </mxGeometry>
        </mxCell>
        <mxCell id="ei6kTYKVST2P0mMHp64S-166" value="" style="endArrow=open;endSize=12;dashed=1;html=1;rounded=0;" edge="1" source="ei6kTYKVST2P0mMHp64S-146" target="ei6kTYKVST2P0mMHp64S-150" parent="1">
          <mxGeometry width="160" relative="1" as="geometry">
            <mxPoint x="1510" y="1630" as="sourcePoint" />
            <mxPoint x="1670" y="1630" as="targetPoint" />
          </mxGeometry>
        </mxCell>
        <mxCell id="ei6kTYKVST2P0mMHp64S-167" value="" style="endArrow=open;endSize=12;dashed=1;html=1;rounded=0;" edge="1" source="ei6kTYKVST2P0mMHp64S-146" target="ei6kTYKVST2P0mMHp64S-147" parent="1">
          <mxGeometry width="160" relative="1" as="geometry">
            <mxPoint x="1510" y="1630" as="sourcePoint" />
            <mxPoint x="1670" y="1630" as="targetPoint" />
          </mxGeometry>
        </mxCell>
        <mxCell id="ei6kTYKVST2P0mMHp64S-168" value="ConcreteElementC" style="swimlane;fontStyle=1;align=center;verticalAlign=top;childLayout=stackLayout;horizontal=1;startSize=26;horizontalStack=0;resizeParent=1;resizeParentMax=0;resizeLast=0;collapsible=1;marginBottom=0;whiteSpace=wrap;html=1;fillColor=#dae8fc;strokeColor=#6c8ebf;" vertex="1" parent="1">
          <mxGeometry x="1430" y="1450" width="160" height="86" as="geometry" />
        </mxCell>
        <mxCell id="ei6kTYKVST2P0mMHp64S-169" value="+Accept(v:Visitor)" style="text;strokeColor=none;fillColor=none;align=left;verticalAlign=top;spacingLeft=4;spacingRight=4;overflow=hidden;rotatable=0;points=[[0,0.5],[1,0.5]];portConstraint=eastwest;whiteSpace=wrap;html=1;fontStyle=1" vertex="1" parent="ei6kTYKVST2P0mMHp64S-168">
          <mxGeometry y="26" width="160" height="26" as="geometry" />
        </mxCell>
        <mxCell id="ei6kTYKVST2P0mMHp64S-170" value="" style="line;strokeWidth=1;fillColor=none;align=left;verticalAlign=middle;spacingTop=-1;spacingLeft=3;spacingRight=3;rotatable=0;labelPosition=right;points=[];portConstraint=eastwest;strokeColor=inherit;" vertex="1" parent="ei6kTYKVST2P0mMHp64S-168">
          <mxGeometry y="52" width="160" height="8" as="geometry" />
        </mxCell>
        <mxCell id="ei6kTYKVST2P0mMHp64S-171" value="..." style="text;strokeColor=none;fillColor=none;align=left;verticalAlign=top;spacingLeft=4;spacingRight=4;overflow=hidden;rotatable=0;points=[[0,0.5],[1,0.5]];portConstraint=eastwest;whiteSpace=wrap;html=1;" vertex="1" parent="ei6kTYKVST2P0mMHp64S-168">
          <mxGeometry y="60" width="160" height="26" as="geometry" />
        </mxCell>
        <mxCell id="ei6kTYKVST2P0mMHp64S-172" value="" style="endArrow=block;endSize=16;endFill=0;html=1;rounded=0;" edge="1" source="ei6kTYKVST2P0mMHp64S-168" target="ei6kTYKVST2P0mMHp64S-150" parent="1">
          <mxGeometry width="160" relative="1" as="geometry">
            <mxPoint x="1990" y="1550" as="sourcePoint" />
            <mxPoint x="2150" y="1550" as="targetPoint" />
          </mxGeometry>
        </mxCell>
        <mxCell id="ei6kTYKVST2P0mMHp64S-174" value="" style="endArrow=open;endSize=12;dashed=1;html=1;rounded=0;edgeStyle=orthogonalEdgeStyle;fillColor=#f8cecc;strokeColor=#b85450;strokeWidth=4;" edge="1" parent="1" source="ei6kTYKVST2P0mMHp64S-147" target="ei6kTYKVST2P0mMHp64S-168">
          <mxGeometry width="160" relative="1" as="geometry">
            <mxPoint x="2160" y="1226" as="sourcePoint" />
            <mxPoint x="1960" y="1556" as="targetPoint" />
            <Array as="points">
              <mxPoint x="2280" y="1210" />
              <mxPoint x="2280" y="1600" />
              <mxPoint x="1510" y="1600" />
            </Array>
          </mxGeometry>
        </mxCell>
        <mxCell id="ei6kTYKVST2P0mMHp64S-176" value="Element" style="swimlane;fontStyle=1;align=center;verticalAlign=top;childLayout=stackLayout;horizontal=1;startSize=26;horizontalStack=0;resizeParent=1;resizeParentMax=0;resizeLast=0;collapsible=1;marginBottom=0;whiteSpace=wrap;html=1;fillColor=#dae8fc;strokeColor=#6c8ebf;" vertex="1" parent="1">
          <mxGeometry x="110" y="-560" width="190" height="52" as="geometry" />
        </mxCell>
        <mxCell id="ei6kTYKVST2P0mMHp64S-177" value="+Accept(visitor:VisitorBase&amp;amp;)" style="text;strokeColor=none;fillColor=none;align=left;verticalAlign=top;spacingLeft=4;spacingRight=4;overflow=hidden;rotatable=0;points=[[0,0.5],[1,0.5]];portConstraint=eastwest;whiteSpace=wrap;html=1;" vertex="1" parent="ei6kTYKVST2P0mMHp64S-176">
          <mxGeometry y="26" width="190" height="26" as="geometry" />
        </mxCell>
        <mxCell id="ei6kTYKVST2P0mMHp64S-178" value="&lt;div&gt;&lt;i style=&quot;font-weight: normal;&quot;&gt;&amp;lt;&amp;lt;interface&amp;gt;&amp;gt;&lt;/i&gt;&lt;/div&gt;&lt;i&gt;VisitorBase&lt;/i&gt;" style="swimlane;fontStyle=1;align=center;verticalAlign=top;childLayout=stackLayout;horizontal=1;startSize=40;horizontalStack=0;resizeParent=1;resizeParentMax=0;resizeLast=0;collapsible=1;marginBottom=0;whiteSpace=wrap;html=1;fillColor=#d5e8d4;strokeColor=#82b366;" vertex="1" parent="1">
          <mxGeometry x="360" y="-560" width="160" height="66" as="geometry" />
        </mxCell>
        <mxCell id="ei6kTYKVST2P0mMHp64S-179" value="&lt;div&gt;&lt;span style=&quot;font-weight: normal;&quot;&gt;&lt;i&gt;&amp;lt;&amp;lt;interface&amp;gt;&amp;gt;&lt;/i&gt;&lt;/span&gt;&lt;/div&gt;&lt;i&gt;ConcreteElementBVisitor&lt;/i&gt;" style="swimlane;fontStyle=1;align=center;verticalAlign=top;childLayout=stackLayout;horizontal=1;startSize=40;horizontalStack=0;resizeParent=1;resizeParentMax=0;resizeLast=0;collapsible=1;marginBottom=0;whiteSpace=wrap;html=1;fillColor=#d5e8d4;strokeColor=#82b366;" vertex="1" parent="1">
          <mxGeometry x="780" y="-560" width="210" height="66" as="geometry" />
        </mxCell>
        <mxCell id="ei6kTYKVST2P0mMHp64S-180" value="+Visit(obj:ConcreteElementB&amp;amp;)" style="text;strokeColor=none;fillColor=none;align=left;verticalAlign=top;spacingLeft=4;spacingRight=4;overflow=hidden;rotatable=0;points=[[0,0.5],[1,0.5]];portConstraint=eastwest;whiteSpace=wrap;html=1;fontStyle=2" vertex="1" parent="ei6kTYKVST2P0mMHp64S-179">
          <mxGeometry y="40" width="210" height="26" as="geometry" />
        </mxCell>
        <mxCell id="ei6kTYKVST2P0mMHp64S-181" value="ConcreteElementA" style="swimlane;fontStyle=1;align=center;verticalAlign=top;childLayout=stackLayout;horizontal=1;startSize=26;horizontalStack=0;resizeParent=1;resizeParentMax=0;resizeLast=0;collapsible=1;marginBottom=0;whiteSpace=wrap;html=1;fillColor=#dae8fc;strokeColor=#6c8ebf;" vertex="1" parent="1">
          <mxGeometry x="45" y="-390" width="160" height="52" as="geometry" />
        </mxCell>
        <mxCell id="ei6kTYKVST2P0mMHp64S-182" value="+Accept(visitor:VisitorBase)" style="text;strokeColor=none;fillColor=none;align=left;verticalAlign=top;spacingLeft=4;spacingRight=4;overflow=hidden;rotatable=0;points=[[0,0.5],[1,0.5]];portConstraint=eastwest;whiteSpace=wrap;html=1;" vertex="1" parent="ei6kTYKVST2P0mMHp64S-181">
          <mxGeometry y="26" width="160" height="26" as="geometry" />
        </mxCell>
        <mxCell id="ei6kTYKVST2P0mMHp64S-183" value="" style="endArrow=block;endSize=16;endFill=0;html=1;rounded=0;" edge="1" source="ei6kTYKVST2P0mMHp64S-181" target="ei6kTYKVST2P0mMHp64S-176" parent="1">
          <mxGeometry width="160" relative="1" as="geometry">
            <mxPoint x="310" y="-240" as="sourcePoint" />
            <mxPoint x="470" y="-240" as="targetPoint" />
          </mxGeometry>
        </mxCell>
        <mxCell id="ei6kTYKVST2P0mMHp64S-184" value="ConcreteElementB" style="swimlane;fontStyle=1;align=center;verticalAlign=top;childLayout=stackLayout;horizontal=1;startSize=26;horizontalStack=0;resizeParent=1;resizeParentMax=0;resizeLast=0;collapsible=1;marginBottom=0;whiteSpace=wrap;html=1;fillColor=#dae8fc;strokeColor=#6c8ebf;" vertex="1" parent="1">
          <mxGeometry x="220" y="-390" width="170" height="52" as="geometry" />
        </mxCell>
        <mxCell id="ei6kTYKVST2P0mMHp64S-185" value="+Accept(visitor:VisitorBase&amp;amp;)" style="text;strokeColor=none;fillColor=none;align=left;verticalAlign=top;spacingLeft=4;spacingRight=4;overflow=hidden;rotatable=0;points=[[0,0.5],[1,0.5]];portConstraint=eastwest;whiteSpace=wrap;html=1;" vertex="1" parent="ei6kTYKVST2P0mMHp64S-184">
          <mxGeometry y="26" width="170" height="26" as="geometry" />
        </mxCell>
        <mxCell id="ei6kTYKVST2P0mMHp64S-186" value="" style="endArrow=block;endSize=16;endFill=0;html=1;rounded=0;" edge="1" source="ei6kTYKVST2P0mMHp64S-184" target="ei6kTYKVST2P0mMHp64S-176" parent="1">
          <mxGeometry width="160" relative="1" as="geometry">
            <mxPoint x="310" y="-240" as="sourcePoint" />
            <mxPoint x="470" y="-240" as="targetPoint" />
          </mxGeometry>
        </mxCell>
        <mxCell id="ei6kTYKVST2P0mMHp64S-187" value="" style="endArrow=open;endSize=12;dashed=1;html=1;rounded=0;" edge="1" source="ei6kTYKVST2P0mMHp64S-176" target="ei6kTYKVST2P0mMHp64S-178" parent="1">
          <mxGeometry width="160" relative="1" as="geometry">
            <mxPoint x="520" y="-390" as="sourcePoint" />
            <mxPoint x="680" y="-390" as="targetPoint" />
          </mxGeometry>
        </mxCell>
        <mxCell id="ei6kTYKVST2P0mMHp64S-188" value="ConcreteVisitor" style="swimlane;fontStyle=1;align=center;verticalAlign=top;childLayout=stackLayout;horizontal=1;startSize=26;horizontalStack=0;resizeParent=1;resizeParentMax=0;resizeLast=0;collapsible=1;marginBottom=0;whiteSpace=wrap;html=1;fillColor=#d5e8d4;strokeColor=#82b366;" vertex="1" parent="1">
          <mxGeometry x="560" y="-390" width="180" height="78" as="geometry" />
        </mxCell>
        <mxCell id="ei6kTYKVST2P0mMHp64S-223" value="+Visit(obj:ConcreteElementB&amp;amp;)" style="text;strokeColor=none;fillColor=none;align=left;verticalAlign=top;spacingLeft=4;spacingRight=4;overflow=hidden;rotatable=0;points=[[0,0.5],[1,0.5]];portConstraint=eastwest;whiteSpace=wrap;html=1;fontStyle=0" vertex="1" parent="ei6kTYKVST2P0mMHp64S-188">
          <mxGeometry y="26" width="180" height="26" as="geometry" />
        </mxCell>
        <mxCell id="ei6kTYKVST2P0mMHp64S-224" value="+Visit(obj:ConcreteElementA&amp;amp;)" style="text;strokeColor=none;fillColor=none;align=left;verticalAlign=top;spacingLeft=4;spacingRight=4;overflow=hidden;rotatable=0;points=[[0,0.5],[1,0.5]];portConstraint=eastwest;whiteSpace=wrap;html=1;fontStyle=0" vertex="1" parent="ei6kTYKVST2P0mMHp64S-188">
          <mxGeometry y="52" width="180" height="26" as="geometry" />
        </mxCell>
        <mxCell id="ei6kTYKVST2P0mMHp64S-189" value="&lt;div&gt;&lt;i style=&quot;font-weight: normal;&quot;&gt;&amp;lt;&amp;lt;interface&amp;gt;&amp;gt;&lt;/i&gt;&lt;/div&gt;&lt;i&gt;ConcreteElementAVisitor&lt;/i&gt;" style="swimlane;fontStyle=1;align=center;verticalAlign=top;childLayout=stackLayout;horizontal=1;startSize=40;horizontalStack=0;resizeParent=1;resizeParentMax=0;resizeLast=0;collapsible=1;marginBottom=0;whiteSpace=wrap;html=1;fillColor=#d5e8d4;strokeColor=#82b366;" vertex="1" parent="1">
          <mxGeometry x="550" y="-560" width="210" height="66" as="geometry" />
        </mxCell>
        <mxCell id="ei6kTYKVST2P0mMHp64S-190" value="+Visit(obj:ConcreteElementA&amp;amp;)" style="text;strokeColor=none;fillColor=none;align=left;verticalAlign=top;spacingLeft=4;spacingRight=4;overflow=hidden;rotatable=0;points=[[0,0.5],[1,0.5]];portConstraint=eastwest;whiteSpace=wrap;html=1;fontStyle=2" vertex="1" parent="ei6kTYKVST2P0mMHp64S-189">
          <mxGeometry y="40" width="210" height="26" as="geometry" />
        </mxCell>
        <mxCell id="ei6kTYKVST2P0mMHp64S-191" value="" style="endArrow=block;endSize=16;endFill=0;html=1;rounded=0;dashed=1;" edge="1" source="ei6kTYKVST2P0mMHp64S-188" target="ei6kTYKVST2P0mMHp64S-179" parent="1">
          <mxGeometry width="160" relative="1" as="geometry">
            <mxPoint x="640" y="-350" as="sourcePoint" />
            <mxPoint x="230" y="-498" as="targetPoint" />
          </mxGeometry>
        </mxCell>
        <mxCell id="ei6kTYKVST2P0mMHp64S-192" value="" style="endArrow=block;endSize=16;endFill=0;html=1;rounded=0;dashed=1;" edge="1" source="ei6kTYKVST2P0mMHp64S-188" target="ei6kTYKVST2P0mMHp64S-189" parent="1">
          <mxGeometry width="160" relative="1" as="geometry">
            <mxPoint x="640" y="-350" as="sourcePoint" />
            <mxPoint x="230" y="-498" as="targetPoint" />
          </mxGeometry>
        </mxCell>
        <mxCell id="ei6kTYKVST2P0mMHp64S-193" value="" style="endArrow=block;endSize=16;endFill=0;html=1;rounded=0;dashed=1;" edge="1" source="ei6kTYKVST2P0mMHp64S-188" target="ei6kTYKVST2P0mMHp64S-178" parent="1">
          <mxGeometry width="160" relative="1" as="geometry">
            <mxPoint x="640" y="-350" as="sourcePoint" />
            <mxPoint x="230" y="-498" as="targetPoint" />
          </mxGeometry>
        </mxCell>
        <mxCell id="ei6kTYKVST2P0mMHp64S-194" value="" style="endArrow=open;endSize=12;dashed=1;html=1;rounded=0;edgeStyle=orthogonalEdgeStyle;" edge="1" source="ei6kTYKVST2P0mMHp64S-184" target="ei6kTYKVST2P0mMHp64S-179" parent="1">
          <mxGeometry width="160" relative="1" as="geometry">
            <mxPoint x="270" y="-150" as="sourcePoint" />
            <mxPoint x="430" y="-150" as="targetPoint" />
            <Array as="points">
              <mxPoint x="340" y="-420" />
              <mxPoint x="870" y="-420" />
            </Array>
          </mxGeometry>
        </mxCell>
        <mxCell id="ei6kTYKVST2P0mMHp64S-195" value="" style="endArrow=open;endSize=12;dashed=1;html=1;rounded=0;edgeStyle=orthogonalEdgeStyle;" edge="1" source="ei6kTYKVST2P0mMHp64S-181" target="ei6kTYKVST2P0mMHp64S-189" parent="1">
          <mxGeometry width="160" relative="1" as="geometry">
            <mxPoint x="430" y="-406" as="sourcePoint" />
            <mxPoint x="579" y="-446" as="targetPoint" />
            <Array as="points">
              <mxPoint x="150" y="-450" />
              <mxPoint x="580" y="-450" />
            </Array>
          </mxGeometry>
        </mxCell>
        <mxCell id="ei6kTYKVST2P0mMHp64S-196" value="&lt;pre&gt;&lt;font face=&quot;Lucida Console&quot;&gt;if (&lt;b&gt;auto* v = dynamic_cast&amp;lt;ConcreteElementAVisitor*&amp;gt;(&amp;amp;visitor)&lt;/b&gt;) {&lt;/font&gt;&lt;/pre&gt;&lt;pre&gt;&lt;font face=&quot;Lucida Console&quot;&gt;  v-&amp;gt;Visit(*this);&lt;/font&gt;&lt;/pre&gt;&lt;pre&gt;&lt;font face=&quot;Lucida Console&quot;&gt;}&lt;/font&gt;&lt;/pre&gt;" style="shape=note;whiteSpace=wrap;html=1;backgroundOutline=1;darkOpacity=0.05;align=left;size=22;fillColor=#ffff88;strokeColor=#36393d;" vertex="1" parent="1">
          <mxGeometry x="100" y="-270" width="520" height="90" as="geometry" />
        </mxCell>
        <mxCell id="ei6kTYKVST2P0mMHp64S-197" style="edgeStyle=orthogonalEdgeStyle;rounded=0;orthogonalLoop=1;jettySize=auto;html=1;" edge="1" source="ei6kTYKVST2P0mMHp64S-182" target="ei6kTYKVST2P0mMHp64S-196" parent="1">
          <mxGeometry relative="1" as="geometry">
            <Array as="points">
              <mxPoint x="170" y="-250" />
              <mxPoint x="170" y="-250" />
            </Array>
          </mxGeometry>
        </mxCell>
        <mxCell id="ei6kTYKVST2P0mMHp64S-199" value="Element" style="swimlane;fontStyle=1;align=center;verticalAlign=top;childLayout=stackLayout;horizontal=1;startSize=26;horizontalStack=0;resizeParent=1;resizeParentMax=0;resizeLast=0;collapsible=1;marginBottom=0;whiteSpace=wrap;html=1;fillColor=#dae8fc;strokeColor=#6c8ebf;" vertex="1" parent="1">
          <mxGeometry x="85" y="-1050" width="190" height="52" as="geometry" />
        </mxCell>
        <mxCell id="ei6kTYKVST2P0mMHp64S-200" value="+Accept(visitor:VisitorBase&amp;amp;)" style="text;strokeColor=none;fillColor=none;align=left;verticalAlign=top;spacingLeft=4;spacingRight=4;overflow=hidden;rotatable=0;points=[[0,0.5],[1,0.5]];portConstraint=eastwest;whiteSpace=wrap;html=1;" vertex="1" parent="ei6kTYKVST2P0mMHp64S-199">
          <mxGeometry y="26" width="190" height="26" as="geometry" />
        </mxCell>
        <mxCell id="ei6kTYKVST2P0mMHp64S-201" value="&lt;div&gt;&lt;i style=&quot;font-weight: normal;&quot;&gt;&amp;lt;&amp;lt;interface&amp;gt;&amp;gt;&lt;/i&gt;&lt;/div&gt;&lt;i&gt;VisitorBase&lt;/i&gt;" style="swimlane;fontStyle=1;align=center;verticalAlign=top;childLayout=stackLayout;horizontal=1;startSize=40;horizontalStack=0;resizeParent=1;resizeParentMax=0;resizeLast=0;collapsible=1;marginBottom=0;whiteSpace=wrap;html=1;fillColor=#d5e8d4;strokeColor=#82b366;" vertex="1" parent="1">
          <mxGeometry x="335" y="-1050" width="160" height="66" as="geometry" />
        </mxCell>
        <mxCell id="ei6kTYKVST2P0mMHp64S-202" value="&lt;div&gt;&lt;span style=&quot;font-weight: normal;&quot;&gt;&lt;i&gt;&amp;lt;&amp;lt;interface&amp;gt;&amp;gt;&lt;/i&gt;&lt;/span&gt;&lt;/div&gt;&lt;i&gt;IVisitor&amp;lt;ConcreteElementB&amp;gt;&lt;/i&gt;" style="swimlane;fontStyle=1;align=center;verticalAlign=top;childLayout=stackLayout;horizontal=1;startSize=40;horizontalStack=0;resizeParent=1;resizeParentMax=0;resizeLast=0;collapsible=1;marginBottom=0;whiteSpace=wrap;html=1;fillColor=#d5e8d4;strokeColor=#82b366;" vertex="1" parent="1">
          <mxGeometry x="755" y="-1050" width="210" height="66" as="geometry" />
        </mxCell>
        <mxCell id="ei6kTYKVST2P0mMHp64S-204" value="ConcreteElementA" style="swimlane;fontStyle=1;align=center;verticalAlign=top;childLayout=stackLayout;horizontal=1;startSize=26;horizontalStack=0;resizeParent=1;resizeParentMax=0;resizeLast=0;collapsible=1;marginBottom=0;whiteSpace=wrap;html=1;fillColor=#dae8fc;strokeColor=#6c8ebf;" vertex="1" parent="1">
          <mxGeometry x="20" y="-880" width="160" height="52" as="geometry" />
        </mxCell>
        <mxCell id="ei6kTYKVST2P0mMHp64S-205" value="+Accept(visitor:VisitorBase)" style="text;strokeColor=none;fillColor=none;align=left;verticalAlign=top;spacingLeft=4;spacingRight=4;overflow=hidden;rotatable=0;points=[[0,0.5],[1,0.5]];portConstraint=eastwest;whiteSpace=wrap;html=1;" vertex="1" parent="ei6kTYKVST2P0mMHp64S-204">
          <mxGeometry y="26" width="160" height="26" as="geometry" />
        </mxCell>
        <mxCell id="ei6kTYKVST2P0mMHp64S-206" value="" style="endArrow=block;endSize=16;endFill=0;html=1;rounded=0;" edge="1" source="ei6kTYKVST2P0mMHp64S-204" target="ei6kTYKVST2P0mMHp64S-199" parent="1">
          <mxGeometry width="160" relative="1" as="geometry">
            <mxPoint x="285" y="-730" as="sourcePoint" />
            <mxPoint x="445" y="-730" as="targetPoint" />
          </mxGeometry>
        </mxCell>
        <mxCell id="ei6kTYKVST2P0mMHp64S-207" value="ConcreteElementB" style="swimlane;fontStyle=1;align=center;verticalAlign=top;childLayout=stackLayout;horizontal=1;startSize=26;horizontalStack=0;resizeParent=1;resizeParentMax=0;resizeLast=0;collapsible=1;marginBottom=0;whiteSpace=wrap;html=1;fillColor=#dae8fc;strokeColor=#6c8ebf;" vertex="1" parent="1">
          <mxGeometry x="195" y="-880" width="170" height="52" as="geometry" />
        </mxCell>
        <mxCell id="ei6kTYKVST2P0mMHp64S-208" value="+Accept(visitor:VisitorBase&amp;amp;)" style="text;strokeColor=none;fillColor=none;align=left;verticalAlign=top;spacingLeft=4;spacingRight=4;overflow=hidden;rotatable=0;points=[[0,0.5],[1,0.5]];portConstraint=eastwest;whiteSpace=wrap;html=1;" vertex="1" parent="ei6kTYKVST2P0mMHp64S-207">
          <mxGeometry y="26" width="170" height="26" as="geometry" />
        </mxCell>
        <mxCell id="ei6kTYKVST2P0mMHp64S-209" value="" style="endArrow=block;endSize=16;endFill=0;html=1;rounded=0;" edge="1" source="ei6kTYKVST2P0mMHp64S-207" target="ei6kTYKVST2P0mMHp64S-199" parent="1">
          <mxGeometry width="160" relative="1" as="geometry">
            <mxPoint x="285" y="-730" as="sourcePoint" />
            <mxPoint x="445" y="-730" as="targetPoint" />
          </mxGeometry>
        </mxCell>
        <mxCell id="ei6kTYKVST2P0mMHp64S-210" value="" style="endArrow=open;endSize=12;dashed=1;html=1;rounded=0;" edge="1" source="ei6kTYKVST2P0mMHp64S-199" target="ei6kTYKVST2P0mMHp64S-201" parent="1">
          <mxGeometry width="160" relative="1" as="geometry">
            <mxPoint x="495" y="-880" as="sourcePoint" />
            <mxPoint x="655" y="-880" as="targetPoint" />
          </mxGeometry>
        </mxCell>
        <mxCell id="ei6kTYKVST2P0mMHp64S-211" value="ConcreteVisitor" style="swimlane;fontStyle=1;align=center;verticalAlign=top;childLayout=stackLayout;horizontal=1;startSize=26;horizontalStack=0;resizeParent=1;resizeParentMax=0;resizeLast=0;collapsible=1;marginBottom=0;whiteSpace=wrap;html=1;fillColor=#d5e8d4;strokeColor=#82b366;" vertex="1" parent="1">
          <mxGeometry x="530" y="-880" width="190" height="78" as="geometry" />
        </mxCell>
        <mxCell id="ei6kTYKVST2P0mMHp64S-228" value="+Visit(obj:ConcreteElementB&amp;amp;)" style="text;strokeColor=none;fillColor=none;align=left;verticalAlign=top;spacingLeft=4;spacingRight=4;overflow=hidden;rotatable=0;points=[[0,0.5],[1,0.5]];portConstraint=eastwest;whiteSpace=wrap;html=1;fontStyle=0" vertex="1" parent="ei6kTYKVST2P0mMHp64S-211">
          <mxGeometry y="26" width="190" height="26" as="geometry" />
        </mxCell>
        <mxCell id="ei6kTYKVST2P0mMHp64S-229" value="+Visit(obj:ConcreteElementA&amp;amp;)" style="text;strokeColor=none;fillColor=none;align=left;verticalAlign=top;spacingLeft=4;spacingRight=4;overflow=hidden;rotatable=0;points=[[0,0.5],[1,0.5]];portConstraint=eastwest;whiteSpace=wrap;html=1;fontStyle=0" vertex="1" parent="ei6kTYKVST2P0mMHp64S-211">
          <mxGeometry y="52" width="190" height="26" as="geometry" />
        </mxCell>
        <mxCell id="ei6kTYKVST2P0mMHp64S-212" value="&lt;div&gt;&lt;i style=&quot;font-weight: normal;&quot;&gt;&amp;lt;&amp;lt;interface&amp;gt;&amp;gt;&lt;/i&gt;&lt;/div&gt;&lt;i&gt;IVisitor&amp;lt;ConcreteElementA&amp;gt;&lt;/i&gt;" style="swimlane;fontStyle=1;align=center;verticalAlign=top;childLayout=stackLayout;horizontal=1;startSize=40;horizontalStack=0;resizeParent=1;resizeParentMax=0;resizeLast=0;collapsible=1;marginBottom=0;whiteSpace=wrap;html=1;fillColor=#d5e8d4;strokeColor=#82b366;" vertex="1" parent="1">
          <mxGeometry x="525" y="-1050" width="210" height="66" as="geometry" />
        </mxCell>
        <mxCell id="ei6kTYKVST2P0mMHp64S-214" value="" style="endArrow=block;endSize=16;endFill=0;html=1;rounded=0;dashed=1;" edge="1" source="ei6kTYKVST2P0mMHp64S-211" target="ei6kTYKVST2P0mMHp64S-202" parent="1">
          <mxGeometry width="160" relative="1" as="geometry">
            <mxPoint x="615" y="-840" as="sourcePoint" />
            <mxPoint x="205" y="-988" as="targetPoint" />
            <Array as="points">
              <mxPoint x="740" y="-930" />
            </Array>
          </mxGeometry>
        </mxCell>
        <mxCell id="ei6kTYKVST2P0mMHp64S-215" value="" style="endArrow=block;endSize=16;endFill=0;html=1;rounded=0;dashed=1;" edge="1" source="ei6kTYKVST2P0mMHp64S-211" target="ei6kTYKVST2P0mMHp64S-212" parent="1">
          <mxGeometry width="160" relative="1" as="geometry">
            <mxPoint x="615" y="-840" as="sourcePoint" />
            <mxPoint x="205" y="-988" as="targetPoint" />
          </mxGeometry>
        </mxCell>
        <mxCell id="ei6kTYKVST2P0mMHp64S-216" value="" style="endArrow=block;endSize=16;endFill=0;html=1;rounded=0;dashed=1;" edge="1" source="ei6kTYKVST2P0mMHp64S-211" target="ei6kTYKVST2P0mMHp64S-201" parent="1">
          <mxGeometry width="160" relative="1" as="geometry">
            <mxPoint x="615" y="-840" as="sourcePoint" />
            <mxPoint x="205" y="-988" as="targetPoint" />
          </mxGeometry>
        </mxCell>
        <mxCell id="ei6kTYKVST2P0mMHp64S-217" value="" style="endArrow=open;endSize=12;dashed=1;html=1;rounded=0;edgeStyle=orthogonalEdgeStyle;" edge="1" source="ei6kTYKVST2P0mMHp64S-207" target="ei6kTYKVST2P0mMHp64S-202" parent="1">
          <mxGeometry width="160" relative="1" as="geometry">
            <mxPoint x="245" y="-640" as="sourcePoint" />
            <mxPoint x="405" y="-640" as="targetPoint" />
            <Array as="points">
              <mxPoint x="315" y="-910" />
              <mxPoint x="845" y="-910" />
            </Array>
          </mxGeometry>
        </mxCell>
        <mxCell id="ei6kTYKVST2P0mMHp64S-218" value="" style="endArrow=open;endSize=12;dashed=1;html=1;rounded=0;edgeStyle=orthogonalEdgeStyle;" edge="1" source="ei6kTYKVST2P0mMHp64S-204" target="ei6kTYKVST2P0mMHp64S-212" parent="1">
          <mxGeometry width="160" relative="1" as="geometry">
            <mxPoint x="405" y="-896" as="sourcePoint" />
            <mxPoint x="554" y="-936" as="targetPoint" />
            <Array as="points">
              <mxPoint x="125" y="-940" />
              <mxPoint x="555" y="-940" />
            </Array>
          </mxGeometry>
        </mxCell>
        <mxCell id="ei6kTYKVST2P0mMHp64S-219" value="&lt;pre&gt;&lt;font face=&quot;Lucida Console&quot;&gt;if (auto* v = dynamic_cast&amp;lt;&lt;b&gt;IVisitor&amp;lt;ConcreteElementA&amp;gt;&lt;/b&gt;*&amp;gt;(&amp;amp;visitor)) {&lt;/font&gt;&lt;/pre&gt;&lt;pre&gt;&lt;font face=&quot;Lucida Console&quot;&gt;  v-&amp;gt;Visit(*this);&lt;/font&gt;&lt;/pre&gt;&lt;pre&gt;&lt;font face=&quot;Lucida Console&quot;&gt;}&lt;/font&gt;&lt;/pre&gt;" style="shape=note;whiteSpace=wrap;html=1;backgroundOutline=1;darkOpacity=0.05;align=left;size=22;fillColor=#ffff88;strokeColor=#36393d;" vertex="1" parent="1">
          <mxGeometry x="75" y="-760" width="550" height="100" as="geometry" />
        </mxCell>
        <mxCell id="ei6kTYKVST2P0mMHp64S-220" style="edgeStyle=orthogonalEdgeStyle;rounded=0;orthogonalLoop=1;jettySize=auto;html=1;" edge="1" source="ei6kTYKVST2P0mMHp64S-205" target="ei6kTYKVST2P0mMHp64S-219" parent="1">
          <mxGeometry relative="1" as="geometry">
            <Array as="points">
              <mxPoint x="145" y="-740" />
              <mxPoint x="145" y="-740" />
            </Array>
          </mxGeometry>
        </mxCell>
        <mxCell id="ei6kTYKVST2P0mMHp64S-221" value="&lt;div&gt;&lt;i style=&quot;font-weight: normal;&quot;&gt;&amp;lt;&amp;lt;interface&amp;gt;&amp;gt;&lt;/i&gt;&lt;/div&gt;&lt;i&gt;IVisitor&lt;/i&gt;" style="swimlane;fontStyle=1;align=center;verticalAlign=top;childLayout=stackLayout;horizontal=1;startSize=40;horizontalStack=0;resizeParent=1;resizeParentMax=0;resizeLast=0;collapsible=1;marginBottom=0;whiteSpace=wrap;html=1;fillColor=#d5e8d4;strokeColor=#82b366;" vertex="1" parent="1">
          <mxGeometry x="550" y="-1190" width="155" height="66" as="geometry" />
        </mxCell>
        <mxCell id="ei6kTYKVST2P0mMHp64S-222" value="+Visit(obj:T&amp;amp;)" style="text;strokeColor=none;fillColor=none;align=left;verticalAlign=top;spacingLeft=4;spacingRight=4;overflow=hidden;rotatable=0;points=[[0,0.5],[1,0.5]];portConstraint=eastwest;whiteSpace=wrap;html=1;fontStyle=2" vertex="1" parent="ei6kTYKVST2P0mMHp64S-221">
          <mxGeometry y="40" width="155" height="26" as="geometry" />
        </mxCell>
        <mxCell id="ei6kTYKVST2P0mMHp64S-225" value="T" style="shape=partialRectangle;html=1;top=1;align=left;dashed=1;" vertex="1" parent="1">
          <mxGeometry x="675" y="-1200" width="25" height="20" as="geometry" />
        </mxCell>
        <mxCell id="ei6kTYKVST2P0mMHp64S-226" value="&amp;lt;&amp;lt;bind&amp;gt;&amp;gt; T::ConcreteElementA" style="endArrow=block;endSize=16;endFill=0;html=1;rounded=0;" edge="1" parent="1" source="ei6kTYKVST2P0mMHp64S-212" target="ei6kTYKVST2P0mMHp64S-221">
          <mxGeometry width="160" relative="1" as="geometry">
            <mxPoint x="570" y="-1100" as="sourcePoint" />
            <mxPoint x="730" y="-1100" as="targetPoint" />
          </mxGeometry>
        </mxCell>
        <mxCell id="ei6kTYKVST2P0mMHp64S-227" value="&amp;lt;&amp;lt;bind&amp;gt;&amp;gt; T::ConcreteElementB" style="endArrow=block;endSize=16;endFill=0;html=1;rounded=0;edgeStyle=orthogonalEdgeStyle;" edge="1" parent="1" source="ei6kTYKVST2P0mMHp64S-202" target="ei6kTYKVST2P0mMHp64S-221">
          <mxGeometry x="-0.365" width="160" relative="1" as="geometry">
            <mxPoint x="570" y="-1100" as="sourcePoint" />
            <mxPoint x="730" y="-1100" as="targetPoint" />
            <Array as="points">
              <mxPoint x="850" y="-1157" />
            </Array>
            <mxPoint as="offset" />
          </mxGeometry>
        </mxCell>
      </root>
    </mxGraphModel>
  </diagram>
</mxfile>
